<svg xmlns="http://www.w3.org/2000/svg" xmlns:xlink="http://www.w3.org/1999/xlink" width="1080" zoomAndPan="magnify" viewBox="0 0 810 809.999993" height="1080" preserveAspectRatio="xMidYMid meet" version="1.0"><defs><clipPath id="58101c9017"><path d="M 69.691406 149.796875 L 740.191406 149.796875 L 740.191406 753.546875 L 69.691406 753.546875 Z M 69.691406 149.796875 " clip-rule="nonzero"/></clipPath></defs><g clip-path="url(#58101c9017)"><path fill="#ffffff" d="M 739.585938 184.558594 C 739.585938 165.453125 724.042969 149.910156 704.9375 149.910156 L 104.339844 149.910156 C 85.234375 149.910156 69.691406 165.453125 69.691406 184.558594 L 69.691406 636.621094 C 69.691406 643.003906 74.855469 648.167969 81.238281 648.167969 L 568.261719 648.167969 C 570.046875 662.996094 572.132812 677.839844 574.832031 692.6875 C 576.65625 702.75 583.277344 711.613281 592.085938 715.84375 C 599.304688 719.285156 607.199219 719.25 613.730469 715.675781 L 635.207031 704.003906 L 658.703125 747.203125 C 660.800781 751.058594 664.769531 753.234375 668.863281 753.234375 C 670.726562 753.234375 672.621094 752.785156 674.367188 751.835938 L 725.441406 724.054688 C 728.136719 722.589844 730.132812 720.121094 731 717.175781 C 731.871094 714.242188 731.53125 711.074219 730.078125 708.390625 L 706.570312 665.179688 L 728.046875 653.503906 C 732.714844 650.960938 736.195312 646.828125 738.214844 641.804688 C 738.761719 640.734375 739.046875 639.566406 739.238281 638.335938 C 739.480469 637.359375 739.816406 636.425781 739.945312 635.402344 C 740.320312 632.480469 740.09375 629.519531 739.585938 626.589844 Z M 92.789062 184.558594 C 92.789062 178.1875 97.964844 173.007812 104.339844 173.007812 L 704.9375 173.007812 C 711.308594 173.007812 716.484375 178.1875 716.484375 184.558594 L 716.484375 229.078125 L 92.789062 229.078125 Z M 575.628906 509.445312 C 568.253906 513.460938 563.71875 521.335938 563.492188 530.515625 L 563.109375 546.488281 C 562.496094 572.367188 563.488281 598.640625 565.824219 625.070312 L 92.789062 625.070312 L 92.789062 252.179688 L 716.484375 252.179688 L 716.484375 596.261719 C 684.957031 567.785156 651.503906 542.390625 616.664062 521.007812 L 599.902344 510.734375 C 592.085938 505.917969 583.03125 505.441406 575.628906 509.445312 Z M 717.003906 633.214844 L 685.386719 650.402344 C 682.691406 651.867188 680.695312 654.339844 679.828125 657.28125 C 678.960938 660.214844 679.296875 663.386719 680.753906 666.070312 L 704.257812 709.28125 L 673.476562 726.019531 L 649.984375 682.820312 C 648.515625 680.125 646.035156 678.125 643.101562 677.257812 C 642.03125 676.941406 640.925781 676.785156 639.832031 676.785156 C 637.925781 676.785156 636.019531 677.257812 634.316406 678.195312 L 602.992188 695.292969 C 601.765625 695.089844 598.378906 693.070312 597.570312 688.5625 C 588.917969 640.972656 585.09375 593.363281 586.210938 547.039062 L 586.59375 531.078125 C 586.605469 530.460938 586.707031 530.042969 586.640625 529.882812 C 586.886719 529.941406 587.292969 530.085938 587.824219 530.414062 L 604.585938 540.699219 C 641.976562 563.644531 677.855469 591.175781 711.253906 622.554688 L 714.140625 625.273438 C 717.375 628.308594 717.367188 632.558594 717.003906 633.214844 Z M 717.003906 633.214844 " fill-opacity="1" fill-rule="nonzero"/></g><path fill="#ffffff" d="M 688.433594 189.476562 L 648.832031 189.476562 C 642.449219 189.476562 637.28125 194.644531 637.28125 201.027344 C 637.28125 207.414062 642.449219 212.578125 648.832031 212.578125 L 688.433594 212.578125 C 694.816406 212.578125 699.984375 207.414062 699.984375 201.027344 C 699.984375 194.644531 694.816406 189.476562 688.433594 189.476562 Z M 688.433594 189.476562 " fill-opacity="1" fill-rule="nonzero"/><path fill="#ffffff" d="M 609.230469 189.476562 L 569.640625 189.476562 C 563.257812 189.476562 558.089844 194.644531 558.089844 201.027344 C 558.089844 207.414062 563.257812 212.578125 569.640625 212.578125 L 609.230469 212.578125 C 615.613281 212.578125 620.78125 207.414062 620.78125 201.027344 C 620.78125 194.644531 615.617188 189.476562 609.230469 189.476562 Z M 609.230469 189.476562 " fill-opacity="1" fill-rule="nonzero"/><path fill="#ffffff" d="M 530.039062 189.476562 L 490.4375 189.476562 C 484.054688 189.476562 478.886719 194.644531 478.886719 201.027344 C 478.886719 207.414062 484.054688 212.578125 490.4375 212.578125 L 530.039062 212.578125 C 536.425781 212.578125 541.589844 207.414062 541.589844 201.027344 C 541.589844 194.644531 536.425781 189.476562 530.039062 189.476562 Z M 530.039062 189.476562 " fill-opacity="1" fill-rule="nonzero"/><path fill="#ffffff" d="M 541.53125 421.929688 C 538.5 416.3125 531.472656 414.238281 525.878906 417.304688 C 520.273438 420.351562 518.195312 427.367188 521.253906 432.960938 L 542.007812 471.109375 C 544.09375 474.964844 548.0625 477.144531 552.160156 477.144531 C 554.019531 477.144531 555.914062 476.691406 557.664062 475.734375 C 563.269531 472.6875 565.34375 465.671875 562.285156 460.078125 Z M 541.53125 421.929688 " fill-opacity="1" fill-rule="nonzero"/><path fill="#ffffff" d="M 519.617188 493.585938 L 482.734375 470.53125 C 477.320312 467.125 470.191406 468.785156 466.820312 474.199219 C 463.4375 479.613281 465.082031 486.742188 470.484375 490.113281 L 507.367188 513.167969 C 509.273438 514.363281 511.394531 514.929688 513.480469 514.929688 C 517.328125 514.929688 521.097656 513.011719 523.285156 509.503906 C 526.667969 504.089844 525.019531 496.960938 519.617188 493.585938 Z M 519.617188 493.585938 " fill-opacity="1" fill-rule="nonzero"/><path fill="#ffffff" d="M 654.699219 476.996094 C 656.605469 478.191406 658.710938 478.753906 660.8125 478.753906 C 664.65625 478.753906 668.425781 476.839844 670.613281 473.332031 L 693.632812 436.550781 C 697.019531 431.144531 695.382812 424.019531 689.96875 420.632812 C 684.566406 417.261719 677.4375 418.886719 674.054688 424.300781 L 651.03125 461.082031 C 647.648438 466.484375 649.285156 473.613281 654.699219 476.996094 Z M 654.699219 476.996094 " fill-opacity="1" fill-rule="nonzero"/><path fill="#ffffff" d="M 498.289062 546.714844 L 454.820312 546.363281 C 448.390625 546.363281 443.234375 551.472656 443.179688 557.824219 C 443.121094 564.195312 448.253906 569.40625 454.636719 569.460938 L 498.109375 569.8125 C 504.535156 569.8125 509.691406 564.703125 509.75 558.351562 C 509.804688 551.980469 504.671875 546.769531 498.289062 546.714844 Z M 498.289062 546.714844 " fill-opacity="1" fill-rule="nonzero"/><path fill="#ffffff" d="M 604.132812 463.03125 C 610.585938 463.03125 615.738281 457.945312 615.808594 451.605469 L 616.269531 408.160156 C 616.335938 401.773438 611.214844 396.550781 604.84375 396.484375 C 598.390625 396.484375 593.238281 401.570312 593.167969 407.910156 L 592.707031 451.359375 C 592.640625 457.742188 597.761719 462.964844 604.132812 463.03125 Z M 604.132812 463.03125 " fill-opacity="1" fill-rule="nonzero"/><path fill="#ffffff" d="M 138.527344 305.640625 L 353.464844 305.640625 C 359.847656 305.640625 365.011719 300.476562 365.011719 294.09375 C 365.011719 287.707031 359.847656 282.542969 353.464844 282.542969 L 138.527344 282.542969 C 132.144531 282.542969 126.976562 287.707031 126.976562 294.09375 C 126.976562 300.476562 132.144531 305.640625 138.527344 305.640625 Z M 138.527344 305.640625 " fill-opacity="1" fill-rule="nonzero"/><path fill="#ffffff" d="M 138.527344 354.425781 L 289.421875 354.425781 C 295.804688 354.425781 300.96875 349.257812 300.96875 342.875 C 300.96875 336.492188 295.804688 331.324219 289.421875 331.324219 L 138.527344 331.324219 C 132.144531 331.324219 126.976562 336.492188 126.976562 342.875 C 126.976562 349.257812 132.144531 354.425781 138.527344 354.425781 Z M 138.527344 354.425781 " fill-opacity="1" fill-rule="nonzero"/><path fill="#ffffff" d="M 385.484375 380.121094 L 138.527344 380.121094 C 132.144531 380.121094 126.976562 385.285156 126.976562 391.667969 C 126.976562 398.050781 132.144531 403.21875 138.527344 403.21875 L 385.484375 403.21875 C 391.867188 403.21875 397.035156 398.050781 397.035156 391.667969 C 397.035156 385.285156 391.867188 380.121094 385.484375 380.121094 Z M 385.484375 380.121094 " fill-opacity="1" fill-rule="nonzero"/><path fill="#ffffff" d="M 138.527344 452.011719 L 342.78125 452.011719 C 349.167969 452.011719 354.332031 446.847656 354.332031 440.460938 C 354.332031 434.078125 349.167969 428.914062 342.78125 428.914062 L 138.527344 428.914062 C 132.144531 428.914062 126.976562 434.078125 126.976562 440.460938 C 126.976562 446.847656 132.144531 452.011719 138.527344 452.011719 Z M 138.527344 452.011719 " fill-opacity="1" fill-rule="nonzero"/><path fill="#ffffff" d="M 374.804688 477.707031 L 138.527344 477.707031 C 132.144531 477.707031 126.976562 482.875 126.976562 489.257812 C 126.976562 495.640625 132.144531 500.804688 138.527344 500.804688 L 374.804688 500.804688 C 381.1875 500.804688 386.355469 495.640625 386.355469 489.257812 C 386.355469 482.875 381.1875 477.707031 374.804688 477.707031 Z M 374.804688 477.707031 " fill-opacity="1" fill-rule="nonzero"/><path fill="#ffffff" d="M 138.527344 549.601562 L 278.738281 549.601562 C 285.121094 549.601562 290.289062 544.433594 290.289062 538.050781 C 290.289062 531.667969 285.121094 526.5 278.738281 526.5 L 138.527344 526.5 C 132.144531 526.5 126.976562 531.667969 126.976562 538.050781 C 126.976562 544.433594 132.144531 549.601562 138.527344 549.601562 Z M 138.527344 549.601562 " fill-opacity="1" fill-rule="nonzero"/><path fill="#ffffff" d="M 342.78125 575.292969 L 138.527344 575.292969 C 132.144531 575.292969 126.976562 580.460938 126.976562 586.84375 C 126.976562 593.226562 132.144531 598.394531 138.527344 598.394531 L 342.78125 598.394531 C 349.167969 598.394531 354.332031 593.226562 354.332031 586.84375 C 354.332031 580.460938 349.167969 575.292969 342.78125 575.292969 Z M 342.78125 575.292969 " fill-opacity="1" fill-rule="nonzero"/></svg>