<svg xmlns="http://www.w3.org/2000/svg" xmlns:xlink="http://www.w3.org/1999/xlink" width="1080" zoomAndPan="magnify" viewBox="0 0 810 809.999993" height="1080" preserveAspectRatio="xMidYMid meet" version="1.0"><defs><clipPath id="fe983f9e28"><path d="M 65.132812 153 L 366 153 L 366 493 L 65.132812 493 Z M 65.132812 153 " clip-rule="nonzero"/></clipPath><clipPath id="1a87818cc5"><path d="M 501 68.222656 L 532 68.222656 L 532 86 L 501 86 Z M 501 68.222656 " clip-rule="nonzero"/></clipPath><clipPath id="a0528b41bc"><path d="M 250 696 L 559 696 L 559 741.722656 L 250 741.722656 Z M 250 696 " clip-rule="nonzero"/></clipPath><clipPath id="38e83cdfdb"><path d="M 320 153 L 744.632812 153 L 744.632812 493 L 320 493 Z M 320 153 " clip-rule="nonzero"/></clipPath><clipPath id="20ad93b471"><path d="M 213 515 L 744.632812 515 L 744.632812 561 L 213 561 Z M 213 515 " clip-rule="nonzero"/></clipPath><clipPath id="0174bc859a"><path d="M 65.132812 515 L 156 515 L 156 561 L 65.132812 561 Z M 65.132812 515 " clip-rule="nonzero"/></clipPath></defs><path fill="#000000" d="M 517.976562 326.101562 L 359.125 447.605469 L 676.828125 447.605469 Z M 517.976562 326.101562 " fill-opacity="1" fill-rule="nonzero"/><path fill="#000000" d="M 370.3125 262.964844 L 367.480469 227.539062 L 344.851562 251.507812 Z M 370.3125 262.964844 " fill-opacity="1" fill-rule="nonzero"/><path fill="#000000" d="M 303.097656 402.355469 C 303.097656 403.46875 303.070312 404.578125 303.019531 405.6875 C 302.964844 406.796875 302.882812 407.902344 302.773438 409.007812 C 302.664062 410.113281 302.527344 411.21875 302.363281 412.316406 C 302.203125 413.414062 302.011719 414.507812 301.796875 415.597656 C 301.578125 416.6875 301.335938 417.769531 301.066406 418.847656 C 300.796875 419.925781 300.5 420.996094 300.175781 422.058594 C 299.855469 423.121094 299.507812 424.175781 299.132812 425.222656 C 298.757812 426.269531 298.359375 427.304688 297.933594 428.332031 C 297.507812 429.355469 297.058594 430.371094 296.585938 431.375 C 296.109375 432.378906 295.609375 433.371094 295.085938 434.351562 C 294.5625 435.332031 294.015625 436.296875 293.445312 437.25 C 292.875 438.203125 292.28125 439.140625 291.664062 440.066406 C 291.046875 440.988281 290.40625 441.898438 289.746094 442.789062 C 289.085938 443.679688 288.402344 444.554688 287.695312 445.414062 C 286.992188 446.273438 286.265625 447.113281 285.523438 447.9375 C 284.777344 448.761719 284.011719 449.566406 283.226562 450.351562 C 282.441406 451.136719 281.636719 451.902344 280.8125 452.648438 C 279.988281 453.394531 279.148438 454.117188 278.289062 454.824219 C 277.433594 455.527344 276.558594 456.210938 275.664062 456.871094 C 274.773438 457.535156 273.867188 458.175781 272.941406 458.792969 C 272.019531 459.410156 271.082031 460.003906 270.128906 460.574219 C 269.175781 461.144531 268.210938 461.691406 267.230469 462.214844 C 266.25 462.738281 265.257812 463.238281 264.253906 463.714844 C 263.25 464.1875 262.238281 464.636719 261.210938 465.0625 C 260.183594 465.488281 259.148438 465.886719 258.105469 466.261719 C 257.058594 466.636719 256.003906 466.984375 254.941406 467.308594 C 253.878906 467.628906 252.808594 467.925781 251.730469 468.195312 C 250.652344 468.464844 249.570312 468.710938 248.480469 468.925781 C 247.390625 469.140625 246.296875 469.332031 245.199219 469.496094 C 244.101562 469.660156 243 469.792969 241.894531 469.902344 C 240.789062 470.011719 239.683594 470.09375 238.574219 470.148438 C 237.464844 470.203125 236.355469 470.230469 235.242188 470.230469 C 234.132812 470.230469 233.023438 470.203125 231.914062 470.148438 C 230.804688 470.09375 229.699219 470.011719 228.59375 469.902344 C 227.488281 469.792969 226.386719 469.660156 225.289062 469.496094 C 224.1875 469.332031 223.09375 469.140625 222.003906 468.925781 C 220.917969 468.710938 219.832031 468.464844 218.757812 468.195312 C 217.679688 467.925781 216.609375 467.628906 215.546875 467.308594 C 214.484375 466.984375 213.429688 466.636719 212.382812 466.261719 C 211.339844 465.886719 210.300781 465.488281 209.277344 465.0625 C 208.25 464.636719 207.234375 464.1875 206.230469 463.714844 C 205.226562 463.238281 204.234375 462.738281 203.257812 462.214844 C 202.277344 461.691406 201.3125 461.144531 200.359375 460.574219 C 199.40625 460.003906 198.46875 459.410156 197.546875 458.792969 C 196.621094 458.175781 195.714844 457.535156 194.820312 456.871094 C 193.929688 456.210938 193.054688 455.527344 192.195312 454.824219 C 191.339844 454.117188 190.496094 453.394531 189.675781 452.648438 C 188.851562 451.902344 188.046875 451.136719 187.261719 450.351562 C 186.476562 449.566406 185.710938 448.761719 184.964844 447.9375 C 184.21875 447.113281 183.496094 446.273438 182.789062 445.414062 C 182.085938 444.554688 181.402344 443.679688 180.742188 442.789062 C 180.078125 441.898438 179.441406 440.988281 178.824219 440.066406 C 178.207031 439.140625 177.613281 438.203125 177.042969 437.25 C 176.472656 436.296875 175.925781 435.332031 175.402344 434.351562 C 174.875 433.371094 174.378906 432.378906 173.902344 431.375 C 173.429688 430.371094 172.976562 429.355469 172.554688 428.332031 C 172.128906 427.304688 171.730469 426.269531 171.355469 425.222656 C 170.980469 424.175781 170.632812 423.121094 170.308594 422.058594 C 169.988281 420.996094 169.691406 419.925781 169.421875 418.847656 C 169.152344 417.769531 168.910156 416.6875 168.691406 415.597656 C 168.476562 414.507812 168.285156 413.414062 168.121094 412.316406 C 167.960938 411.21875 167.824219 410.113281 167.714844 409.007812 C 167.605469 407.902344 167.523438 406.796875 167.46875 405.6875 C 167.414062 404.578125 167.386719 403.46875 167.386719 402.355469 C 167.386719 401.246094 167.414062 400.136719 167.46875 399.027344 C 167.523438 397.917969 167.605469 396.808594 167.714844 395.703125 C 167.824219 394.597656 167.960938 393.496094 168.121094 392.398438 C 168.285156 391.300781 168.476562 390.203125 168.691406 389.117188 C 168.910156 388.027344 169.152344 386.941406 169.421875 385.863281 C 169.691406 384.789062 169.988281 383.71875 170.308594 382.652344 C 170.632812 381.589844 170.980469 380.535156 171.355469 379.492188 C 171.730469 378.445312 172.128906 377.410156 172.554688 376.382812 C 172.976562 375.355469 173.429688 374.339844 173.902344 373.335938 C 174.378906 372.332031 174.875 371.339844 175.402344 370.363281 C 175.925781 369.382812 176.472656 368.414062 177.042969 367.460938 C 177.613281 366.511719 178.207031 365.570312 178.824219 364.648438 C 179.441406 363.726562 180.078125 362.816406 180.742188 361.925781 C 181.402344 361.03125 182.085938 360.15625 182.789062 359.296875 C 183.496094 358.441406 184.21875 357.597656 184.964844 356.777344 C 185.710938 355.953125 186.476562 355.148438 187.261719 354.363281 C 188.046875 353.578125 188.851562 352.8125 189.675781 352.066406 C 190.496094 351.320312 191.339844 350.59375 192.195312 349.890625 C 193.054688 349.183594 193.929688 348.503906 194.820312 347.839844 C 195.714844 347.179688 196.621094 346.539062 197.546875 345.921875 C 198.46875 345.304688 199.40625 344.710938 200.359375 344.140625 C 201.3125 343.570312 202.277344 343.023438 203.257812 342.496094 C 204.234375 341.972656 205.226562 341.476562 206.230469 341 C 207.234375 340.523438 208.25 340.074219 209.277344 339.648438 C 210.300781 339.226562 211.339844 338.824219 212.382812 338.449219 C 213.429688 338.078125 214.484375 337.730469 215.546875 337.40625 C 216.609375 337.082031 217.679688 336.789062 218.757812 336.519531 C 219.832031 336.246094 220.917969 336.003906 222.003906 335.789062 C 223.09375 335.570312 224.1875 335.382812 225.289062 335.21875 C 226.386719 335.054688 227.488281 334.917969 228.59375 334.808594 C 229.699219 334.703125 230.804688 334.621094 231.914062 334.566406 C 233.023438 334.511719 234.132812 334.484375 235.242188 334.484375 C 236.355469 334.484375 237.464844 334.511719 238.574219 334.566406 C 239.683594 334.621094 240.789062 334.703125 241.894531 334.808594 C 243 334.917969 244.101562 335.054688 245.199219 335.21875 C 246.296875 335.382812 247.390625 335.570312 248.480469 335.789062 C 249.570312 336.003906 250.652344 336.246094 251.730469 336.519531 C 252.808594 336.789062 253.878906 337.082031 254.941406 337.40625 C 256.003906 337.730469 257.058594 338.078125 258.105469 338.449219 C 259.148438 338.824219 260.183594 339.226562 261.210938 339.648438 C 262.238281 340.074219 263.25 340.523438 264.253906 341 C 265.257812 341.476562 266.25 341.972656 267.230469 342.496094 C 268.210938 343.023438 269.175781 343.570312 270.128906 344.140625 C 271.082031 344.710938 272.019531 345.304688 272.941406 345.921875 C 273.867188 346.539062 274.773438 347.179688 275.664062 347.839844 C 276.558594 348.503906 277.433594 349.183594 278.289062 349.890625 C 279.148438 350.59375 279.988281 351.320312 280.8125 352.066406 C 281.636719 352.8125 282.441406 353.578125 283.226562 354.363281 C 284.011719 355.148438 284.777344 355.953125 285.519531 356.777344 C 286.265625 357.597656 286.992188 358.441406 287.695312 359.296875 C 288.402344 360.15625 289.085938 361.03125 289.746094 361.925781 C 290.40625 362.816406 291.046875 363.726562 291.664062 364.648438 C 292.28125 365.570312 292.875 366.511719 293.445312 367.460938 C 294.015625 368.414062 294.5625 369.382812 295.085938 370.363281 C 295.609375 371.339844 296.109375 372.332031 296.585938 373.335938 C 297.058594 374.339844 297.507812 375.355469 297.933594 376.382812 C 298.359375 377.410156 298.757812 378.445312 299.132812 379.492188 C 299.507812 380.535156 299.855469 381.589844 300.175781 382.652344 C 300.5 383.71875 300.796875 384.789062 301.066406 385.863281 C 301.335938 386.941406 301.578125 388.027344 301.796875 389.117188 C 302.011719 390.203125 302.203125 391.300781 302.363281 392.398438 C 302.527344 393.496094 302.664062 394.597656 302.773438 395.703125 C 302.882812 396.808594 302.964844 397.917969 303.019531 399.027344 C 303.070312 400.136719 303.097656 401.246094 303.097656 402.355469 Z M 303.097656 402.355469 " fill-opacity="1" fill-rule="nonzero"/><g clip-path="url(#fe983f9e28)"><path fill="#000000" d="M 110.839844 402.355469 C 110.839844 333.742188 166.648438 277.921875 235.242188 277.921875 C 265.292969 277.921875 292.882812 288.632812 314.410156 306.4375 L 314.410156 255.296875 C 314.410156 252.410156 315.511719 249.628906 317.496094 247.53125 L 365.058594 197.160156 L 361.570312 153.488281 L 79.019531 153.488281 C 71.625 153.488281 65.605469 159.507812 65.605469 166.90625 L 65.605469 492.855469 L 149.953125 492.855469 C 125.890625 470.148438 110.839844 437.980469 110.839844 402.355469 Z M 99.519531 289.234375 C 97.542969 289.234375 95.535156 288.714844 93.714844 287.621094 C 88.359375 284.410156 86.621094 277.460938 89.835938 272.101562 L 123.761719 215.542969 C 125.699219 212.3125 129.117188 210.257812 132.878906 210.0625 C 136.625 209.851562 140.246094 211.558594 142.507812 214.574219 L 167.855469 248.378906 L 215.246094 191.492188 C 217.277344 189.050781 220.246094 187.578125 223.421875 187.433594 C 226.582031 187.296875 229.683594 188.488281 231.929688 190.738281 L 257.863281 216.675781 L 275.796875 198.738281 L 257.863281 198.738281 C 251.617188 198.738281 246.554688 193.671875 246.554688 187.425781 C 246.554688 181.179688 251.617188 176.113281 257.863281 176.113281 L 303.097656 176.113281 C 309.34375 176.113281 314.410156 181.179688 314.410156 187.425781 L 314.410156 232.671875 C 314.410156 238.921875 309.34375 243.984375 303.097656 243.984375 C 296.855469 243.984375 291.789062 238.921875 291.789062 232.671875 L 291.789062 214.734375 L 265.859375 240.671875 C 261.441406 245.089844 254.28125 245.089844 249.867188 240.671875 L 224.695312 215.496094 L 176.074219 273.851562 C 173.863281 276.507812 170.539062 278 167.097656 277.917969 C 163.640625 277.832031 160.414062 276.164062 158.339844 273.398438 L 134.503906 241.609375 L 109.230469 283.742188 C 107.109375 287.277344 103.363281 289.234375 99.519531 289.234375 Z M 99.519531 289.234375 " fill-opacity="1" fill-rule="nonzero"/></g><path fill="#000000" d="M 698.925781 436.027344 L 698.925781 272.792969 L 564.578125 333.265625 Z M 698.925781 436.027344 " fill-opacity="1" fill-rule="nonzero"/><path fill="#000000" d="M 417.90625 148.71875 L 463 145.101562 L 466.613281 190.207031 L 421.523438 193.824219 Z M 417.90625 148.71875 " fill-opacity="1" fill-rule="nonzero"/><g clip-path="url(#1a87818cc5)"><path fill="#000000" d="M 517.976562 68.152344 L 501.792969 85.292969 L 531.886719 82.886719 Z M 517.976562 68.152344 " fill-opacity="1" fill-rule="nonzero"/></g><path fill="#000000" d="M 661.90625 220.589844 L 665.300781 263.117188 L 691.097656 251.507812 Z M 661.90625 220.589844 " fill-opacity="1" fill-rule="nonzero"/><path fill="#000000" d="M 235.242188 300.546875 C 179.121094 300.546875 133.460938 346.21875 133.460938 402.355469 C 133.460938 458.496094 179.121094 504.167969 235.242188 504.167969 C 291.367188 504.167969 337.027344 458.496094 337.027344 402.355469 C 337.027344 346.21875 291.367188 300.546875 235.242188 300.546875 Z M 235.242188 492.855469 C 185.355469 492.855469 144.769531 452.257812 144.769531 402.355469 C 144.769531 352.457031 185.355469 311.859375 235.242188 311.859375 C 285.132812 311.859375 325.71875 352.457031 325.71875 402.355469 C 325.71875 452.257812 285.132812 492.855469 235.242188 492.855469 Z M 235.242188 492.855469 " fill-opacity="1" fill-rule="nonzero"/><path fill="#000000" d="M 406.792969 279.386719 C 405.957031 277.960938 405.414062 276.335938 405.277344 274.578125 C 404.777344 268.347656 409.421875 262.898438 415.648438 262.398438 L 618.570312 246.1875 C 624.796875 245.6875 630.246094 250.332031 630.742188 256.5625 C 631.242188 262.789062 626.597656 268.242188 620.371094 268.738281 L 418.902344 284.835938 L 491.792969 317.644531 L 511.105469 302.871094 C 515.160156 299.773438 520.792969 299.773438 524.847656 302.871094 L 544.160156 317.644531 L 643.398438 272.976562 L 629.410156 97.792969 L 381.394531 117.609375 L 393.847656 273.558594 Z M 617.667969 234.910156 L 414.746094 251.121094 C 414.441406 251.148438 414.136719 251.160156 413.835938 251.160156 C 407.996094 251.160156 403.046875 246.667969 402.574219 240.746094 C 402.074219 234.519531 406.71875 229.066406 412.945312 228.570312 L 615.867188 212.355469 C 622.074219 211.859375 627.542969 216.503906 628.039062 222.730469 C 628.539062 228.960938 623.894531 234.410156 617.667969 234.910156 Z M 614.964844 201.082031 L 513.503906 209.1875 C 513.199219 209.210938 512.894531 209.222656 512.59375 209.222656 C 506.753906 209.222656 501.804688 204.734375 501.332031 198.8125 C 500.832031 192.585938 505.480469 187.132812 511.703125 186.632812 L 613.164062 178.527344 C 619.382812 178.035156 624.839844 182.675781 625.335938 188.902344 C 625.835938 195.132812 621.191406 200.582031 614.964844 201.082031 Z M 540.121094 116.277344 L 607.761719 110.871094 C 613.972656 110.375 619.4375 115.019531 619.9375 121.246094 C 620.433594 127.472656 615.789062 132.925781 609.5625 133.421875 L 541.921875 138.828125 C 541.613281 138.851562 541.3125 138.863281 541.007812 138.863281 C 535.171875 138.863281 530.222656 134.375 529.746094 128.453125 C 529.253906 122.222656 533.894531 116.773438 540.121094 116.277344 Z M 509.003906 152.804688 L 610.464844 144.699219 C 616.691406 144.199219 622.136719 148.847656 622.636719 155.074219 C 623.132812 161.300781 618.488281 166.753906 612.261719 167.25 L 510.804688 175.359375 C 510.496094 175.382812 510.191406 175.394531 509.890625 175.394531 C 504.050781 175.394531 499.101562 170.902344 498.628906 164.984375 C 498.132812 158.753906 502.777344 153.304688 509.003906 152.804688 Z M 404.84375 127.085938 L 472.484375 121.679688 C 478.710938 121.1875 484.15625 125.828125 484.65625 132.054688 L 490.058594 199.710938 C 490.554688 205.941406 485.910156 211.394531 479.683594 211.890625 L 412.042969 217.292969 C 411.738281 217.320312 411.433594 217.332031 411.132812 217.332031 C 405.292969 217.332031 400.34375 212.839844 399.871094 206.921875 L 394.46875 139.261719 C 393.972656 133.03125 398.613281 127.582031 404.84375 127.085938 Z M 404.84375 127.085938 " fill-opacity="1" fill-rule="nonzero"/><path fill="#000000" d="M 471.371094 333.265625 L 337.027344 272.792969 L 337.027344 330.894531 C 351.269531 351.132812 359.644531 375.78125 359.644531 402.355469 C 359.644531 408.226562 359.230469 413.996094 358.4375 419.648438 Z M 471.371094 333.265625 " fill-opacity="1" fill-rule="nonzero"/><g clip-path="url(#a0528b41bc)"><path fill="#000000" d="M 536.210938 696.472656 L 273.558594 696.472656 C 269.046875 696.472656 265.054688 699.351562 263.628906 703.632812 L 250.933594 741.722656 L 558.832031 741.722656 L 546.136719 703.632812 C 544.710938 699.351562 540.722656 696.472656 536.210938 696.472656 Z M 536.210938 696.472656 " fill-opacity="1" fill-rule="nonzero"/></g><path fill="#000000" d="M 350.109375 583.351562 C 349.214844 614.828125 341.394531 645.777344 327.34375 673.847656 L 482.429688 673.847656 C 468.367188 645.78125 460.554688 614.828125 459.65625 583.351562 Z M 350.109375 583.351562 " fill-opacity="1" fill-rule="nonzero"/><g clip-path="url(#38e83cdfdb)"><path fill="#000000" d="M 730.746094 153.488281 L 656.546875 153.488281 L 659.03125 184.59375 L 718.457031 247.53125 C 720.4375 249.628906 721.542969 252.410156 721.542969 255.296875 L 721.542969 458.917969 C 721.542969 465.164062 716.480469 470.226562 710.234375 470.226562 L 339.457031 470.226562 C 334.054688 478.503906 327.695312 486.097656 320.535156 492.851562 L 744.160156 492.851562 L 744.160156 166.90625 C 744.160156 159.507812 738.140625 153.488281 730.746094 153.488281 Z M 730.746094 153.488281 " fill-opacity="1" fill-rule="nonzero"/></g><g clip-path="url(#20ad93b471)"><path fill="#000000" d="M 235.242188 526.789062 C 231.390625 526.789062 227.582031 526.605469 223.816406 526.261719 L 213.976562 551.773438 C 217.929688 553.296875 220.53125 556.808594 221.097656 560.726562 L 730.746094 560.726562 C 738.140625 560.726562 744.160156 554.707031 744.160156 547.308594 L 744.160156 515.480469 L 287.039062 515.480469 C 271.261719 522.734375 253.71875 526.789062 235.242188 526.789062 Z M 710.234375 526.789062 L 721.542969 526.789062 C 727.789062 526.789062 732.851562 531.855469 732.851562 538.101562 C 732.851562 544.351562 727.789062 549.414062 721.542969 549.414062 L 710.234375 549.414062 C 703.988281 549.414062 698.925781 544.351562 698.925781 538.101562 C 698.925781 531.855469 703.988281 526.789062 710.234375 526.789062 Z M 653.6875 526.789062 L 676.304688 526.789062 C 682.550781 526.789062 687.613281 531.855469 687.613281 538.101562 C 687.613281 544.351562 682.550781 549.414062 676.304688 549.414062 L 653.6875 549.414062 C 647.441406 549.414062 642.378906 544.351562 642.378906 538.101562 C 642.378906 531.855469 647.441406 526.789062 653.6875 526.789062 Z M 597.140625 526.789062 L 619.757812 526.789062 C 626.003906 526.789062 631.070312 531.855469 631.070312 538.101562 C 631.070312 544.351562 626.003906 549.414062 619.757812 549.414062 L 597.140625 549.414062 C 590.894531 549.414062 585.832031 544.351562 585.832031 538.101562 C 585.832031 531.855469 590.894531 526.789062 597.140625 526.789062 Z M 325.71875 526.789062 L 484.046875 526.789062 C 490.292969 526.789062 495.355469 531.855469 495.355469 538.101562 C 495.355469 544.351562 490.292969 549.414062 484.046875 549.414062 L 325.71875 549.414062 C 319.472656 549.414062 314.410156 544.351562 314.410156 538.101562 C 314.410156 531.855469 319.472656 526.789062 325.71875 526.789062 Z M 325.71875 526.789062 " fill-opacity="1" fill-rule="nonzero"/></g><path fill="#000000" d="M 171.773438 535.484375 L 192.875 543.628906 L 201.195312 522.050781 C 193.867188 519.964844 186.820312 517.210938 180.105469 513.878906 Z M 171.773438 535.484375 " fill-opacity="1" fill-rule="nonzero"/><g clip-path="url(#0174bc859a)"><path fill="#000000" d="M 136.046875 533.824219 C 137.125 531.023438 139.273438 528.769531 142.015625 527.554688 C 144.757812 526.339844 147.871094 526.261719 150.667969 527.339844 L 155.242188 515.480469 L 65.605469 515.480469 L 65.605469 547.308594 C 65.605469 554.707031 71.625 560.726562 79.019531 560.726562 L 125.667969 560.726562 Z M 99.5625 549.414062 C 93.316406 549.414062 88.246094 544.351562 88.246094 538.101562 C 88.246094 531.855469 93.300781 526.789062 99.546875 526.789062 L 99.5625 526.789062 C 105.808594 526.789062 110.871094 531.855469 110.871094 538.101562 C 110.871094 544.351562 105.804688 549.414062 99.5625 549.414062 Z M 99.5625 549.414062 " fill-opacity="1" fill-rule="nonzero"/></g><path fill="#000000" d="M 96.105469 700.285156 L 153.105469 552.53125 L 195.308594 568.824219 L 138.3125 716.574219 Z M 96.105469 700.285156 " fill-opacity="1" fill-rule="nonzero"/></svg>