<svg xmlns="http://www.w3.org/2000/svg" xmlns:xlink="http://www.w3.org/1999/xlink" width="1080" zoomAndPan="magnify" viewBox="0 0 810 809.999993" height="1080" preserveAspectRatio="xMidYMid meet" version="1.0"><defs><clipPath id="df29bfeccf"><path d="M 133.707031 131 L 675.957031 131 L 675.957031 679 L 133.707031 679 Z M 133.707031 131 " clip-rule="nonzero"/></clipPath></defs><g clip-path="url(#df29bfeccf)"><path fill="#000000" d="M 622.90625 131.195312 L 187.320312 131.195312 C 184.710938 131.207031 182.113281 131.410156 179.535156 131.804688 C 176.953125 132.195312 174.417969 132.773438 171.921875 133.535156 C 169.425781 134.296875 166.996094 135.238281 164.640625 136.355469 C 162.28125 137.472656 160.015625 138.753906 157.84375 140.199219 C 155.671875 141.648438 153.613281 143.246094 151.675781 144.996094 C 149.738281 146.742188 147.933594 148.621094 146.269531 150.632812 C 144.605469 152.644531 143.09375 154.765625 141.738281 156.996094 C 140.382812 159.226562 139.195312 161.546875 138.175781 163.953125 C 135.351562 170.59375 133.957031 177.527344 133.988281 184.746094 L 133.988281 625.441406 C 133.988281 627.191406 134.078125 628.9375 134.25 630.675781 C 134.421875 632.417969 134.679688 634.148438 135.019531 635.863281 C 135.363281 637.578125 135.785156 639.273438 136.292969 640.949219 C 136.800781 642.625 137.390625 644.269531 138.058594 645.886719 C 138.726562 647.503906 139.472656 649.082031 140.296875 650.625 C 141.121094 652.171875 142.015625 653.671875 142.984375 655.125 C 143.957031 656.582031 144.996094 657.988281 146.101562 659.339844 C 147.207031 660.695312 148.378906 661.992188 149.613281 663.230469 C 150.847656 664.46875 152.140625 665.644531 153.488281 666.757812 C 154.839844 667.871094 156.238281 668.914062 157.691406 669.890625 C 159.140625 670.867188 160.636719 671.769531 162.175781 672.597656 C 163.714844 673.425781 165.292969 674.175781 166.90625 674.851562 C 168.519531 675.523438 170.160156 676.117188 171.832031 676.632812 C 173.503906 677.144531 175.195312 677.574219 176.910156 677.921875 C 178.621094 678.269531 180.347656 678.535156 182.089844 678.710938 C 183.828125 678.890625 185.570312 678.984375 187.320312 678.988281 L 622.90625 678.988281 C 624.65625 678.988281 626.40625 678.902344 628.148438 678.726562 C 629.890625 678.554688 631.621094 678.296875 633.339844 677.953125 C 635.058594 677.609375 636.753906 677.183594 638.429688 676.671875 C 640.105469 676.160156 641.753906 675.570312 643.371094 674.898438 C 644.988281 674.226562 646.570312 673.476562 648.113281 672.652344 C 649.660156 671.824219 651.160156 670.921875 652.613281 669.949219 C 654.070312 668.972656 655.476562 667.929688 656.832031 666.816406 C 658.183594 665.707031 659.480469 664.527344 660.71875 663.289062 C 661.957031 662.050781 663.132812 660.753906 664.242188 659.398438 C 665.355469 658.042969 666.398438 656.636719 667.371094 655.179688 C 668.34375 653.71875 669.246094 652.21875 670.070312 650.671875 C 670.898438 649.125 671.644531 647.542969 672.316406 645.925781 C 672.988281 644.304688 673.578125 642.65625 674.089844 640.980469 C 674.597656 639.300781 675.023438 637.601562 675.367188 635.882812 C 675.710938 634.164062 675.96875 632.433594 676.140625 630.6875 C 676.316406 628.941406 676.402344 627.195312 676.40625 625.441406 L 676.40625 184.746094 C 676.40625 182.992188 676.324219 181.242188 676.152344 179.496094 C 675.980469 177.75 675.726562 176.015625 675.386719 174.292969 C 675.046875 172.574219 674.621094 170.875 674.113281 169.195312 C 673.605469 167.515625 673.015625 165.863281 672.347656 164.242188 C 671.675781 162.621094 670.929688 161.039062 670.105469 159.492188 C 669.277344 157.945312 668.378906 156.441406 667.40625 154.980469 C 666.433594 153.523438 665.390625 152.113281 664.277344 150.757812 C 663.167969 149.402344 661.992188 148.105469 660.75 146.863281 C 659.511719 145.625 658.214844 144.445312 656.859375 143.332031 C 655.503906 142.222656 654.097656 141.175781 652.640625 140.203125 C 651.183594 139.230469 649.683594 138.328125 648.136719 137.503906 C 646.589844 136.675781 645.007812 135.925781 643.386719 135.257812 C 641.769531 134.585938 640.121094 133.996094 638.441406 133.488281 C 636.765625 132.980469 635.066406 132.554688 633.347656 132.214844 C 631.628906 131.875 629.894531 131.617188 628.152344 131.449219 C 626.40625 131.277344 624.660156 131.195312 622.90625 131.195312 Z M 148.226562 168.3125 C 149.035156 166.398438 149.976562 164.554688 151.054688 162.78125 C 152.132812 161.007812 153.335938 159.324219 154.660156 157.726562 C 155.984375 156.128906 157.417969 154.636719 158.960938 153.25 C 160.503906 151.863281 162.140625 150.59375 163.867188 149.449219 C 165.597656 148.300781 167.402344 147.285156 169.277344 146.402344 C 171.15625 145.519531 173.085938 144.78125 175.074219 144.183594 C 177.058594 143.582031 179.078125 143.132812 181.128906 142.828125 C 183.183594 142.527344 185.246094 142.375 187.320312 142.375 L 622.90625 142.375 C 624.292969 142.375 625.675781 142.441406 627.054688 142.578125 C 628.433594 142.714844 629.804688 142.917969 631.164062 143.1875 C 632.523438 143.460938 633.867188 143.796875 635.195312 144.199219 C 636.519531 144.601562 637.824219 145.070312 639.105469 145.601562 C 640.386719 146.132812 641.636719 146.722656 642.859375 147.378906 C 644.082031 148.03125 645.269531 148.746094 646.421875 149.515625 C 647.574219 150.285156 648.6875 151.113281 649.761719 151.992188 C 650.832031 152.875 651.859375 153.804688 652.835938 154.785156 C 653.816406 155.765625 654.746094 156.792969 655.628906 157.867188 C 656.507812 158.9375 657.332031 160.050781 658.101562 161.207031 C 658.871094 162.359375 659.585938 163.546875 660.238281 164.773438 C 660.890625 165.996094 661.484375 167.25 662.015625 168.53125 C 662.542969 169.8125 663.011719 171.117188 663.414062 172.445312 C 663.816406 173.773438 664.152344 175.117188 664.421875 176.480469 C 664.691406 177.839844 664.894531 179.210938 665.03125 180.59375 C 665.167969 181.972656 665.234375 183.359375 665.234375 184.746094 L 665.234375 238.628906 L 145.15625 238.628906 L 145.15625 184.746094 C 145.074219 179.0625 146.097656 173.582031 148.226562 168.3125 Z M 622.90625 667.8125 L 187.320312 667.8125 C 185.933594 667.808594 184.550781 667.738281 183.171875 667.601562 C 181.792969 667.464844 180.421875 667.257812 179.066406 666.988281 C 177.707031 666.714844 176.363281 666.378906 175.039062 665.972656 C 173.710938 665.570312 172.410156 665.101562 171.128906 664.570312 C 169.847656 664.039062 168.597656 663.445312 167.375 662.792969 C 166.152344 662.136719 164.964844 661.421875 163.816406 660.652344 C 162.664062 659.882812 161.550781 659.054688 160.480469 658.175781 C 159.410156 657.296875 158.382812 656.363281 157.402344 655.382812 C 156.421875 654.402344 155.492188 653.375 154.613281 652.304688 C 153.734375 651.234375 152.910156 650.121094 152.140625 648.96875 C 151.371094 647.8125 150.65625 646.625 150.003906 645.402344 C 149.347656 644.179688 148.757812 642.925781 148.226562 641.644531 C 147.695312 640.363281 147.226562 639.0625 146.824219 637.734375 C 146.421875 636.40625 146.082031 635.0625 145.8125 633.703125 C 145.539062 632.34375 145.335938 630.972656 145.199219 629.589844 C 145.058594 628.210938 144.992188 626.828125 144.988281 625.441406 L 144.988281 249.808594 L 664.902344 249.808594 L 664.902344 625.441406 C 664.898438 626.820312 664.832031 628.199219 664.695312 629.570312 C 664.558594 630.945312 664.355469 632.308594 664.085938 633.660156 C 663.816406 635.015625 663.484375 636.351562 663.085938 637.671875 C 662.683594 638.996094 662.222656 640.292969 661.695312 641.570312 C 661.171875 642.84375 660.582031 644.09375 659.9375 645.3125 C 659.289062 646.527344 658.582031 647.714844 657.820312 648.863281 C 657.058594 650.011719 656.238281 651.121094 655.367188 652.191406 C 654.496094 653.261719 653.578125 654.285156 652.605469 655.265625 C 651.632812 656.246094 650.617188 657.175781 649.554688 658.058594 C 648.492188 658.9375 647.390625 659.765625 646.25 660.539062 C 645.105469 661.308594 643.929688 662.027344 642.71875 662.683594 C 641.503906 663.339844 640.265625 663.9375 638.992188 664.476562 C 637.722656 665.011719 636.429688 665.484375 635.113281 665.894531 C 633.796875 666.304688 632.460938 666.652344 631.113281 666.929688 C 629.761719 667.210938 628.402344 667.425781 627.03125 667.570312 C 625.660156 667.71875 624.285156 667.796875 622.90625 667.8125 Z M 197.707031 212.582031 C 198.441406 212.582031 199.171875 212.546875 199.902344 212.472656 C 200.632812 212.402344 201.355469 212.292969 202.074219 212.148438 C 202.792969 212.007812 203.503906 211.828125 204.207031 211.613281 C 204.910156 211.398438 205.597656 211.152344 206.277344 210.871094 C 206.953125 210.589844 207.613281 210.273438 208.261719 209.925781 C 208.90625 209.582031 209.535156 209.203125 210.144531 208.792969 C 210.753906 208.386719 211.339844 207.945312 211.90625 207.480469 C 212.472656 207.011719 213.015625 206.519531 213.535156 206 C 214.050781 205.480469 214.542969 204.933594 215.003906 204.367188 C 215.46875 203.796875 215.90625 203.207031 216.308594 202.59375 C 216.714844 201.984375 217.089844 201.355469 217.433594 200.707031 C 217.777344 200.058594 218.089844 199.394531 218.367188 198.714844 C 218.648438 198.035156 218.890625 197.34375 219.101562 196.640625 C 219.3125 195.9375 219.488281 195.226562 219.628906 194.503906 C 219.769531 193.785156 219.875 193.058594 219.941406 192.328125 C 220.011719 191.597656 220.046875 190.863281 220.042969 190.128906 C 220.039062 189.394531 220 188.664062 219.925781 187.933594 C 219.847656 187.203125 219.738281 186.476562 219.59375 185.757812 C 219.445312 185.039062 219.265625 184.328125 219.046875 183.625 C 218.832031 182.925781 218.582031 182.234375 218.296875 181.558594 C 218.011719 180.882812 217.695312 180.21875 217.347656 179.574219 C 216.996094 178.929688 216.617188 178.300781 216.207031 177.695312 C 215.792969 177.085938 215.355469 176.5 214.886719 175.933594 C 214.417969 175.371094 213.921875 174.828125 213.398438 174.3125 C 212.878906 173.796875 212.332031 173.308594 211.761719 172.847656 C 211.191406 172.386719 210.601562 171.953125 209.988281 171.546875 C 209.375 171.144531 208.742188 170.773438 208.09375 170.429688 C 207.445312 170.089844 206.78125 169.78125 206.101562 169.503906 C 205.421875 169.226562 204.730469 168.984375 204.027344 168.777344 C 203.324219 168.570312 202.609375 168.398438 201.890625 168.261719 C 201.167969 168.121094 200.445312 168.019531 199.714844 167.953125 C 198.984375 167.890625 198.25 167.859375 197.515625 167.863281 C 196.785156 167.871094 196.050781 167.914062 195.324219 167.992188 C 194.59375 168.070312 193.871094 168.183594 193.152344 168.332031 C 192.433594 168.484375 191.726562 168.667969 191.023438 168.886719 C 190.324219 169.105469 189.636719 169.359375 188.960938 169.648438 C 188.289062 169.933594 187.628906 170.253906 186.984375 170.605469 C 186.339844 170.960938 185.714844 171.34375 185.109375 171.757812 C 184.503906 172.171875 183.921875 172.613281 183.359375 173.085938 C 182.796875 173.554688 182.257812 174.054688 181.746094 174.578125 C 181.230469 175.101562 180.746094 175.652344 180.285156 176.222656 C 179.828125 176.796875 179.398438 177.390625 178.996094 178.003906 C 178.59375 178.621094 178.226562 179.253906 177.886719 179.90625 C 177.546875 180.554688 177.242188 181.222656 176.96875 181.902344 C 176.695312 182.585938 176.457031 183.277344 176.253906 183.984375 C 176.050781 184.6875 175.878906 185.402344 175.746094 186.125 C 175.609375 186.847656 175.511719 187.574219 175.449219 188.304688 C 175.386719 189.035156 175.359375 189.769531 175.367188 190.503906 C 175.378906 191.230469 175.421875 191.953125 175.5 192.675781 C 175.582031 193.398438 175.695312 194.113281 175.84375 194.824219 C 175.992188 195.535156 176.175781 196.238281 176.394531 196.929688 C 176.613281 197.625 176.863281 198.304688 177.148438 198.972656 C 177.433594 199.640625 177.746094 200.296875 178.09375 200.933594 C 178.441406 201.570312 178.820312 202.191406 179.230469 202.789062 C 179.636719 203.390625 180.074219 203.972656 180.539062 204.53125 C 181 205.085938 181.492188 205.621094 182.007812 206.132812 C 182.523438 206.644531 183.066406 207.128906 183.628906 207.585938 C 184.191406 208.042969 184.777344 208.472656 185.382812 208.871094 C 185.988281 209.273438 186.609375 209.644531 187.253906 209.984375 C 187.894531 210.324219 188.550781 210.632812 189.222656 210.90625 C 189.894531 211.183594 190.578125 211.425781 191.269531 211.636719 C 191.964844 211.84375 192.671875 212.019531 193.382812 212.160156 C 194.09375 212.300781 194.8125 212.40625 195.535156 212.476562 C 196.257812 212.546875 196.980469 212.582031 197.707031 212.582031 Z M 197.707031 179.601562 C 198.441406 179.601562 199.171875 179.675781 199.894531 179.820312 C 200.617188 179.964844 201.320312 180.179688 202 180.464844 C 202.679688 180.746094 203.328125 181.097656 203.9375 181.507812 C 204.550781 181.921875 205.117188 182.386719 205.636719 182.914062 C 206.152344 183.4375 206.617188 184.007812 207.023438 184.621094 C 207.429688 185.238281 207.769531 185.886719 208.046875 186.570312 C 208.328125 187.253906 208.535156 187.957031 208.671875 188.683594 C 208.8125 189.410156 208.878906 190.140625 208.871094 190.878906 C 208.863281 191.617188 208.785156 192.347656 208.636719 193.066406 C 208.484375 193.789062 208.265625 194.492188 207.976562 195.167969 C 207.6875 195.847656 207.332031 196.492188 206.917969 197.101562 C 206.5 197.710938 206.027344 198.273438 205.5 198.785156 C 204.972656 199.300781 204.398438 199.761719 203.78125 200.160156 C 203.160156 200.5625 202.507812 200.898438 201.824219 201.171875 C 201.140625 201.445312 200.433594 201.648438 199.707031 201.78125 C 198.984375 201.914062 198.253906 201.972656 197.515625 201.960938 C 196.777344 201.949219 196.050781 201.863281 195.328125 201.707031 C 194.609375 201.550781 193.910156 201.324219 193.234375 201.027344 C 192.558594 200.734375 191.917969 200.375 191.3125 199.953125 C 190.710938 199.53125 190.152344 199.054688 189.640625 198.519531 C 189.132812 197.988281 188.679688 197.410156 188.28125 196.789062 C 187.886719 196.164062 187.554688 195.511719 187.289062 194.824219 C 187.023438 194.132812 186.824219 193.425781 186.699219 192.699219 C 186.574219 191.972656 186.519531 191.242188 186.535156 190.503906 C 186.554688 189.78125 186.640625 189.066406 186.796875 188.363281 C 186.953125 187.65625 187.175781 186.972656 187.464844 186.308594 C 187.753906 185.648438 188.105469 185.019531 188.515625 184.425781 C 188.925781 183.832031 189.390625 183.28125 189.90625 182.777344 C 190.421875 182.273438 190.984375 181.824219 191.585938 181.429688 C 192.191406 181.03125 192.828125 180.699219 193.496094 180.425781 C 194.164062 180.152344 194.851562 179.949219 195.5625 179.808594 C 196.269531 179.671875 196.984375 179.601562 197.707031 179.601562 Z M 253.214844 212.582031 C 253.949219 212.582031 254.679688 212.546875 255.410156 212.472656 C 256.140625 212.402344 256.867188 212.292969 257.585938 212.148438 C 258.304688 212.007812 259.015625 211.828125 259.714844 211.613281 C 260.417969 211.398438 261.109375 211.152344 261.785156 210.871094 C 262.460938 210.589844 263.125 210.273438 263.769531 209.925781 C 264.417969 209.582031 265.046875 209.203125 265.652344 208.792969 C 266.261719 208.386719 266.851562 207.945312 267.417969 207.480469 C 267.984375 207.011719 268.523438 206.519531 269.042969 206 C 269.558594 205.480469 270.050781 204.933594 270.515625 204.367188 C 270.980469 203.796875 271.414062 203.207031 271.820312 202.59375 C 272.226562 201.984375 272.601562 201.355469 272.945312 200.707031 C 273.289062 200.058594 273.601562 199.394531 273.878906 198.714844 C 274.15625 198.035156 274.402344 197.34375 274.613281 196.640625 C 274.824219 195.9375 274.996094 195.226562 275.136719 194.503906 C 275.277344 193.785156 275.382812 193.058594 275.453125 192.328125 C 275.519531 191.597656 275.554688 190.863281 275.550781 190.128906 C 275.546875 189.394531 275.507812 188.664062 275.433594 187.933594 C 275.359375 187.203125 275.246094 186.476562 275.101562 185.757812 C 274.953125 185.039062 274.773438 184.328125 274.558594 183.625 C 274.339844 182.925781 274.089844 182.234375 273.804688 181.558594 C 273.523438 180.882812 273.203125 180.21875 272.855469 179.574219 C 272.507812 178.929688 272.125 178.300781 271.714844 177.695312 C 271.304688 177.085938 270.863281 176.5 270.394531 175.933594 C 269.925781 175.371094 269.429688 174.828125 268.910156 174.3125 C 268.386719 173.796875 267.839844 173.308594 267.269531 172.847656 C 266.703125 172.386719 266.109375 171.953125 265.496094 171.546875 C 264.882812 171.144531 264.253906 170.773438 263.605469 170.429688 C 262.953125 170.089844 262.289062 169.78125 261.609375 169.503906 C 260.929688 169.226562 260.238281 168.984375 259.535156 168.777344 C 258.832031 168.570312 258.121094 168.398438 257.398438 168.261719 C 256.679688 168.121094 255.953125 168.019531 255.222656 167.953125 C 254.492188 167.890625 253.761719 167.859375 253.027344 167.863281 C 252.292969 167.871094 251.5625 167.914062 250.832031 167.992188 C 250.101562 168.070312 249.378906 168.183594 248.660156 168.332031 C 247.941406 168.484375 247.234375 168.667969 246.535156 168.886719 C 245.835938 169.105469 245.148438 169.359375 244.472656 169.648438 C 243.796875 169.933594 243.136719 170.253906 242.492188 170.605469 C 241.851562 170.960938 241.226562 171.34375 240.621094 171.757812 C 240.015625 172.171875 239.429688 172.613281 238.867188 173.085938 C 238.304688 173.554688 237.769531 174.054688 237.253906 174.578125 C 236.742188 175.101562 236.253906 175.652344 235.796875 176.222656 C 235.335938 176.796875 234.90625 177.390625 234.503906 178.003906 C 234.105469 178.621094 233.734375 179.253906 233.398438 179.90625 C 233.058594 180.554688 232.753906 181.222656 232.480469 181.902344 C 232.207031 182.585938 231.96875 183.277344 231.761719 183.984375 C 231.558594 184.6875 231.390625 185.402344 231.253906 186.125 C 231.121094 186.847656 231.019531 187.574219 230.957031 188.304688 C 230.894531 189.035156 230.867188 189.769531 230.878906 190.503906 C 230.886719 191.230469 230.929688 191.953125 231.011719 192.675781 C 231.089844 193.398438 231.203125 194.113281 231.355469 194.824219 C 231.503906 195.535156 231.6875 196.238281 231.90625 196.929688 C 232.121094 197.625 232.375 198.304688 232.65625 198.972656 C 232.941406 199.640625 233.257812 200.296875 233.605469 200.933594 C 233.953125 201.570312 234.332031 202.191406 234.738281 202.789062 C 235.144531 203.390625 235.582031 203.972656 236.046875 204.53125 C 236.511719 205.085938 237 205.621094 237.519531 206.132812 C 238.035156 206.644531 238.574219 207.128906 239.136719 207.585938 C 239.703125 208.042969 240.285156 208.472656 240.890625 208.871094 C 241.496094 209.273438 242.121094 209.644531 242.761719 209.984375 C 243.402344 210.324219 244.058594 210.632812 244.730469 210.90625 C 245.402344 211.183594 246.085938 211.425781 246.78125 211.636719 C 247.476562 211.84375 248.179688 212.019531 248.890625 212.160156 C 249.605469 212.300781 250.320312 212.40625 251.042969 212.476562 C 251.765625 212.546875 252.488281 212.582031 253.214844 212.582031 Z M 253.214844 179.601562 C 253.953125 179.601562 254.683594 179.675781 255.40625 179.820312 C 256.128906 179.964844 256.828125 180.179688 257.511719 180.464844 C 258.191406 180.746094 258.835938 181.097656 259.449219 181.507812 C 260.058594 181.921875 260.625 182.386719 261.144531 182.914062 C 261.664062 183.4375 262.125 184.007812 262.53125 184.621094 C 262.9375 185.238281 263.28125 185.886719 263.558594 186.570312 C 263.835938 187.253906 264.042969 187.957031 264.183594 188.683594 C 264.320312 189.410156 264.386719 190.140625 264.378906 190.878906 C 264.375 191.617188 264.296875 192.347656 264.144531 193.066406 C 263.992188 193.789062 263.773438 194.492188 263.484375 195.167969 C 263.195312 195.847656 262.84375 196.492188 262.425781 197.101562 C 262.007812 197.710938 261.535156 198.273438 261.007812 198.785156 C 260.480469 199.300781 259.90625 199.761719 259.289062 200.160156 C 258.671875 200.5625 258.019531 200.898438 257.332031 201.171875 C 256.648438 201.445312 255.945312 201.648438 255.21875 201.78125 C 254.492188 201.914062 253.761719 201.972656 253.023438 201.960938 C 252.289062 201.949219 251.558594 201.863281 250.839844 201.707031 C 250.117188 201.550781 249.417969 201.324219 248.746094 201.027344 C 248.070312 200.734375 247.429688 200.375 246.824219 199.953125 C 246.21875 199.53125 245.660156 199.054688 245.152344 198.519531 C 244.640625 197.988281 244.1875 197.410156 243.792969 196.789062 C 243.394531 196.164062 243.0625 195.511719 242.796875 194.824219 C 242.53125 194.132812 242.335938 193.425781 242.207031 192.699219 C 242.082031 191.972656 242.027344 191.242188 242.046875 190.503906 C 242.066406 189.78125 242.152344 189.066406 242.308594 188.363281 C 242.464844 187.65625 242.6875 186.972656 242.976562 186.308594 C 243.265625 185.648438 243.613281 185.019531 244.023438 184.425781 C 244.433594 183.832031 244.898438 183.28125 245.414062 182.777344 C 245.933594 182.273438 246.492188 181.824219 247.097656 181.429688 C 247.699219 181.03125 248.335938 180.699219 249.003906 180.425781 C 249.671875 180.152344 250.363281 179.949219 251.070312 179.808594 C 251.777344 179.671875 252.492188 179.601562 253.214844 179.601562 Z M 312.1875 212.582031 C 312.921875 212.582031 313.652344 212.546875 314.382812 212.472656 C 315.113281 212.402344 315.835938 212.292969 316.554688 212.148438 C 317.277344 212.007812 317.984375 211.828125 318.6875 211.613281 C 319.390625 211.398438 320.078125 211.152344 320.757812 210.871094 C 321.433594 210.589844 322.097656 210.273438 322.742188 209.925781 C 323.390625 209.582031 324.015625 209.203125 324.625 208.792969 C 325.234375 208.386719 325.824219 207.945312 326.390625 207.480469 C 326.957031 207.011719 327.496094 206.519531 328.015625 206 C 328.53125 205.480469 329.023438 204.933594 329.488281 204.367188 C 329.949219 203.796875 330.386719 203.207031 330.792969 202.59375 C 331.199219 201.984375 331.574219 201.355469 331.917969 200.707031 C 332.261719 200.058594 332.570312 199.394531 332.851562 198.714844 C 333.128906 198.035156 333.375 197.34375 333.582031 196.640625 C 333.792969 195.9375 333.96875 195.226562 334.109375 194.503906 C 334.25 193.785156 334.355469 193.058594 334.425781 192.328125 C 334.492188 191.597656 334.527344 190.863281 334.523438 190.128906 C 334.519531 189.394531 334.480469 188.664062 334.40625 187.933594 C 334.332031 187.203125 334.21875 186.476562 334.074219 185.757812 C 333.925781 185.039062 333.746094 184.328125 333.527344 183.625 C 333.3125 182.925781 333.0625 182.234375 332.777344 181.558594 C 332.492188 180.882812 332.175781 180.21875 331.828125 179.574219 C 331.476562 178.929688 331.097656 178.300781 330.6875 177.695312 C 330.277344 177.085938 329.835938 176.5 329.367188 175.933594 C 328.898438 175.371094 328.402344 174.828125 327.882812 174.3125 C 327.359375 173.796875 326.8125 173.308594 326.242188 172.847656 C 325.671875 172.386719 325.082031 171.953125 324.46875 171.546875 C 323.855469 171.144531 323.226562 170.773438 322.574219 170.429688 C 321.925781 170.089844 321.261719 169.78125 320.582031 169.503906 C 319.902344 169.226562 319.210938 168.984375 318.507812 168.777344 C 317.804688 168.570312 317.09375 168.398438 316.371094 168.261719 C 315.652344 168.121094 314.925781 168.019531 314.195312 167.953125 C 313.464844 167.890625 312.730469 167.859375 312 167.863281 C 311.265625 167.871094 310.535156 167.914062 309.804688 167.992188 C 309.074219 168.070312 308.351562 168.183594 307.632812 168.332031 C 306.914062 168.484375 306.207031 168.667969 305.507812 168.886719 C 304.804688 169.105469 304.117188 169.359375 303.445312 169.648438 C 302.769531 169.933594 302.109375 170.253906 301.464844 170.605469 C 300.824219 170.960938 300.199219 171.34375 299.589844 171.757812 C 298.984375 172.171875 298.402344 172.613281 297.839844 173.085938 C 297.277344 173.554688 296.738281 174.054688 296.226562 174.578125 C 295.714844 175.101562 295.226562 175.652344 294.769531 176.222656 C 294.308594 176.796875 293.878906 177.390625 293.476562 178.003906 C 293.078125 178.621094 292.707031 179.253906 292.367188 179.90625 C 292.03125 180.554688 291.722656 181.222656 291.453125 181.902344 C 291.179688 182.585938 290.941406 183.277344 290.734375 183.984375 C 290.53125 184.6875 290.359375 185.402344 290.226562 186.125 C 290.089844 186.847656 289.992188 187.574219 289.929688 188.304688 C 289.867188 189.035156 289.839844 189.769531 289.847656 190.503906 C 289.859375 191.230469 289.902344 191.953125 289.980469 192.675781 C 290.0625 193.398438 290.175781 194.113281 290.324219 194.824219 C 290.476562 195.535156 290.660156 196.238281 290.875 196.929688 C 291.09375 197.625 291.34375 198.304688 291.628906 198.972656 C 291.914062 199.640625 292.230469 200.296875 292.578125 200.933594 C 292.925781 201.570312 293.300781 202.191406 293.710938 202.789062 C 294.117188 203.390625 294.554688 203.972656 295.019531 204.53125 C 295.484375 205.085938 295.972656 205.621094 296.488281 206.132812 C 297.007812 206.644531 297.546875 207.128906 298.109375 207.585938 C 298.671875 208.042969 299.257812 208.472656 299.863281 208.871094 C 300.46875 209.273438 301.09375 209.644531 301.734375 209.984375 C 302.375 210.324219 303.03125 210.632812 303.703125 210.90625 C 304.375 211.183594 305.058594 211.425781 305.753906 211.636719 C 306.449219 211.84375 307.152344 212.019531 307.863281 212.160156 C 308.574219 212.300781 309.292969 212.40625 310.015625 212.476562 C 310.738281 212.546875 311.460938 212.582031 312.1875 212.582031 Z M 312.1875 179.601562 C 312.925781 179.601562 313.65625 179.675781 314.378906 179.820312 C 315.101562 179.964844 315.800781 180.179688 316.480469 180.464844 C 317.164062 180.746094 317.808594 181.097656 318.421875 181.507812 C 319.03125 181.921875 319.597656 182.386719 320.117188 182.914062 C 320.636719 183.4375 321.097656 184.007812 321.503906 184.621094 C 321.910156 185.238281 322.253906 185.886719 322.53125 186.570312 C 322.808594 187.253906 323.015625 187.957031 323.152344 188.683594 C 323.292969 189.410156 323.359375 190.140625 323.351562 190.878906 C 323.347656 191.617188 323.265625 192.347656 323.117188 193.066406 C 322.964844 193.789062 322.746094 194.492188 322.457031 195.167969 C 322.167969 195.847656 321.8125 196.492188 321.398438 197.101562 C 320.980469 197.710938 320.507812 198.273438 319.980469 198.785156 C 319.453125 199.300781 318.878906 199.761719 318.261719 200.160156 C 317.644531 200.5625 316.992188 200.898438 316.304688 201.171875 C 315.621094 201.445312 314.914062 201.648438 314.191406 201.78125 C 313.464844 201.914062 312.734375 201.972656 311.996094 201.960938 C 311.257812 201.949219 310.53125 201.863281 309.808594 201.707031 C 309.089844 201.550781 308.390625 201.324219 307.714844 201.027344 C 307.039062 200.734375 306.398438 200.375 305.796875 199.953125 C 305.191406 199.53125 304.632812 199.054688 304.121094 198.519531 C 303.613281 197.988281 303.160156 197.410156 302.761719 196.789062 C 302.367188 196.164062 302.035156 195.511719 301.769531 194.824219 C 301.503906 194.132812 301.308594 193.425781 301.179688 192.699219 C 301.054688 191.972656 301 191.242188 301.019531 190.503906 C 301.035156 189.78125 301.125 189.066406 301.28125 188.363281 C 301.4375 187.65625 301.660156 186.972656 301.949219 186.308594 C 302.234375 185.648438 302.585938 185.019531 302.996094 184.425781 C 303.40625 183.832031 303.871094 183.28125 304.386719 182.777344 C 304.902344 182.273438 305.464844 181.824219 306.066406 181.429688 C 306.671875 181.03125 307.308594 180.699219 307.976562 180.425781 C 308.644531 180.152344 309.332031 179.949219 310.042969 179.808594 C 310.75 179.671875 311.464844 179.601562 312.1875 179.601562 Z M 410.195312 190.503906 C 410.195312 190.136719 410.230469 189.773438 410.300781 189.414062 C 410.375 189.050781 410.480469 188.703125 410.621094 188.363281 C 410.757812 188.023438 410.933594 187.703125 411.136719 187.398438 C 411.339844 187.09375 411.570312 186.808594 411.828125 186.550781 C 412.089844 186.289062 412.371094 186.058594 412.675781 185.855469 C 412.980469 185.652344 413.304688 185.480469 413.640625 185.339844 C 413.980469 185.199219 414.328125 185.09375 414.6875 185.019531 C 415.050781 184.949219 415.410156 184.914062 415.777344 184.914062 L 624.132812 184.914062 C 624.5 184.914062 624.863281 184.949219 625.222656 185.019531 C 625.582031 185.09375 625.933594 185.199219 626.273438 185.339844 C 626.609375 185.480469 626.933594 185.652344 627.238281 185.855469 C 627.542969 186.058594 627.824219 186.289062 628.082031 186.550781 C 628.34375 186.808594 628.574219 187.09375 628.777344 187.398438 C 628.980469 187.703125 629.152344 188.023438 629.292969 188.363281 C 629.433594 188.703125 629.539062 189.050781 629.613281 189.414062 C 629.683594 189.773438 629.71875 190.136719 629.71875 190.503906 C 629.71875 190.871094 629.683594 191.234375 629.613281 191.59375 C 629.539062 191.953125 629.433594 192.304688 629.292969 192.640625 C 629.152344 192.980469 628.980469 193.304688 628.777344 193.609375 C 628.574219 193.914062 628.34375 194.195312 628.082031 194.457031 C 627.824219 194.714844 627.542969 194.945312 627.238281 195.152344 C 626.933594 195.355469 626.609375 195.527344 626.273438 195.667969 C 625.933594 195.808594 625.582031 195.914062 625.222656 195.984375 C 624.863281 196.058594 624.5 196.09375 624.132812 196.09375 L 415.777344 196.09375 C 415.410156 196.09375 415.050781 196.058594 414.6875 195.984375 C 414.328125 195.914062 413.980469 195.808594 413.640625 195.667969 C 413.304688 195.527344 412.980469 195.355469 412.675781 195.152344 C 412.371094 194.945312 412.089844 194.714844 411.828125 194.457031 C 411.570312 194.195312 411.339844 193.914062 411.136719 193.609375 C 410.933594 193.304688 410.757812 192.980469 410.621094 192.640625 C 410.480469 192.304688 410.371094 191.953125 410.300781 191.59375 C 410.230469 191.234375 410.195312 190.871094 410.195312 190.503906 Z M 342.175781 469.09375 L 198.488281 469.09375 C 198.121094 469.09375 197.757812 469.132812 197.398438 469.203125 C 197.039062 469.273438 196.691406 469.378906 196.351562 469.519531 C 196.011719 469.660156 195.691406 469.832031 195.386719 470.039062 C 195.082031 470.242188 194.796875 470.472656 194.539062 470.734375 C 194.28125 470.992188 194.046875 471.273438 193.84375 471.578125 C 193.640625 471.886719 193.46875 472.207031 193.328125 472.546875 C 193.1875 472.886719 193.082031 473.234375 193.011719 473.59375 C 192.9375 473.953125 192.902344 474.316406 192.902344 474.683594 L 192.902344 618.507812 C 192.902344 618.875 192.9375 619.238281 193.011719 619.597656 C 193.082031 619.960938 193.1875 620.308594 193.328125 620.648438 C 193.46875 620.988281 193.640625 621.308594 193.84375 621.613281 C 194.046875 621.917969 194.28125 622.203125 194.539062 622.460938 C 194.796875 622.722656 195.082031 622.953125 195.386719 623.15625 C 195.691406 623.359375 196.011719 623.53125 196.351562 623.671875 C 196.691406 623.8125 197.039062 623.917969 197.398438 623.992188 C 197.757812 624.0625 198.121094 624.097656 198.488281 624.097656 L 342.175781 624.097656 C 342.542969 624.097656 342.90625 624.0625 343.265625 623.992188 C 343.625 623.917969 343.972656 623.8125 344.3125 623.671875 C 344.652344 623.53125 344.972656 623.359375 345.277344 623.15625 C 345.582031 622.953125 345.863281 622.722656 346.125 622.460938 C 346.382812 622.203125 346.617188 621.917969 346.820312 621.613281 C 347.023438 621.308594 347.195312 620.988281 347.335938 620.648438 C 347.476562 620.308594 347.582031 619.960938 347.652344 619.597656 C 347.722656 619.238281 347.761719 618.875 347.761719 618.507812 L 347.761719 474.683594 C 347.761719 474.316406 347.722656 473.953125 347.652344 473.59375 C 347.582031 473.234375 347.476562 472.886719 347.335938 472.546875 C 347.195312 472.207031 347.023438 471.882812 346.820312 471.578125 C 346.617188 471.273438 346.382812 470.992188 346.125 470.734375 C 345.863281 470.472656 345.582031 470.242188 345.277344 470.039062 C 344.972656 469.832031 344.652344 469.660156 344.3125 469.519531 C 343.972656 469.378906 343.625 469.273438 343.265625 469.203125 C 342.90625 469.132812 342.542969 469.09375 342.175781 469.09375 Z M 336.589844 612.917969 L 204.070312 612.917969 L 204.070312 480.273438 L 336.589844 480.273438 Z M 607.828125 481.28125 C 607.828125 481.648438 607.792969 482.011719 607.71875 482.371094 C 607.648438 482.730469 607.542969 483.082031 607.402344 483.421875 C 607.261719 483.757812 607.089844 484.082031 606.886719 484.386719 C 606.683594 484.691406 606.453125 484.972656 606.191406 485.234375 C 605.933594 485.492188 605.652344 485.726562 605.347656 485.929688 C 605.042969 486.132812 604.71875 486.304688 604.378906 486.445312 C 604.042969 486.585938 603.691406 486.691406 603.332031 486.761719 C 602.972656 486.835938 602.609375 486.871094 602.242188 486.871094 L 389.027344 486.871094 C 388.664062 486.871094 388.300781 486.835938 387.941406 486.761719 C 387.578125 486.691406 387.230469 486.585938 386.890625 486.445312 C 386.554688 486.304688 386.230469 486.132812 385.925781 485.929688 C 385.621094 485.726562 385.339844 485.492188 385.082031 485.234375 C 384.820312 484.972656 384.589844 484.691406 384.386719 484.386719 C 384.183594 484.082031 384.011719 483.757812 383.871094 483.421875 C 383.730469 483.082031 383.625 482.730469 383.550781 482.371094 C 383.480469 482.011719 383.445312 481.648438 383.445312 481.28125 C 383.445312 480.914062 383.480469 480.550781 383.550781 480.191406 C 383.625 479.832031 383.730469 479.480469 383.871094 479.140625 C 384.011719 478.804688 384.183594 478.480469 384.386719 478.175781 C 384.589844 477.871094 384.820312 477.589844 385.082031 477.328125 C 385.339844 477.070312 385.621094 476.835938 385.925781 476.632812 C 386.230469 476.429688 386.554688 476.257812 386.890625 476.117188 C 387.230469 475.976562 387.578125 475.871094 387.941406 475.796875 C 388.300781 475.726562 388.664062 475.691406 389.027344 475.691406 L 602.242188 475.691406 C 602.609375 475.691406 602.972656 475.726562 603.332031 475.796875 C 603.691406 475.871094 604.042969 475.976562 604.378906 476.117188 C 604.71875 476.257812 605.042969 476.429688 605.347656 476.632812 C 605.652344 476.835938 605.933594 477.070312 606.191406 477.328125 C 606.453125 477.589844 606.683594 477.871094 606.886719 478.175781 C 607.089844 478.480469 607.261719 478.804688 607.402344 479.140625 C 607.542969 479.480469 607.648438 479.832031 607.71875 480.191406 C 607.792969 480.550781 607.828125 480.914062 607.828125 481.28125 Z M 607.828125 524.824219 C 607.828125 525.191406 607.792969 525.554688 607.71875 525.914062 C 607.648438 526.277344 607.542969 526.625 607.402344 526.964844 C 607.261719 527.304688 607.089844 527.625 606.886719 527.929688 C 606.683594 528.234375 606.453125 528.519531 606.191406 528.777344 C 605.933594 529.039062 605.652344 529.269531 605.347656 529.472656 C 605.042969 529.675781 604.71875 529.847656 604.378906 529.988281 C 604.042969 530.128906 603.691406 530.234375 603.332031 530.308594 C 602.972656 530.378906 602.609375 530.414062 602.242188 530.414062 L 489.71875 530.414062 C 489.351562 530.414062 488.988281 530.378906 488.628906 530.308594 C 488.269531 530.234375 487.917969 530.128906 487.578125 529.988281 C 487.242188 529.847656 486.917969 529.675781 486.613281 529.472656 C 486.308594 529.269531 486.027344 529.039062 485.769531 528.777344 C 485.507812 528.519531 485.277344 528.234375 485.074219 527.929688 C 484.871094 527.625 484.699219 527.304688 484.558594 526.964844 C 484.417969 526.625 484.3125 526.277344 484.238281 525.914062 C 484.167969 525.554688 484.132812 525.191406 484.132812 524.824219 C 484.132812 524.457031 484.167969 524.09375 484.238281 523.734375 C 484.3125 523.375 484.417969 523.023438 484.558594 522.6875 C 484.699219 522.347656 484.871094 522.023438 485.074219 521.71875 C 485.277344 521.414062 485.507812 521.132812 485.769531 520.871094 C 486.027344 520.613281 486.308594 520.382812 486.613281 520.175781 C 486.917969 519.972656 487.242188 519.800781 487.578125 519.660156 C 487.917969 519.519531 488.269531 519.414062 488.628906 519.34375 C 488.988281 519.269531 489.351562 519.234375 489.71875 519.234375 L 602.242188 519.234375 C 602.609375 519.234375 602.972656 519.269531 603.332031 519.34375 C 603.691406 519.414062 604.042969 519.519531 604.378906 519.660156 C 604.71875 519.800781 605.042969 519.972656 605.347656 520.175781 C 605.652344 520.382812 605.933594 520.613281 606.191406 520.871094 C 606.453125 521.132812 606.683594 521.414062 606.886719 521.71875 C 607.089844 522.023438 607.261719 522.347656 607.402344 522.6875 C 607.542969 523.023438 607.648438 523.375 607.71875 523.734375 C 607.792969 524.09375 607.828125 524.457031 607.828125 524.824219 Z M 383.445312 524.824219 C 383.445312 524.457031 383.480469 524.09375 383.550781 523.734375 C 383.625 523.375 383.730469 523.023438 383.871094 522.6875 C 384.011719 522.347656 384.183594 522.023438 384.386719 521.71875 C 384.589844 521.414062 384.820312 521.132812 385.082031 520.871094 C 385.339844 520.613281 385.621094 520.382812 385.925781 520.175781 C 386.230469 519.972656 386.554688 519.800781 386.890625 519.660156 C 387.230469 519.519531 387.582031 519.414062 387.941406 519.34375 C 388.300781 519.269531 388.664062 519.234375 389.027344 519.234375 L 440.070312 519.234375 C 440.4375 519.234375 440.800781 519.269531 441.160156 519.34375 C 441.519531 519.414062 441.871094 519.519531 442.207031 519.660156 C 442.546875 519.800781 442.867188 519.972656 443.171875 520.175781 C 443.476562 520.382812 443.761719 520.613281 444.019531 520.871094 C 444.277344 521.132812 444.511719 521.414062 444.714844 521.71875 C 444.917969 522.023438 445.089844 522.347656 445.230469 522.6875 C 445.371094 523.023438 445.476562 523.375 445.546875 523.734375 C 445.621094 524.09375 445.65625 524.457031 445.65625 524.824219 C 445.65625 525.191406 445.621094 525.554688 445.546875 525.914062 C 445.476562 526.277344 445.371094 526.625 445.230469 526.964844 C 445.089844 527.304688 444.917969 527.625 444.714844 527.929688 C 444.511719 528.234375 444.277344 528.519531 444.019531 528.777344 C 443.761719 529.039062 443.476562 529.269531 443.171875 529.472656 C 442.867188 529.675781 442.546875 529.847656 442.207031 529.988281 C 441.871094 530.128906 441.519531 530.234375 441.160156 530.308594 C 440.800781 530.378906 440.4375 530.414062 440.070312 530.414062 L 389.027344 530.414062 C 388.664062 530.414062 388.300781 530.378906 387.941406 530.308594 C 387.578125 530.234375 387.230469 530.128906 386.890625 529.988281 C 386.554688 529.847656 386.230469 529.675781 385.925781 529.472656 C 385.621094 529.269531 385.339844 529.039062 385.082031 528.777344 C 384.820312 528.519531 384.589844 528.234375 384.386719 527.929688 C 384.183594 527.625 384.011719 527.304688 383.871094 526.964844 C 383.730469 526.625 383.625 526.277344 383.550781 525.914062 C 383.480469 525.554688 383.445312 525.191406 383.445312 524.824219 Z M 607.828125 568.371094 C 607.828125 568.734375 607.792969 569.101562 607.71875 569.460938 C 607.648438 569.820312 607.542969 570.167969 607.402344 570.507812 C 607.261719 570.847656 607.089844 571.167969 606.886719 571.472656 C 606.683594 571.78125 606.453125 572.0625 606.191406 572.320312 C 605.933594 572.582031 605.652344 572.8125 605.347656 573.015625 C 605.042969 573.21875 604.71875 573.394531 604.378906 573.535156 C 604.042969 573.671875 603.691406 573.78125 603.332031 573.851562 C 602.972656 573.921875 602.609375 573.957031 602.242188 573.957031 L 389.027344 573.957031 C 388.664062 573.957031 388.300781 573.921875 387.941406 573.851562 C 387.578125 573.78125 387.230469 573.671875 386.890625 573.535156 C 386.554688 573.394531 386.230469 573.222656 385.925781 573.015625 C 385.621094 572.8125 385.339844 572.582031 385.082031 572.320312 C 384.820312 572.0625 384.589844 571.78125 384.386719 571.472656 C 384.183594 571.167969 384.011719 570.847656 383.871094 570.507812 C 383.730469 570.167969 383.625 569.820312 383.550781 569.460938 C 383.480469 569.101562 383.445312 568.734375 383.445312 568.371094 C 383.445312 568.003906 383.480469 567.636719 383.550781 567.277344 C 383.625 566.917969 383.730469 566.570312 383.871094 566.230469 C 384.011719 565.890625 384.183594 565.570312 384.386719 565.261719 C 384.589844 564.957031 384.820312 564.675781 385.082031 564.417969 C 385.339844 564.15625 385.621094 563.925781 385.925781 563.722656 C 386.230469 563.515625 386.554688 563.34375 386.890625 563.203125 C 387.230469 563.0625 387.578125 562.957031 387.941406 562.886719 C 388.300781 562.816406 388.664062 562.78125 389.027344 562.78125 L 602.242188 562.78125 C 602.609375 562.78125 602.972656 562.816406 603.332031 562.886719 C 603.691406 562.957031 604.042969 563.066406 604.378906 563.203125 C 604.71875 563.34375 605.042969 563.515625 605.347656 563.722656 C 605.652344 563.925781 605.933594 564.15625 606.191406 564.417969 C 606.453125 564.675781 606.683594 564.957031 606.886719 565.261719 C 607.089844 565.570312 607.261719 565.890625 607.402344 566.230469 C 607.542969 566.570312 607.648438 566.917969 607.71875 567.277344 C 607.792969 567.636719 607.828125 568.003906 607.828125 568.371094 Z M 607.828125 611.855469 C 607.828125 612.222656 607.792969 612.585938 607.71875 612.949219 C 607.648438 613.308594 607.542969 613.65625 607.402344 613.996094 C 607.261719 614.335938 607.089844 614.65625 606.886719 614.960938 C 606.683594 615.269531 606.453125 615.550781 606.191406 615.808594 C 605.933594 616.070312 605.652344 616.300781 605.347656 616.503906 C 605.042969 616.707031 604.71875 616.882812 604.378906 617.023438 C 604.042969 617.160156 603.691406 617.269531 603.332031 617.339844 C 602.972656 617.410156 602.609375 617.445312 602.242188 617.445312 L 543.664062 617.445312 C 543.296875 617.445312 542.933594 617.410156 542.574219 617.339844 C 542.214844 617.269531 541.863281 617.160156 541.527344 617.023438 C 541.1875 616.882812 540.863281 616.707031 540.558594 616.503906 C 540.253906 616.300781 539.972656 616.070312 539.714844 615.808594 C 539.453125 615.550781 539.222656 615.269531 539.019531 614.960938 C 538.816406 614.65625 538.644531 614.335938 538.503906 613.996094 C 538.363281 613.65625 538.257812 613.308594 538.183594 612.949219 C 538.113281 612.585938 538.078125 612.222656 538.078125 611.855469 C 538.078125 611.492188 538.113281 611.125 538.183594 610.765625 C 538.257812 610.40625 538.363281 610.058594 538.503906 609.71875 C 538.644531 609.378906 538.816406 609.058594 539.019531 608.75 C 539.222656 608.445312 539.453125 608.164062 539.714844 607.90625 C 539.972656 607.644531 540.253906 607.414062 540.558594 607.210938 C 540.863281 607.003906 541.1875 606.832031 541.527344 606.691406 C 541.863281 606.550781 542.214844 606.445312 542.574219 606.375 C 542.933594 606.304688 543.296875 606.269531 543.664062 606.269531 L 602.242188 606.269531 C 602.613281 606.265625 602.976562 606.304688 603.339844 606.375 C 603.703125 606.449219 604.054688 606.554688 604.394531 606.699219 C 604.734375 606.839844 605.058594 607.015625 605.363281 607.222656 C 605.667969 607.425781 605.953125 607.660156 606.210938 607.925781 C 606.472656 608.1875 606.703125 608.472656 606.90625 608.78125 C 607.109375 609.089844 607.28125 609.414062 607.417969 609.757812 C 607.558594 610.097656 607.660156 610.453125 607.730469 610.816406 C 607.800781 611.175781 607.832031 611.542969 607.828125 611.914062 Z M 508.871094 611.914062 C 508.871094 612.28125 508.835938 612.644531 508.765625 613.003906 C 508.691406 613.363281 508.585938 613.714844 508.445312 614.050781 C 508.304688 614.390625 508.132812 614.714844 507.929688 615.019531 C 507.726562 615.324219 507.496094 615.605469 507.234375 615.867188 C 506.976562 616.125 506.695312 616.355469 506.390625 616.5625 C 506.085938 616.765625 505.761719 616.9375 505.425781 617.078125 C 505.085938 617.21875 504.734375 617.324219 504.375 617.394531 C 504.015625 617.46875 503.652344 617.503906 503.285156 617.503906 L 389.027344 617.503906 C 388.664062 617.503906 388.300781 617.46875 387.941406 617.394531 C 387.578125 617.324219 387.230469 617.21875 386.890625 617.078125 C 386.554688 616.9375 386.230469 616.765625 385.925781 616.5625 C 385.621094 616.355469 385.339844 616.125 385.082031 615.867188 C 384.820312 615.605469 384.589844 615.324219 384.386719 615.019531 C 384.183594 614.714844 384.011719 614.390625 383.871094 614.050781 C 383.730469 613.714844 383.625 613.363281 383.550781 613.003906 C 383.480469 612.644531 383.445312 612.28125 383.445312 611.914062 C 383.445312 611.546875 383.480469 611.183594 383.550781 610.824219 C 383.625 610.460938 383.730469 610.113281 383.871094 609.773438 C 384.011719 609.433594 384.183594 609.113281 384.386719 608.808594 C 384.589844 608.503906 384.820312 608.21875 385.082031 607.960938 C 385.339844 607.699219 385.621094 607.46875 385.925781 607.265625 C 386.230469 607.0625 386.554688 606.890625 386.890625 606.75 C 387.230469 606.609375 387.578125 606.503906 387.941406 606.429688 C 388.300781 606.359375 388.664062 606.324219 389.027344 606.324219 L 503.285156 606.324219 C 503.652344 606.324219 504.015625 606.359375 504.375 606.429688 C 504.734375 606.503906 505.085938 606.609375 505.425781 606.75 C 505.761719 606.890625 506.085938 607.0625 506.390625 607.265625 C 506.695312 607.46875 506.976562 607.699219 507.234375 607.960938 C 507.496094 608.21875 507.726562 608.503906 507.929688 608.808594 C 508.132812 609.113281 508.304688 609.433594 508.445312 609.773438 C 508.585938 610.113281 508.691406 610.460938 508.765625 610.824219 C 508.835938 611.183594 508.871094 611.546875 508.871094 611.914062 Z M 602.242188 285.359375 L 189.441406 285.359375 C 189.074219 285.359375 188.710938 285.394531 188.351562 285.46875 C 187.992188 285.539062 187.644531 285.644531 187.304688 285.785156 C 186.964844 285.925781 186.644531 286.097656 186.339844 286.300781 C 186.035156 286.507812 185.75 286.738281 185.492188 286.996094 C 185.234375 287.257812 185 287.539062 184.796875 287.84375 C 184.59375 288.148438 184.421875 288.472656 184.28125 288.8125 C 184.140625 289.148438 184.035156 289.5 183.964844 289.859375 C 183.890625 290.21875 183.855469 290.582031 183.855469 290.949219 L 183.855469 433.542969 C 183.855469 433.910156 183.890625 434.273438 183.964844 434.636719 C 184.035156 434.996094 184.140625 435.34375 184.28125 435.683594 C 184.421875 436.023438 184.59375 436.34375 184.796875 436.648438 C 185 436.957031 185.234375 437.238281 185.492188 437.496094 C 185.75 437.757812 186.035156 437.988281 186.339844 438.191406 C 186.644531 438.394531 186.964844 438.570312 187.304688 438.707031 C 187.644531 438.847656 187.992188 438.957031 188.351562 439.027344 C 188.710938 439.097656 189.074219 439.132812 189.441406 439.132812 L 602.242188 439.132812 C 602.609375 439.132812 602.972656 439.097656 603.332031 439.027344 C 603.691406 438.957031 604.042969 438.847656 604.378906 438.707031 C 604.71875 438.570312 605.042969 438.394531 605.347656 438.191406 C 605.652344 437.988281 605.933594 437.757812 606.191406 437.496094 C 606.453125 437.238281 606.683594 436.957031 606.886719 436.648438 C 607.089844 436.34375 607.261719 436.023438 607.402344 435.683594 C 607.542969 435.34375 607.648438 434.996094 607.71875 434.636719 C 607.792969 434.273438 607.828125 433.910156 607.828125 433.542969 L 607.828125 290.949219 C 607.828125 290.582031 607.792969 290.21875 607.71875 289.859375 C 607.648438 289.5 607.542969 289.148438 607.402344 288.8125 C 607.261719 288.472656 607.089844 288.148438 606.886719 287.84375 C 606.683594 287.539062 606.453125 287.257812 606.191406 286.996094 C 605.933594 286.738281 605.652344 286.507812 605.347656 286.300781 C 605.042969 286.097656 604.71875 285.925781 604.378906 285.785156 C 604.042969 285.644531 603.691406 285.539062 603.332031 285.46875 C 602.972656 285.394531 602.609375 285.359375 602.242188 285.359375 Z M 596.660156 427.953125 L 195.027344 427.953125 L 195.027344 296.539062 L 596.660156 296.539062 Z M 239.589844 386.703125 C 238.890625 386.007812 238.554688 385.171875 238.585938 384.1875 L 238.585938 336.058594 C 238.578125 335.082031 238.910156 334.246094 239.589844 333.542969 C 240.246094 332.816406 241.066406 332.445312 242.046875 332.425781 C 243.046875 332.429688 243.902344 332.785156 244.617188 333.488281 C 245.292969 334.191406 245.628906 335.027344 245.621094 336.003906 L 245.621094 360.820312 L 272.257812 333.710938 C 272.589844 333.308594 272.988281 332.996094 273.457031 332.773438 C 273.925781 332.546875 274.417969 332.433594 274.9375 332.425781 C 275.816406 332.433594 276.578125 332.734375 277.230469 333.320312 C 277.894531 333.917969 278.210938 334.660156 278.179688 335.554688 C 278.242188 336.476562 277.960938 337.277344 277.339844 337.960938 L 259.359375 355.960938 L 280.019531 382.007812 C 280.554688 382.65625 280.832031 383.402344 280.859375 384.242188 C 280.921875 385.210938 280.605469 386.03125 279.910156 386.703125 C 279.726562 386.875 279.53125 387.03125 279.316406 387.164062 C 279.105469 387.296875 278.878906 387.402344 278.644531 387.488281 C 278.410156 387.574219 278.167969 387.632812 277.917969 387.667969 C 277.667969 387.703125 277.417969 387.710938 277.167969 387.691406 C 276.917969 387.671875 276.671875 387.628906 276.433594 387.558594 C 276.191406 387.488281 275.960938 387.394531 275.738281 387.273438 C 275.519531 387.15625 275.3125 387.015625 275.121094 386.851562 C 274.929688 386.691406 274.757812 386.511719 274.605469 386.3125 L 254.332031 360.65625 L 245.453125 369.597656 L 245.453125 384.1875 C 245.480469 385.171875 245.144531 386.007812 244.449219 386.703125 C 243.730469 387.390625 242.871094 387.726562 241.878906 387.707031 C 240.980469 387.679688 240.21875 387.34375 239.589844 386.703125 Z M 307.105469 388.324219 C 309.699219 388.398438 312.25 388.101562 314.757812 387.429688 C 316.855469 386.824219 318.847656 385.964844 320.730469 384.859375 C 321.3125 384.613281 321.78125 384.234375 322.144531 383.71875 C 322.507812 383.207031 322.707031 382.636719 322.742188 382.007812 C 322.78125 381.140625 322.484375 380.414062 321.847656 379.828125 C 321.230469 379.261719 320.507812 378.964844 319.671875 378.933594 C 319.160156 378.921875 318.675781 379.035156 318.21875 379.269531 C 316.707031 380.054688 315.125 380.652344 313.472656 381.058594 C 311.636719 381.5 309.773438 381.703125 307.886719 381.671875 C 306.164062 381.773438 304.480469 381.566406 302.832031 381.046875 C 301.1875 380.523438 299.6875 379.726562 298.335938 378.652344 C 297.148438 377.546875 296.199219 376.257812 295.496094 374.789062 C 294.792969 373.324219 294.382812 371.78125 294.261719 370.15625 L 320.675781 370.15625 C 320.910156 370.171875 321.148438 370.164062 321.382812 370.128906 C 321.617188 370.097656 321.84375 370.039062 322.066406 369.957031 C 322.289062 369.875 322.5 369.769531 322.699219 369.640625 C 322.902344 369.515625 323.085938 369.367188 323.253906 369.199219 C 323.421875 369.035156 323.574219 368.851562 323.703125 368.652344 C 323.832031 368.457031 323.941406 368.246094 324.027344 368.023438 C 324.113281 367.804688 324.175781 367.578125 324.210938 367.34375 C 324.25 367.109375 324.261719 366.871094 324.25 366.636719 C 324.285156 363.203125 323.558594 359.945312 322.070312 356.851562 C 320.679688 353.785156 318.574219 351.324219 315.761719 349.476562 C 314.257812 348.554688 312.65625 347.867188 310.957031 347.410156 C 309.253906 346.957031 307.523438 346.75 305.765625 346.792969 C 303.9375 346.730469 302.144531 346.941406 300.382812 347.429688 C 298.621094 347.914062 296.972656 348.652344 295.433594 349.644531 C 292.613281 351.546875 290.527344 354.0625 289.179688 357.1875 C 287.804688 360.460938 287.132812 363.871094 287.167969 367.417969 C 287.066406 368.800781 287.101562 370.175781 287.273438 371.550781 C 287.441406 372.925781 287.746094 374.269531 288.183594 375.582031 C 288.617188 376.898438 289.179688 378.15625 289.863281 379.359375 C 290.546875 380.5625 291.34375 381.6875 292.25 382.734375 C 293.230469 383.683594 294.296875 384.523438 295.453125 385.253906 C 296.605469 385.984375 297.820312 386.589844 299.097656 387.070312 C 300.375 387.554688 301.6875 387.898438 303.039062 388.109375 C 304.386719 388.320312 305.742188 388.390625 307.105469 388.324219 Z M 295.9375 357.972656 C 296.996094 356.289062 298.425781 355.042969 300.238281 354.226562 C 301.867188 353.390625 303.597656 352.980469 305.429688 352.996094 C 307.277344 352.996094 309.023438 353.40625 310.679688 354.226562 C 312.460938 355.074219 313.894531 356.320312 314.980469 357.972656 C 316.238281 359.929688 316.910156 362.070312 316.988281 364.398438 L 294.09375 364.398438 C 294.113281 361.996094 294.765625 359.777344 296.046875 357.746094 Z M 329.109375 352.382812 C 329.007812 351.898438 329.007812 351.414062 329.109375 350.929688 C 329.089844 349.933594 329.425781 349.078125 330.113281 348.355469 C 330.789062 347.667969 331.605469 347.332031 332.570312 347.351562 C 333.308594 347.328125 333.980469 347.535156 334.582031 347.964844 C 335.179688 348.347656 335.609375 348.867188 335.867188 349.53125 L 347.871094 379.269531 L 360.101562 349.644531 C 360.210938 349.300781 360.371094 348.988281 360.582031 348.699219 C 360.792969 348.410156 361.046875 348.160156 361.339844 347.953125 C 361.628906 347.746094 361.949219 347.59375 362.289062 347.488281 C 362.632812 347.386719 362.984375 347.339844 363.339844 347.351562 C 364.324219 347.324219 365.160156 347.660156 365.855469 348.355469 C 366.539062 349.078125 366.875 349.933594 366.859375 350.929688 C 366.945312 351.355469 366.945312 351.785156 366.859375 352.214844 L 345.582031 403.359375 C 345.472656 403.710938 345.308594 404.039062 345.09375 404.339844 C 344.882812 404.640625 344.625 404.902344 344.332031 405.121094 C 344.035156 405.34375 343.714844 405.511719 343.363281 405.632812 C 343.015625 405.75 342.65625 405.8125 342.289062 405.820312 C 341.363281 405.820312 340.582031 405.484375 339.941406 404.8125 C 339.28125 404.125 338.964844 403.304688 338.992188 402.355469 C 338.910156 401.945312 338.910156 401.535156 338.992188 401.125 L 344.019531 388.101562 Z M 371.046875 352.382812 C 370.875 351.953125 370.78125 351.503906 370.769531 351.039062 C 370.75 350.074219 371.085938 349.253906 371.773438 348.582031 C 372.472656 347.894531 373.308594 347.558594 374.285156 347.574219 C 375.011719 347.558594 375.683594 347.746094 376.296875 348.132812 C 376.871094 348.492188 377.261719 348.996094 377.46875 349.644531 L 386.628906 379.660156 L 395.617188 350.371094 C 395.902344 349.539062 396.386719 348.851562 397.070312 348.300781 C 397.792969 347.800781 398.59375 347.558594 399.472656 347.574219 C 400.335938 347.558594 401.117188 347.800781 401.816406 348.300781 C 402.523438 348.835938 403.007812 349.523438 403.269531 350.371094 L 412.316406 379.660156 L 421.53125 349.195312 C 421.761719 348.546875 422.171875 348.042969 422.757812 347.6875 C 423.351562 347.292969 424.003906 347.105469 424.714844 347.128906 C 425.695312 347.101562 426.535156 347.433594 427.226562 348.132812 C 427.914062 348.808594 428.25 349.628906 428.230469 350.59375 C 428.3125 351.039062 428.3125 351.488281 428.230469 351.933594 L 417.0625 384.355469 C 416.734375 385.320312 416.15625 386.105469 415.332031 386.703125 C 414.507812 387.328125 413.574219 387.644531 412.539062 387.652344 C 411.5 387.660156 410.566406 387.34375 409.746094 386.703125 C 408.890625 386.097656 408.292969 385.296875 407.960938 384.300781 L 399.527344 358.53125 L 391.261719 384.355469 C 390.910156 385.335938 390.316406 386.140625 389.476562 386.757812 C 389.070312 387.058594 388.632812 387.285156 388.152344 387.445312 C 387.675781 387.601562 387.1875 387.679688 386.683594 387.679688 C 386.179688 387.679688 385.691406 387.601562 385.214844 387.445312 C 384.734375 387.285156 384.296875 387.058594 383.890625 386.757812 C 383.0625 386.167969 382.503906 385.386719 382.214844 384.410156 Z M 442.917969 385.921875 C 446.195312 387.695312 449.695312 388.550781 453.417969 388.492188 C 457.125 388.550781 460.605469 387.695312 463.859375 385.921875 C 465.363281 385.066406 466.714844 384.019531 467.914062 382.773438 C 469.109375 381.527344 470.105469 380.132812 470.898438 378.597656 C 471.707031 376.914062 472.320312 375.164062 472.734375 373.34375 C 473.148438 371.519531 473.355469 369.675781 473.355469 367.808594 C 473.355469 365.941406 473.148438 364.097656 472.734375 362.277344 C 472.320312 360.457031 471.707031 358.703125 470.898438 357.019531 C 470.164062 355.398438 469.207031 353.917969 468.027344 352.582031 C 466.847656 351.25 465.496094 350.121094 463.972656 349.195312 C 460.722656 347.394531 457.242188 346.535156 453.53125 346.625 C 449.800781 346.539062 446.300781 347.394531 443.03125 349.195312 C 441.53125 350.03125 440.1875 351.066406 438.996094 352.304688 C 437.808594 353.542969 436.824219 354.929688 436.050781 356.460938 C 435.242188 358.144531 434.628906 359.898438 434.214844 361.71875 C 433.800781 363.539062 433.589844 365.382812 433.589844 367.25 C 433.589844 369.117188 433.800781 370.960938 434.214844 372.78125 C 434.628906 374.605469 435.242188 376.355469 436.050781 378.039062 C 436.808594 379.609375 437.785156 381.035156 438.976562 382.3125 C 440.164062 383.589844 441.515625 384.660156 443.03125 385.527344 Z M 442.472656 359.703125 C 443.585938 357.679688 445.167969 356.132812 447.21875 355.066406 C 448.175781 354.585938 449.179688 354.226562 450.21875 353.980469 C 451.261719 353.734375 452.320312 353.613281 453.390625 353.613281 C 454.460938 353.613281 455.515625 353.734375 456.558594 353.980469 C 457.601562 354.226562 458.601562 354.585938 459.5625 355.066406 C 461.644531 356.109375 463.246094 357.65625 464.363281 359.703125 C 465.777344 362.0625 466.5 364.613281 466.542969 367.363281 C 466.660156 370.238281 466.027344 372.941406 464.644531 375.46875 C 463.507812 377.511719 461.90625 379.078125 459.839844 380.164062 C 458.882812 380.640625 457.882812 381 456.839844 381.246094 C 455.796875 381.492188 454.738281 381.613281 453.667969 381.613281 C 452.597656 381.613281 451.542969 381.492188 450.5 381.246094 C 449.457031 381 448.457031 380.640625 447.5 380.164062 C 445.460938 379.058594 443.878906 377.492188 442.75 375.46875 C 441.367188 372.941406 440.734375 370.238281 440.851562 367.363281 C 440.683594 364.519531 441.257812 361.835938 442.585938 359.3125 Z M 484.300781 387.09375 C 483.601562 386.402344 483.265625 385.5625 483.292969 384.578125 L 483.292969 351.039062 C 483.277344 350.046875 483.613281 349.1875 484.300781 348.46875 C 484.972656 347.78125 485.792969 347.445312 486.757812 347.460938 C 486.992188 347.453125 487.230469 347.472656 487.460938 347.511719 C 487.695312 347.550781 487.921875 347.617188 488.144531 347.703125 C 488.363281 347.789062 488.574219 347.898438 488.769531 348.027344 C 488.96875 348.160156 489.152344 348.308594 489.320312 348.476562 C 489.488281 348.644531 489.636719 348.828125 489.765625 349.023438 C 489.894531 349.222656 490.003906 349.433594 490.089844 349.652344 C 490.179688 349.875 490.242188 350.101562 490.28125 350.335938 C 490.324219 350.566406 490.339844 350.804688 490.332031 351.039062 L 490.332031 354.394531 C 490.980469 353.335938 491.746094 352.371094 492.628906 351.5 C 493.511719 350.625 494.484375 349.871094 495.550781 349.234375 C 496.613281 348.59375 497.738281 348.09375 498.925781 347.726562 C 500.109375 347.363281 501.324219 347.144531 502.5625 347.070312 L 502.953125 347.070312 C 503.925781 347.03125 504.742188 347.367188 505.410156 348.078125 C 506.097656 348.753906 506.433594 349.574219 506.414062 350.535156 C 506.441406 351.503906 506.105469 352.324219 505.410156 352.996094 C 504.671875 353.636719 503.816406 353.933594 502.839844 353.890625 L 502.449219 353.890625 C 499.988281 353.863281 497.699219 354.476562 495.582031 355.734375 C 493.457031 357.023438 491.707031 358.699219 490.332031 360.765625 L 490.332031 384.464844 C 490.359375 385.449219 490.023438 386.289062 489.324219 386.980469 C 488.605469 387.667969 487.75 388.003906 486.757812 387.988281 C 485.789062 387.898438 485.007812 387.472656 484.410156 386.703125 Z M 519.203125 386.03125 C 522.039062 387.664062 525.089844 388.484375 528.359375 388.492188 C 529.617188 388.488281 530.859375 388.355469 532.089844 388.09375 C 533.320312 387.832031 534.507812 387.445312 535.660156 386.9375 C 536.808594 386.425781 537.890625 385.804688 538.910156 385.066406 C 539.929688 384.332031 540.863281 383.496094 541.707031 382.566406 L 541.707031 384.578125 C 541.679688 385.5625 542.015625 386.402344 542.714844 387.09375 C 543.433594 387.78125 544.289062 388.117188 545.28125 388.101562 C 546.246094 388.117188 547.066406 387.78125 547.738281 387.09375 C 548.09375 386.773438 548.363281 386.394531 548.546875 385.953125 C 548.734375 385.515625 548.816406 385.054688 548.800781 384.578125 L 548.800781 334.269531 C 548.816406 333.792969 548.734375 333.335938 548.546875 332.894531 C 548.363281 332.457031 548.09375 332.074219 547.738281 331.753906 C 547.082031 331.03125 546.261719 330.675781 545.28125 330.695312 C 544.289062 330.675781 543.433594 331.011719 542.714844 331.699219 C 542.007812 332.410156 541.671875 333.269531 541.707031 334.269531 L 541.707031 353.386719 C 541.019531 352.636719 540.269531 351.945312 539.464844 351.320312 C 538.660156 350.695312 537.808594 350.140625 536.90625 349.660156 C 536.007812 349.179688 535.074219 348.777344 534.109375 348.453125 C 533.140625 348.128906 532.152344 347.890625 531.144531 347.734375 C 530.136719 347.578125 529.125 347.507812 528.105469 347.523438 C 527.085938 347.539062 526.074219 347.636719 525.070312 347.824219 C 524.070312 348.011719 523.089844 348.28125 522.132812 348.632812 C 521.175781 348.984375 520.253906 349.414062 519.371094 349.921875 C 516.382812 351.660156 514.054688 354.046875 512.390625 357.078125 C 510.480469 360.558594 509.585938 364.285156 509.710938 368.257812 C 509.613281 372.222656 510.503906 375.949219 512.390625 379.4375 C 514.167969 382.097656 516.476562 384.164062 519.3125 385.640625 Z M 520.097656 357.46875 C 521.308594 356.21875 522.71875 355.273438 524.335938 354.628906 C 525.953125 353.988281 527.628906 353.703125 529.367188 353.777344 C 531.75 353.777344 534 354.316406 536.125 355.398438 C 538.253906 356.460938 540.117188 357.878906 541.707031 359.648438 L 541.707031 376.027344 C 540.101562 377.777344 538.242188 379.195312 536.125 380.273438 C 533.996094 381.335938 531.742188 381.859375 529.367188 381.839844 C 527.636719 381.914062 525.960938 381.632812 524.347656 381 C 522.734375 380.367188 521.316406 379.4375 520.097656 378.207031 C 518.839844 376.707031 517.921875 375.019531 517.351562 373.148438 C 516.78125 371.273438 516.597656 369.367188 516.800781 367.417969 C 516.660156 365.535156 516.882812 363.699219 517.476562 361.90625 C 518.066406 360.117188 518.976562 358.503906 520.207031 357.078125 Z M 266.617188 591.34375 C 269.085938 591.339844 271.535156 591.136719 273.96875 590.726562 C 276.398438 590.316406 278.78125 589.710938 281.113281 588.910156 C 283.449219 588.105469 285.699219 587.113281 287.867188 585.9375 C 290.035156 584.761719 292.09375 583.414062 294.039062 581.894531 L 308.109375 595.984375 C 308.636719 596.503906 309.246094 596.90625 309.929688 597.1875 C 310.617188 597.46875 311.332031 597.609375 312.074219 597.601562 C 312.808594 597.601562 313.511719 597.457031 314.1875 597.179688 C 314.867188 596.898438 315.464844 596.5 315.984375 595.984375 C 316.246094 595.722656 316.480469 595.441406 316.6875 595.132812 C 316.890625 594.828125 317.066406 594.503906 317.207031 594.164062 C 317.347656 593.824219 317.457031 593.472656 317.527344 593.109375 C 317.601562 592.75 317.636719 592.382812 317.636719 592.015625 C 317.636719 591.644531 317.601562 591.28125 317.527344 590.917969 C 317.457031 590.554688 317.347656 590.203125 317.207031 589.863281 C 317.066406 589.523438 316.890625 589.199219 316.6875 588.894531 C 316.480469 588.585938 316.246094 588.304688 315.984375 588.046875 L 301.96875 574.015625 C 302.796875 572.949219 303.578125 571.847656 304.3125 570.710938 C 305.042969 569.574219 305.722656 568.40625 306.347656 567.210938 C 306.972656 566.011719 307.542969 564.789062 308.054688 563.539062 C 308.570312 562.289062 309.027344 561.015625 309.425781 559.726562 C 309.828125 558.433594 310.167969 557.128906 310.449219 555.804688 C 310.730469 554.484375 310.949219 553.152344 311.109375 551.808594 C 311.269531 550.464844 311.371094 549.121094 311.410156 547.769531 C 311.445312 546.417969 311.425781 545.066406 311.339844 543.71875 C 311.257812 542.367188 311.109375 541.027344 310.90625 539.6875 C 310.699219 538.351562 310.433594 537.03125 310.109375 535.71875 C 309.78125 534.40625 309.398438 533.109375 308.957031 531.832031 C 308.511719 530.558594 308.011719 529.300781 307.457031 528.070312 C 306.898438 526.839844 306.289062 525.636719 305.625 524.457031 C 304.957031 523.28125 304.238281 522.140625 303.472656 521.027344 C 302.703125 519.917969 301.882812 518.84375 301.015625 517.804688 C 300.148438 516.769531 299.238281 515.773438 298.28125 514.820312 C 297.246094 513.777344 296.164062 512.789062 295.03125 511.855469 C 293.898438 510.921875 292.722656 510.046875 291.503906 509.226562 C 290.285156 508.410156 289.027344 507.652344 287.734375 506.960938 C 286.441406 506.265625 285.117188 505.636719 283.761719 505.070312 C 282.40625 504.507812 281.027344 504.011719 279.625 503.585938 C 278.21875 503.15625 276.796875 502.800781 275.359375 502.511719 C 273.921875 502.226562 272.46875 502.007812 271.011719 501.863281 C 269.550781 501.71875 268.085938 501.648438 266.617188 501.648438 C 265.152344 501.648438 263.6875 501.71875 262.226562 501.863281 C 260.765625 502.007812 259.316406 502.226562 257.875 502.511719 C 256.4375 502.800781 255.015625 503.15625 253.613281 503.585938 C 252.207031 504.011719 250.828125 504.507812 249.472656 505.070312 C 248.117188 505.636719 246.792969 506.265625 245.5 506.960938 C 244.207031 507.652344 242.953125 508.410156 241.734375 509.226562 C 240.515625 510.046875 239.339844 510.921875 238.207031 511.855469 C 237.074219 512.789062 235.988281 513.777344 234.953125 514.820312 C 233.382812 516.371094 231.9375 518.035156 230.613281 519.800781 C 229.289062 521.570312 228.101562 523.425781 227.050781 525.371094 C 226 527.316406 225.101562 529.328125 224.351562 531.40625 C 223.597656 533.484375 223.003906 535.605469 222.566406 537.773438 C 222.128906 539.9375 221.855469 542.125 221.742188 544.332031 C 221.628906 546.539062 221.675781 548.742188 221.890625 550.941406 C 222.105469 553.140625 222.476562 555.3125 223.011719 557.457031 C 223.546875 559.601562 224.238281 561.695312 225.082031 563.738281 C 225.925781 565.777344 226.917969 567.746094 228.054688 569.640625 C 229.191406 571.535156 230.460938 573.335938 231.863281 575.042969 C 233.265625 576.75 234.789062 578.34375 236.425781 579.824219 C 238.066406 581.304688 239.804688 582.65625 241.644531 583.878906 C 243.484375 585.101562 245.402344 586.183594 247.402344 587.121094 C 249.402344 588.058594 251.460938 588.84375 253.574219 589.472656 C 255.691406 590.105469 257.84375 590.578125 260.027344 590.894531 C 262.214844 591.207031 264.410156 591.355469 266.617188 591.34375 Z M 242.828125 522.476562 C 243.605469 521.707031 244.417969 520.972656 245.269531 520.28125 C 246.117188 519.589844 247 518.9375 247.914062 518.332031 C 248.828125 517.726562 249.765625 517.167969 250.734375 516.65625 C 251.703125 516.140625 252.695312 515.675781 253.707031 515.261719 C 254.71875 514.84375 255.753906 514.480469 256.800781 514.164062 C 257.851562 513.847656 258.914062 513.585938 259.988281 513.375 C 261.0625 513.164062 262.144531 513.007812 263.238281 512.902344 C 264.328125 512.800781 265.417969 512.75 266.515625 512.75 C 267.609375 512.753906 268.703125 512.8125 269.792969 512.921875 C 270.882812 513.03125 271.964844 513.195312 273.039062 513.410156 C 274.113281 513.628906 275.175781 513.898438 276.222656 514.21875 C 277.269531 514.539062 278.296875 514.910156 279.308594 515.332031 C 280.320312 515.753906 281.308594 516.222656 282.273438 516.742188 C 283.238281 517.261719 284.175781 517.824219 285.085938 518.433594 C 285.996094 519.046875 286.875 519.699219 287.71875 520.398438 C 288.566406 521.09375 289.375 521.832031 290.148438 522.605469 C 290.921875 523.382812 291.65625 524.195312 292.351562 525.042969 C 293.042969 525.890625 293.695312 526.773438 294.300781 527.683594 C 294.910156 528.597656 295.472656 529.539062 295.988281 530.503906 C 296.503906 531.472656 296.96875 532.464844 297.390625 533.476562 C 297.808594 534.488281 298.175781 535.519531 298.492188 536.570312 C 298.808594 537.621094 299.074219 538.683594 299.289062 539.757812 C 299.503906 540.832031 299.664062 541.917969 299.769531 543.007812 C 299.875 544.097656 299.929688 545.191406 299.929688 546.289062 C 299.929688 547.386719 299.875 548.480469 299.769531 549.570312 C 299.664062 550.664062 299.503906 551.746094 299.289062 552.820312 C 299.074219 553.898438 298.808594 554.960938 298.492188 556.007812 C 298.175781 557.058594 297.808594 558.089844 297.390625 559.101562 C 296.96875 560.117188 296.503906 561.105469 295.988281 562.074219 C 295.472656 563.042969 294.910156 563.980469 294.300781 564.894531 C 293.695312 565.804688 293.042969 566.6875 292.351562 567.535156 C 291.65625 568.382812 290.921875 569.195312 290.148438 569.972656 C 289.375 570.75 288.566406 571.484375 287.71875 572.183594 C 286.875 572.878906 285.996094 573.535156 285.085938 574.144531 C 284.175781 574.753906 283.238281 575.320312 282.273438 575.839844 C 281.308594 576.355469 280.320312 576.828125 279.308594 577.25 C 278.296875 577.671875 277.269531 578.042969 276.222656 578.363281 C 275.175781 578.683594 274.113281 578.953125 273.039062 579.167969 C 271.964844 579.382812 270.882812 579.546875 269.792969 579.65625 C 268.703125 579.769531 267.609375 579.824219 266.515625 579.828125 C 265.421875 579.832031 264.328125 579.78125 263.238281 579.675781 C 262.144531 579.570312 261.0625 579.414062 259.988281 579.203125 C 258.914062 578.992188 257.851562 578.730469 256.800781 578.414062 C 255.753906 578.101562 254.71875 577.734375 253.707031 577.320312 C 252.695312 576.902344 251.703125 576.4375 250.734375 575.925781 C 249.765625 575.410156 248.828125 574.851562 247.914062 574.246094 C 247 573.640625 246.117188 572.992188 245.269531 572.296875 C 244.417969 571.605469 243.605469 570.875 242.828125 570.101562 C 242.046875 569.324219 241.300781 568.511719 240.597656 567.660156 C 239.894531 566.808594 239.238281 565.925781 238.621094 565.007812 C 238.003906 564.09375 237.4375 563.148438 236.914062 562.175781 C 236.390625 561.203125 235.917969 560.207031 235.492188 559.1875 C 235.070312 558.167969 234.695312 557.132812 234.375 556.074219 C 234.054688 555.019531 233.785156 553.949219 233.566406 552.867188 C 233.351562 551.785156 233.1875 550.691406 233.082031 549.59375 C 232.972656 548.496094 232.917969 547.394531 232.917969 546.289062 C 232.917969 545.1875 232.972656 544.085938 233.082031 542.984375 C 233.1875 541.886719 233.351562 540.796875 233.566406 539.714844 C 233.785156 538.628906 234.054688 537.5625 234.375 536.503906 C 234.695312 535.449219 235.070312 534.410156 235.492188 533.390625 C 235.917969 532.371094 236.390625 531.375 236.914062 530.402344 C 237.4375 529.429688 238.003906 528.488281 238.621094 527.570312 C 239.238281 526.65625 239.894531 525.769531 240.597656 524.921875 C 241.300781 524.070312 242.046875 523.253906 242.828125 522.476562 Z M 266.617188 566.636719 C 267.617188 566.632812 268.609375 566.558594 269.597656 566.410156 C 270.582031 566.261719 271.554688 566.042969 272.507812 565.75 C 273.460938 565.457031 274.390625 565.097656 275.292969 564.671875 C 276.195312 564.242188 277.058594 563.75 277.890625 563.195312 C 278.71875 562.636719 279.503906 562.023438 280.242188 561.351562 C 280.980469 560.679688 281.664062 559.957031 282.296875 559.183594 C 282.929688 558.414062 283.503906 557.597656 284.015625 556.742188 C 284.527344 555.882812 284.976562 554.992188 285.359375 554.070312 C 285.738281 553.148438 286.050781 552.199219 286.292969 551.230469 C 286.535156 550.261719 286.707031 549.28125 286.804688 548.285156 C 286.902344 547.292969 286.925781 546.296875 286.878906 545.296875 C 286.828125 544.300781 286.707031 543.3125 286.515625 542.332031 C 286.320312 541.351562 286.054688 540.390625 285.71875 539.449219 C 285.382812 538.511719 284.980469 537.597656 284.511719 536.71875 C 284.042969 535.835938 283.511719 534.992188 282.917969 534.191406 C 282.324219 533.386719 281.675781 532.632812 280.96875 531.925781 C 280.492188 531.464844 279.992188 531.03125 279.472656 530.617188 C 278.953125 530.207031 278.417969 529.824219 277.859375 529.464844 C 277.304688 529.101562 276.730469 528.769531 276.144531 528.464844 C 275.554688 528.160156 274.953125 527.886719 274.339844 527.636719 C 273.726562 527.390625 273.101562 527.171875 272.464844 526.984375 C 271.828125 526.796875 271.1875 526.640625 270.535156 526.515625 C 269.886719 526.390625 269.230469 526.296875 268.574219 526.230469 C 267.914062 526.167969 267.253906 526.136719 266.589844 526.136719 C 265.929688 526.136719 265.265625 526.167969 264.609375 526.230469 C 263.949219 526.296875 263.292969 526.390625 262.644531 526.515625 C 261.992188 526.640625 261.351562 526.796875 260.714844 526.984375 C 260.082031 527.171875 259.457031 527.390625 258.839844 527.636719 C 258.226562 527.886719 257.625 528.160156 257.035156 528.464844 C 256.449219 528.769531 255.875 529.101562 255.320312 529.464844 C 254.765625 529.824219 254.226562 530.207031 253.707031 530.617188 C 253.1875 531.03125 252.6875 531.464844 252.210938 531.925781 C 251.503906 532.632812 250.855469 533.390625 250.261719 534.191406 C 249.667969 534.996094 249.136719 535.839844 248.664062 536.722656 C 248.195312 537.605469 247.792969 538.519531 247.457031 539.460938 C 247.121094 540.402344 246.855469 541.363281 246.664062 542.347656 C 246.46875 543.328125 246.347656 544.316406 246.300781 545.316406 C 246.253906 546.316406 246.277344 547.3125 246.378906 548.308594 C 246.476562 549.304688 246.648438 550.285156 246.894531 551.253906 C 247.136719 552.226562 247.449219 553.171875 247.832031 554.097656 C 248.21875 555.019531 248.664062 555.910156 249.179688 556.765625 C 249.695312 557.625 250.269531 558.441406 250.90625 559.210938 C 251.539062 559.984375 252.226562 560.707031 252.96875 561.378906 C 253.707031 562.050781 254.496094 562.660156 255.328125 563.21875 C 256.15625 563.773438 257.023438 564.261719 257.929688 564.691406 C 258.832031 565.117188 259.761719 565.476562 260.71875 565.765625 C 261.675781 566.054688 262.648438 566.273438 263.636719 566.417969 C 264.625 566.5625 265.617188 566.636719 266.617188 566.636719 Z M 259.917969 540.027344 C 260.34375 539.605469 260.804688 539.222656 261.304688 538.890625 C 261.804688 538.554688 262.332031 538.273438 262.886719 538.042969 C 263.445312 537.8125 264.015625 537.640625 264.605469 537.523438 C 265.195312 537.40625 265.792969 537.347656 266.394531 537.347656 C 266.992188 537.347656 267.589844 537.40625 268.179688 537.523438 C 268.769531 537.640625 269.339844 537.8125 269.898438 538.042969 C 270.453125 538.273438 270.980469 538.558594 271.480469 538.890625 C 271.980469 539.226562 272.441406 539.605469 272.867188 540.03125 C 273.292969 540.457031 273.671875 540.921875 274.007812 541.421875 C 274.339844 541.921875 274.621094 542.449219 274.851562 543.003906 C 275.082031 543.5625 275.257812 544.132812 275.375 544.726562 C 275.492188 545.316406 275.550781 545.910156 275.550781 546.511719 C 275.550781 547.113281 275.492188 547.710938 275.375 548.300781 C 275.257812 548.890625 275.082031 549.464844 274.851562 550.019531 C 274.621094 550.578125 274.339844 551.105469 274.007812 551.605469 C 273.671875 552.105469 273.292969 552.570312 272.867188 552.996094 C 272.441406 553.421875 271.980469 553.800781 271.480469 554.136719 C 270.980469 554.46875 270.453125 554.75 269.898438 554.980469 C 269.339844 555.210938 268.769531 555.386719 268.179688 555.503906 C 267.589844 555.621094 266.992188 555.679688 266.394531 555.679688 C 265.792969 555.679688 265.195312 555.621094 264.605469 555.503906 C 264.015625 555.386719 263.445312 555.214844 262.886719 554.984375 C 262.332031 554.753906 261.804688 554.472656 261.304688 554.136719 C 260.804688 553.800781 260.34375 553.421875 259.917969 552.996094 C 259.488281 552.574219 259.105469 552.113281 258.769531 551.613281 C 258.429688 551.113281 258.144531 550.582031 257.914062 550.027344 C 257.679688 549.472656 257.503906 548.898438 257.386719 548.304688 C 257.269531 547.714844 257.210938 547.117188 257.210938 546.511719 C 257.210938 545.910156 257.269531 545.3125 257.386719 544.722656 C 257.503906 544.128906 257.679688 543.554688 257.914062 543 C 258.144531 542.441406 258.429688 541.914062 258.769531 541.414062 C 259.105469 540.914062 259.488281 540.453125 259.917969 540.027344 Z M 259.917969 540.027344 " fill-opacity="1" fill-rule="nonzero"/></g></svg>