<svg xmlns="http://www.w3.org/2000/svg" xmlns:xlink="http://www.w3.org/1999/xlink" width="1080" zoomAndPan="magnify" viewBox="0 0 810 809.999993" height="1080" preserveAspectRatio="xMidYMid meet" version="1.0"><defs><clipPath id="ccc3571bf7"><path d="M 58.382812 58.382812 L 751.382812 58.382812 L 751.382812 751.382812 L 58.382812 751.382812 Z M 58.382812 58.382812 " clip-rule="nonzero"/></clipPath></defs><g clip-path="url(#ccc3571bf7)"><path fill="#ffffff" d="M 227.203125 185.472656 L 272.488281 185.472656 L 259.28125 231.6875 L 214 231.6875 Z M 335.671875 220.136719 L 335.671875 358.78125 L 254.796875 358.78125 L 254.796875 400.210938 C 254.796875 401.582031 254.695312 402.945312 254.496094 404.304688 C 254.292969 405.660156 253.992188 406.996094 253.59375 408.308594 C 253.195312 409.621094 252.703125 410.894531 252.117188 412.136719 C 251.53125 413.375 250.855469 414.566406 250.09375 415.707031 C 249.332031 416.847656 248.492188 417.925781 247.570312 418.941406 C 246.648438 419.957031 245.660156 420.902344 244.597656 421.769531 C 243.539062 422.640625 242.421875 423.429688 241.242188 424.132812 C 240.066406 424.839844 238.84375 425.453125 237.578125 425.980469 C 236.3125 426.503906 235.011719 426.933594 233.679688 427.265625 C 232.351562 427.597656 231.003906 427.832031 229.636719 427.96875 C 228.273438 428.101562 226.90625 428.136719 225.535156 428.066406 C 224.167969 428 222.808594 427.832031 221.464844 427.566406 C 220.117188 427.296875 218.800781 426.933594 217.507812 426.472656 C 216.21875 426.007812 214.964844 425.453125 213.757812 424.808594 C 212.546875 424.160156 211.390625 423.429688 210.289062 422.613281 C 209.1875 421.796875 208.152344 420.902344 207.183594 419.933594 L 146.027344 358.78125 L 116.152344 358.78125 C 114.261719 358.777344 112.375 358.683594 110.492188 358.496094 C 108.609375 358.308594 106.742188 358.027344 104.886719 357.660156 C 103.03125 357.289062 101.199219 356.828125 99.390625 356.277344 C 97.582031 355.726562 95.800781 355.089844 94.054688 354.363281 C 92.308594 353.640625 90.601562 352.832031 88.933594 351.9375 C 87.265625 351.046875 85.644531 350.074219 84.074219 349.023438 C 82.5 347.972656 80.984375 346.847656 79.523438 345.644531 C 78.058594 344.445312 76.660156 343.175781 75.324219 341.839844 C 73.984375 340.503906 72.71875 339.101562 71.515625 337.640625 C 70.316406 336.179688 69.191406 334.660156 68.140625 333.089844 C 67.089844 331.515625 66.117188 329.898438 65.222656 328.230469 C 64.332031 326.5625 63.523438 324.855469 62.796875 323.109375 C 62.074219 321.359375 61.4375 319.582031 60.886719 317.773438 C 60.335938 315.964844 59.875 314.132812 59.503906 312.277344 C 59.132812 310.421875 58.855469 308.554688 58.667969 306.671875 C 58.480469 304.789062 58.386719 302.902344 58.382812 301.011719 L 58.382812 116.152344 C 58.386719 114.261719 58.480469 112.375 58.667969 110.492188 C 58.855469 108.609375 59.132812 106.742188 59.503906 104.886719 C 59.875 103.03125 60.335938 101.199219 60.886719 99.390625 C 61.4375 97.582031 62.074219 95.800781 62.796875 94.054688 C 63.523438 92.308594 64.332031 90.601562 65.222656 88.933594 C 66.117188 87.265625 67.089844 85.644531 68.140625 84.074219 C 69.191406 82.5 70.316406 80.984375 71.515625 79.523438 C 72.71875 78.058594 73.984375 76.660156 75.324219 75.324219 C 76.660156 73.984375 78.058594 72.71875 79.523438 71.515625 C 80.984375 70.316406 82.5 69.191406 84.074219 68.140625 C 85.644531 67.089844 87.265625 66.117188 88.933594 65.222656 C 90.601562 64.332031 92.308594 63.523438 94.054688 62.796875 C 95.800781 62.074219 97.582031 61.4375 99.390625 60.886719 C 101.199219 60.335938 103.03125 59.875 104.886719 59.503906 C 106.742188 59.132812 108.609375 58.855469 110.492188 58.667969 C 112.375 58.480469 114.261719 58.386719 116.152344 58.382812 L 393.441406 58.382812 C 395.332031 58.386719 397.21875 58.480469 399.101562 58.667969 C 400.984375 58.855469 402.851562 59.132812 404.707031 59.503906 C 406.5625 59.875 408.394531 60.335938 410.203125 60.886719 C 412.011719 61.4375 413.789062 62.074219 415.539062 62.796875 C 417.285156 63.523438 418.992188 64.332031 420.660156 65.222656 C 422.328125 66.117188 423.945312 67.089844 425.519531 68.140625 C 427.089844 69.191406 428.609375 70.316406 430.070312 71.515625 C 431.53125 72.71875 432.933594 73.984375 434.269531 75.324219 C 435.605469 76.660156 436.875 78.058594 438.074219 79.523438 C 439.277344 80.984375 440.402344 82.5 441.453125 84.074219 C 442.503906 85.644531 443.476562 87.265625 444.367188 88.933594 C 445.261719 90.601562 446.070312 92.308594 446.792969 94.054688 C 447.519531 95.800781 448.15625 97.582031 448.707031 99.390625 C 449.257812 101.199219 449.71875 103.03125 450.089844 104.886719 C 450.457031 106.742188 450.738281 108.609375 450.925781 110.492188 C 451.113281 112.375 451.207031 114.261719 451.210938 116.152344 L 451.210938 139.257812 L 416.546875 139.257812 C 415.226562 139.261719 413.902344 139.292969 412.582031 139.359375 C 411.257812 139.425781 409.941406 139.527344 408.625 139.65625 C 407.308594 139.789062 405.996094 139.953125 404.6875 140.148438 C 403.378906 140.34375 402.074219 140.570312 400.777344 140.828125 C 399.480469 141.089844 398.1875 141.378906 396.90625 141.703125 C 395.621094 142.023438 394.347656 142.378906 393.082031 142.761719 C 391.816406 143.148438 390.558594 143.5625 389.316406 144.011719 C 388.070312 144.457031 386.835938 144.933594 385.613281 145.441406 C 384.390625 145.949219 383.183594 146.484375 381.988281 147.050781 C 380.789062 147.617188 379.609375 148.214844 378.441406 148.835938 C 377.277344 149.460938 376.125 150.113281 374.992188 150.796875 C 373.855469 151.476562 372.738281 152.183594 371.640625 152.917969 C 370.539062 153.65625 369.457031 154.417969 368.394531 155.203125 C 367.332031 155.992188 366.289062 156.808594 365.265625 157.648438 C 364.246094 158.488281 363.242188 159.351562 362.261719 160.238281 C 361.28125 161.128906 360.324219 162.039062 359.390625 162.976562 C 358.453125 163.910156 357.542969 164.871094 356.652344 165.851562 C 355.765625 166.828125 354.898438 167.832031 354.058594 168.855469 C 353.21875 169.875 352.40625 170.917969 351.617188 171.980469 C 350.828125 173.042969 350.066406 174.125 349.332031 175.226562 C 348.597656 176.324219 347.890625 177.441406 347.207031 178.578125 C 346.527344 179.710938 345.875 180.863281 345.25 182.03125 C 344.625 183.195312 344.03125 184.378906 343.464844 185.574219 C 342.898438 186.769531 342.363281 187.976562 341.855469 189.199219 C 341.347656 190.421875 340.871094 191.65625 340.425781 192.902344 C 339.976562 194.148438 339.5625 195.402344 339.175781 196.667969 C 338.792969 197.933594 338.4375 199.210938 338.113281 200.492188 C 337.792969 201.777344 337.5 203.066406 337.242188 204.363281 C 336.984375 205.660156 336.753906 206.964844 336.558594 208.273438 C 336.363281 209.582031 336.203125 210.894531 336.070312 212.210938 C 335.9375 213.527344 335.839844 214.847656 335.773438 216.167969 C 335.707031 217.488281 335.671875 218.8125 335.671875 220.136719 Z M 347.226562 173.921875 C 347.226562 173.160156 347.152344 172.410156 347.003906 171.664062 C 346.855469 170.921875 346.636719 170.199219 346.347656 169.496094 C 346.058594 168.796875 345.703125 168.128906 345.28125 167.5 C 344.859375 166.867188 344.378906 166.285156 343.84375 165.75 C 343.308594 165.210938 342.722656 164.734375 342.09375 164.3125 C 341.460938 163.890625 340.796875 163.535156 340.09375 163.246094 C 339.394531 162.953125 338.671875 162.734375 337.925781 162.585938 C 337.183594 162.441406 336.429688 162.367188 335.671875 162.367188 L 303.128906 162.367188 L 312.125 130.875 C 312.332031 130.148438 312.464844 129.40625 312.523438 128.648438 C 312.582031 127.894531 312.566406 127.140625 312.480469 126.390625 C 312.390625 125.636719 312.230469 124.902344 311.996094 124.179688 C 311.765625 123.460938 311.460938 122.769531 311.09375 122.105469 C 310.722656 121.445312 310.292969 120.828125 309.804688 120.25 C 309.3125 119.671875 308.769531 119.148438 308.175781 118.679688 C 307.582031 118.207031 306.949219 117.800781 306.273438 117.457031 C 305.601562 117.109375 304.898438 116.832031 304.171875 116.625 C 303.445312 116.417969 302.703125 116.28125 301.945312 116.21875 C 301.191406 116.160156 300.4375 116.171875 299.6875 116.257812 C 298.933594 116.34375 298.195312 116.5 297.476562 116.734375 C 296.753906 116.964844 296.0625 117.261719 295.398438 117.628906 C 294.738281 117.996094 294.117188 118.425781 293.539062 118.914062 C 292.960938 119.402344 292.433594 119.945312 291.964844 120.535156 C 291.492188 121.128906 291.082031 121.761719 290.734375 122.433594 C 290.386719 123.105469 290.105469 123.808594 289.898438 124.535156 L 279.089844 162.367188 L 233.804688 162.367188 L 242.800781 130.875 C 243.007812 130.148438 243.140625 129.40625 243.199219 128.648438 C 243.261719 127.894531 243.246094 127.140625 243.15625 126.390625 C 243.070312 125.636719 242.90625 124.902344 242.675781 124.179688 C 242.441406 123.460938 242.140625 122.769531 241.769531 122.105469 C 241.402344 121.445312 240.972656 120.828125 240.480469 120.25 C 239.992188 119.671875 239.449219 119.148438 238.855469 118.679688 C 238.261719 118.207031 237.628906 117.800781 236.953125 117.457031 C 236.277344 117.109375 235.578125 116.832031 234.851562 116.625 C 234.121094 116.417969 233.378906 116.28125 232.625 116.21875 C 231.871094 116.160156 231.117188 116.171875 230.363281 116.257812 C 229.613281 116.34375 228.875 116.5 228.152344 116.734375 C 227.433594 116.964844 226.738281 117.261719 226.078125 117.628906 C 225.414062 117.996094 224.792969 118.425781 224.214844 118.914062 C 223.636719 119.402344 223.113281 119.945312 222.640625 120.535156 C 222.167969 121.128906 221.757812 121.761719 221.410156 122.433594 C 221.0625 123.105469 220.785156 123.808594 220.574219 124.535156 L 209.765625 162.367188 L 173.921875 162.367188 C 173.160156 162.367188 172.410156 162.441406 171.667969 162.589844 C 170.921875 162.738281 170.199219 162.957031 169.5 163.246094 C 168.796875 163.535156 168.132812 163.890625 167.5 164.3125 C 166.871094 164.734375 166.285156 165.214844 165.75 165.75 C 165.214844 166.285156 164.734375 166.871094 164.3125 167.5 C 163.890625 168.132812 163.535156 168.796875 163.246094 169.5 C 162.957031 170.199219 162.738281 170.921875 162.589844 171.667969 C 162.441406 172.410156 162.367188 173.160156 162.367188 173.921875 C 162.367188 174.679688 162.441406 175.429688 162.589844 176.175781 C 162.738281 176.917969 162.957031 177.640625 163.246094 178.339844 C 163.535156 179.042969 163.890625 179.707031 164.3125 180.339844 C 164.734375 180.96875 165.214844 181.554688 165.75 182.089844 C 166.285156 182.625 166.871094 183.105469 167.5 183.527344 C 168.132812 183.949219 168.796875 184.304688 169.5 184.59375 C 170.199219 184.882812 170.921875 185.105469 171.667969 185.25 C 172.410156 185.398438 173.160156 185.472656 173.921875 185.472656 L 203.164062 185.472656 L 189.960938 231.6875 L 150.8125 231.6875 C 150.054688 231.6875 149.304688 231.761719 148.558594 231.910156 C 147.816406 232.058594 147.09375 232.277344 146.390625 232.566406 C 145.691406 232.859375 145.023438 233.214844 144.394531 233.636719 C 143.761719 234.058594 143.179688 234.535156 142.644531 235.074219 C 142.105469 235.609375 141.628906 236.191406 141.207031 236.824219 C 140.785156 237.453125 140.429688 238.121094 140.136719 238.820312 C 139.847656 239.523438 139.628906 240.246094 139.480469 240.988281 C 139.332031 241.734375 139.257812 242.484375 139.257812 243.242188 C 139.257812 244 139.332031 244.753906 139.480469 245.496094 C 139.628906 246.242188 139.847656 246.964844 140.136719 247.664062 C 140.429688 248.363281 140.785156 249.03125 141.207031 249.660156 C 141.628906 250.292969 142.105469 250.875 142.644531 251.414062 C 143.179688 251.949219 143.761719 252.425781 144.394531 252.847656 C 145.023438 253.269531 145.691406 253.625 146.390625 253.917969 C 147.09375 254.207031 147.816406 254.425781 148.558594 254.574219 C 149.304688 254.722656 150.054688 254.796875 150.8125 254.796875 L 183.359375 254.796875 L 174.359375 286.285156 C 174.152344 287.015625 174.019531 287.757812 173.957031 288.515625 C 173.894531 289.273438 173.910156 290.027344 173.996094 290.78125 C 174.082031 291.535156 174.242188 292.273438 174.476562 292.992188 C 174.707031 293.714844 175.007812 294.410156 175.378906 295.070312 C 175.746094 295.734375 176.175781 296.355469 176.667969 296.933594 C 177.15625 297.511719 177.699219 298.039062 178.292969 298.507812 C 178.886719 298.980469 179.523438 299.390625 180.199219 299.738281 C 180.871094 300.085938 181.574219 300.363281 182.304688 300.570312 C 183.34375 300.863281 184.40625 301.007812 185.484375 301.011719 C 186.109375 301.011719 186.726562 300.960938 187.34375 300.859375 C 187.957031 300.757812 188.5625 300.605469 189.152344 300.410156 C 189.742188 300.210938 190.3125 299.964844 190.863281 299.675781 C 191.417969 299.382812 191.941406 299.050781 192.4375 298.675781 C 192.933594 298.300781 193.398438 297.886719 193.828125 297.4375 C 194.261719 296.984375 194.652344 296.503906 195.003906 295.988281 C 195.359375 295.476562 195.667969 294.9375 195.933594 294.371094 C 196.199219 293.808594 196.417969 293.226562 196.585938 292.628906 L 207.398438 254.796875 L 252.679688 254.796875 L 243.683594 286.285156 C 243.476562 287.015625 243.339844 287.757812 243.28125 288.515625 C 243.21875 289.273438 243.230469 290.027344 243.320312 290.78125 C 243.40625 291.535156 243.566406 292.273438 243.796875 292.992188 C 244.03125 293.714844 244.332031 294.410156 244.699219 295.070312 C 245.070312 295.734375 245.5 296.355469 245.988281 296.933594 C 246.480469 297.511719 247.023438 298.039062 247.617188 298.507812 C 248.210938 298.980469 248.84375 299.390625 249.519531 299.738281 C 250.195312 300.085938 250.894531 300.363281 251.625 300.570312 C 252.667969 300.863281 253.726562 301.007812 254.808594 301.011719 C 255.429688 301.011719 256.050781 300.960938 256.664062 300.859375 C 257.28125 300.757812 257.882812 300.605469 258.472656 300.410156 C 259.066406 300.210938 259.636719 299.964844 260.1875 299.675781 C 260.738281 299.382812 261.261719 299.050781 261.761719 298.675781 C 262.257812 298.300781 262.722656 297.886719 263.152344 297.4375 C 263.582031 296.984375 263.972656 296.503906 264.328125 295.988281 C 264.679688 295.476562 264.988281 294.9375 265.253906 294.371094 C 265.519531 293.808594 265.738281 293.226562 265.910156 292.628906 L 276.71875 254.796875 L 312.566406 254.796875 C 313.324219 254.796875 314.074219 254.722656 314.820312 254.574219 C 315.5625 254.425781 316.285156 254.207031 316.984375 253.917969 C 317.6875 253.625 318.351562 253.269531 318.984375 252.847656 C 319.613281 252.425781 320.199219 251.949219 320.734375 251.414062 C 321.269531 250.875 321.75 250.292969 322.171875 249.660156 C 322.59375 249.03125 322.949219 248.363281 323.238281 247.664062 C 323.527344 246.964844 323.75 246.242188 323.894531 245.496094 C 324.042969 244.753906 324.117188 244 324.117188 243.242188 C 324.117188 242.484375 324.042969 241.734375 323.894531 240.988281 C 323.75 240.246094 323.527344 239.523438 323.238281 238.820312 C 322.949219 238.121094 322.59375 237.453125 322.171875 236.824219 C 321.75 236.191406 321.269531 235.609375 320.734375 235.074219 C 320.199219 234.535156 319.613281 234.058594 318.984375 233.636719 C 318.351562 233.214844 317.6875 232.859375 316.984375 232.566406 C 316.285156 232.277344 315.5625 232.058594 314.820312 231.910156 C 314.074219 231.761719 313.324219 231.6875 312.566406 231.6875 L 283.320312 231.6875 L 296.527344 185.472656 L 335.671875 185.472656 C 336.429688 185.472656 337.183594 185.402344 337.925781 185.253906 C 338.671875 185.105469 339.394531 184.886719 340.09375 184.597656 C 340.796875 184.304688 341.460938 183.949219 342.09375 183.527344 C 342.722656 183.105469 343.308594 182.628906 343.84375 182.09375 C 344.378906 181.554688 344.859375 180.972656 345.28125 180.339844 C 345.703125 179.710938 346.058594 179.042969 346.347656 178.34375 C 346.636719 177.640625 346.855469 176.917969 347.003906 176.175781 C 347.152344 175.429688 347.226562 174.679688 347.226562 173.921875 Z M 474.316406 289.457031 L 474.316406 393.441406 L 497.445312 393.441406 L 497.425781 289.457031 Z M 624.515625 301.011719 L 589.855469 301.011719 C 589.367188 301.011719 588.882812 300.980469 588.398438 300.917969 C 587.917969 300.859375 587.441406 300.765625 586.96875 300.644531 C 586.5 300.523438 586.035156 300.375 585.585938 300.195312 C 585.132812 300.015625 584.695312 299.808594 584.269531 299.570312 C 583.84375 299.335938 583.433594 299.074219 583.039062 298.789062 C 582.648438 298.503906 582.273438 298.191406 581.921875 297.859375 C 581.566406 297.523438 581.234375 297.167969 580.925781 296.792969 C 580.617188 296.417969 580.332031 296.023438 580.074219 295.613281 C 579.816406 295.199219 579.582031 294.773438 579.378906 294.332031 C 579.171875 293.890625 578.996094 293.4375 578.847656 292.976562 C 578.699219 292.511719 578.582031 292.042969 578.492188 291.5625 C 578.40625 291.085938 578.347656 290.601562 578.320312 290.117188 C 578.292969 289.632812 578.292969 289.144531 578.328125 288.660156 C 578.363281 288.175781 578.425781 287.695312 578.519531 287.21875 C 578.613281 286.738281 578.738281 286.269531 578.894531 285.808594 C 579.046875 285.347656 579.230469 284.898438 579.441406 284.457031 C 589.796875 262.863281 588.871094 244.347656 583.34375 235.582031 C 582.429688 234.125 580.558594 231.6875 578.300781 231.6875 C 576.652344 231.542969 575.042969 231.730469 573.472656 232.25 C 571.902344 232.769531 570.5 233.578125 569.261719 234.679688 C 568.328125 235.777344 567.636719 237.011719 567.199219 238.382812 C 566.757812 239.757812 566.601562 241.164062 566.722656 242.597656 C 566.609375 247.425781 566.035156 252.195312 565.003906 256.914062 C 563.972656 261.628906 562.503906 266.203125 560.597656 270.640625 C 558.691406 275.074219 556.382812 279.289062 553.667969 283.28125 C 550.953125 287.273438 547.886719 290.972656 544.460938 294.375 C 541.195312 298.015625 537.535156 301.207031 533.488281 303.949219 C 529.4375 306.695312 525.121094 308.910156 520.53125 310.601562 L 520.53125 376.605469 C 523.796875 379.21875 527.25 381.550781 530.894531 383.601562 C 534.539062 385.648438 538.328125 387.390625 542.257812 388.820312 C 546.183594 390.25 550.203125 391.355469 554.3125 392.128906 C 558.421875 392.90625 562.566406 393.34375 566.746094 393.441406 L 624.515625 393.441406 C 625.273438 393.441406 626.023438 393.367188 626.769531 393.21875 C 627.511719 393.070312 628.234375 392.851562 628.933594 392.558594 C 629.636719 392.269531 630.300781 391.914062 630.933594 391.492188 C 631.5625 391.070312 632.144531 390.589844 632.683594 390.054688 C 633.21875 389.519531 633.699219 388.933594 634.121094 388.304688 C 634.539062 387.671875 634.898438 387.007812 635.1875 386.308594 C 635.476562 385.605469 635.695312 384.882812 635.84375 384.140625 C 635.992188 383.398438 636.066406 382.644531 636.070312 381.886719 L 636.070312 312.566406 C 636.066406 311.804688 635.992188 311.054688 635.84375 310.3125 C 635.695312 309.566406 635.476562 308.84375 635.1875 308.144531 C 634.898438 307.445312 634.539062 306.777344 634.121094 306.148438 C 633.699219 305.515625 633.21875 304.933594 632.683594 304.398438 C 632.144531 303.859375 631.5625 303.382812 630.933594 302.960938 C 630.300781 302.539062 629.636719 302.183594 628.933594 301.894531 C 628.234375 301.601562 627.511719 301.382812 626.769531 301.234375 C 626.023438 301.085938 625.273438 301.011719 624.515625 301.011719 Z M 751.605469 220.136719 L 751.605469 404.996094 C 751.605469 406.886719 751.507812 408.773438 751.320312 410.65625 C 751.132812 412.535156 750.855469 414.40625 750.484375 416.261719 C 750.113281 418.113281 749.652344 419.945312 749.101562 421.757812 C 748.554688 423.566406 747.914062 425.34375 747.191406 427.089844 C 746.464844 428.839844 745.65625 430.546875 744.765625 432.214844 C 743.871094 433.878906 742.902344 435.5 741.847656 437.074219 C 740.796875 438.644531 739.671875 440.164062 738.472656 441.625 C 737.273438 443.085938 736.003906 444.484375 734.664062 445.824219 C 733.328125 447.160156 731.929688 448.429688 730.46875 449.628906 C 729.003906 450.828125 727.488281 451.957031 725.914062 453.007812 C 724.34375 454.058594 722.722656 455.03125 721.054688 455.921875 C 719.386719 456.8125 717.679688 457.621094 715.933594 458.347656 C 714.1875 459.074219 712.410156 459.710938 710.597656 460.261719 C 708.789062 460.8125 706.957031 461.269531 705.101562 461.640625 C 703.246094 462.011719 701.378906 462.292969 699.496094 462.480469 C 697.617188 462.667969 695.730469 462.761719 693.835938 462.761719 L 594.636719 462.761719 L 533.484375 523.917969 C 532.515625 524.886719 531.476562 525.78125 530.375 526.597656 C 529.273438 527.414062 528.121094 528.144531 526.910156 528.792969 C 525.699219 529.4375 524.449219 529.992188 523.15625 530.457031 C 521.867188 530.917969 520.546875 531.28125 519.203125 531.550781 C 517.859375 531.816406 516.5 531.984375 515.128906 532.050781 C 513.761719 532.121094 512.394531 532.085938 511.027344 531.949219 C 509.664062 531.816406 508.316406 531.582031 506.984375 531.25 C 505.652344 530.917969 504.355469 530.488281 503.089844 529.960938 C 501.820312 529.4375 500.597656 528.820312 499.421875 528.117188 C 498.246094 527.410156 497.128906 526.625 496.066406 525.753906 C 495.007812 524.882812 494.015625 523.941406 493.09375 522.925781 C 492.175781 521.90625 491.332031 520.828125 490.570312 519.6875 C 489.808594 518.550781 489.132812 517.359375 488.546875 516.117188 C 487.960938 514.878906 487.46875 513.601562 487.070312 512.289062 C 486.671875 510.976562 486.375 509.644531 486.171875 508.285156 C 485.972656 506.929688 485.871094 505.566406 485.871094 504.195312 L 485.871094 462.761719 L 416.546875 462.761719 C 414.65625 462.761719 412.769531 462.667969 410.886719 462.480469 C 409.007812 462.292969 407.136719 462.011719 405.28125 461.640625 C 403.429688 461.269531 401.597656 460.8125 399.785156 460.261719 C 397.976562 459.710938 396.199219 459.074219 394.453125 458.347656 C 392.703125 457.621094 390.996094 456.8125 389.328125 455.921875 C 387.660156 455.03125 386.042969 454.058594 384.46875 453.007812 C 382.898438 451.957031 381.378906 450.828125 379.917969 449.628906 C 378.457031 448.429688 377.058594 447.160156 375.71875 445.824219 C 374.382812 444.484375 373.113281 443.085938 371.914062 441.625 C 370.714844 440.164062 369.585938 438.644531 368.535156 437.074219 C 367.484375 435.5 366.511719 433.878906 365.621094 432.214844 C 364.730469 430.546875 363.921875 428.839844 363.195312 427.089844 C 362.46875 425.34375 361.832031 423.566406 361.28125 421.757812 C 360.730469 419.945312 360.273438 418.113281 359.902344 416.261719 C 359.53125 414.40625 359.25 412.535156 359.0625 410.65625 C 358.875 408.773438 358.78125 406.886719 358.78125 404.996094 L 358.78125 220.136719 C 358.78125 218.242188 358.875 216.355469 359.0625 214.476562 C 359.25 212.59375 359.53125 210.722656 359.902344 208.871094 C 360.273438 207.015625 360.730469 205.183594 361.28125 203.375 C 361.832031 201.5625 362.46875 199.785156 363.195312 198.039062 C 363.917969 196.292969 364.726562 194.585938 365.621094 192.917969 C 366.511719 191.25 367.484375 189.628906 368.535156 188.058594 C 369.585938 186.484375 370.714844 184.96875 371.914062 183.503906 C 373.113281 182.042969 374.382812 180.644531 375.71875 179.304688 C 377.058594 177.96875 378.457031 176.699219 379.917969 175.5 C 381.378906 174.300781 382.898438 173.175781 384.46875 172.125 C 386.042969 171.070312 387.660156 170.101562 389.328125 169.207031 C 390.996094 168.316406 392.703125 167.507812 394.453125 166.78125 C 396.199219 166.058594 397.976562 165.417969 399.785156 164.871094 C 401.597656 164.320312 403.429688 163.859375 405.28125 163.488281 C 407.136719 163.117188 409.007812 162.839844 410.886719 162.652344 C 412.769531 162.464844 414.65625 162.367188 416.546875 162.367188 L 693.835938 162.367188 C 695.730469 162.367188 697.617188 162.464844 699.496094 162.652344 C 701.378906 162.839844 703.246094 163.117188 705.101562 163.488281 C 706.957031 163.859375 708.789062 164.320312 710.597656 164.871094 C 712.410156 165.417969 714.1875 166.058594 715.933594 166.78125 C 717.679688 167.507812 719.386719 168.316406 721.054688 169.207031 C 722.722656 170.101562 724.34375 171.070312 725.914062 172.125 C 727.488281 173.175781 729.003906 174.300781 730.46875 175.5 C 731.929688 176.699219 733.328125 177.96875 734.664062 179.304688 C 736.003906 180.644531 737.273438 182.042969 738.472656 183.503906 C 739.671875 184.96875 740.796875 186.484375 741.847656 188.058594 C 742.902344 189.628906 743.871094 191.25 744.765625 192.917969 C 745.65625 194.585938 746.464844 196.292969 747.191406 198.039062 C 747.914062 199.785156 748.554688 201.5625 749.101562 203.375 C 749.652344 205.183594 750.113281 207.015625 750.484375 208.871094 C 750.855469 210.722656 751.132812 212.59375 751.320312 214.476562 C 751.507812 216.355469 751.605469 218.242188 751.605469 220.136719 Z M 659.175781 312.566406 C 659.175781 311.429688 659.117188 310.296875 659.003906 309.167969 C 658.894531 308.039062 658.726562 306.917969 658.503906 305.804688 C 658.28125 304.691406 658.003906 303.59375 657.675781 302.507812 C 657.34375 301.421875 656.960938 300.355469 656.527344 299.304688 C 656.09375 298.257812 655.609375 297.234375 655.070312 296.234375 C 654.535156 295.234375 653.953125 294.261719 653.324219 293.316406 C 652.691406 292.375 652.015625 291.464844 651.296875 290.585938 C 650.578125 289.710938 649.816406 288.871094 649.011719 288.066406 C 648.210938 287.265625 647.371094 286.503906 646.492188 285.78125 C 645.617188 285.0625 644.707031 284.386719 643.761719 283.757812 C 642.820312 283.125 641.847656 282.542969 640.847656 282.007812 C 639.847656 281.472656 638.820312 280.988281 637.773438 280.550781 C 636.726562 280.117188 635.65625 279.734375 634.574219 279.40625 C 633.488281 279.074219 632.386719 278.796875 631.273438 278.574219 C 630.160156 278.355469 629.039062 278.1875 627.910156 278.074219 C 626.78125 277.960938 625.648438 277.90625 624.515625 277.902344 L 606.675781 277.902344 C 607.476562 275.691406 608.160156 273.445312 608.722656 271.164062 C 609.289062 268.882812 609.734375 266.578125 610.0625 264.25 C 610.386719 261.921875 610.59375 259.582031 610.675781 257.234375 C 610.757812 254.882812 610.71875 252.535156 610.554688 250.191406 C 610.394531 247.84375 610.113281 245.515625 609.707031 243.199219 C 609.300781 240.882812 608.777344 238.59375 608.136719 236.332031 C 607.492188 234.070312 606.734375 231.847656 605.863281 229.664062 C 604.988281 227.484375 604.003906 225.351562 602.90625 223.273438 C 602.285156 222.1875 601.597656 221.148438 600.84375 220.148438 C 600.089844 219.152344 599.273438 218.210938 598.398438 217.316406 C 597.523438 216.425781 596.59375 215.59375 595.613281 214.820312 C 594.628906 214.050781 593.601562 213.34375 592.527344 212.703125 C 591.457031 212.0625 590.347656 211.492188 589.199219 210.992188 C 588.054688 210.496094 586.878906 210.074219 585.679688 209.726562 C 584.480469 209.378906 583.261719 209.109375 582.027344 208.917969 C 580.792969 208.726562 579.550781 208.613281 578.300781 208.582031 C 575.910156 208.480469 573.535156 208.628906 571.175781 209.027344 C 568.820312 209.425781 566.527344 210.066406 564.300781 210.945312 C 562.078125 211.824219 559.96875 212.925781 557.976562 214.246094 C 555.984375 215.570312 554.148438 217.085938 552.472656 218.792969 C 550.929688 220.476562 549.566406 222.300781 548.394531 224.257812 C 547.21875 226.21875 546.25 228.277344 545.492188 230.433594 C 544.738281 232.59375 544.203125 234.800781 543.894531 237.066406 C 543.585938 239.332031 543.507812 241.605469 543.660156 243.886719 C 543.417969 247.132812 542.886719 250.328125 542.070312 253.480469 C 541.25 256.628906 540.160156 259.683594 538.796875 262.636719 C 537.429688 265.59375 535.8125 268.402344 533.945312 271.070312 C 532.078125 273.734375 529.984375 276.210938 527.671875 278.5 C 525.371094 280.929688 522.839844 283.089844 520.078125 284.984375 C 519.820312 283.683594 519.453125 282.414062 518.976562 281.175781 C 518.5 279.9375 517.921875 278.746094 517.238281 277.609375 C 516.558594 276.46875 515.785156 275.398438 514.917969 274.390625 C 514.054688 273.386719 513.109375 272.460938 512.082031 271.617188 C 511.058594 270.777344 509.96875 270.027344 508.8125 269.371094 C 507.660156 268.714844 506.460938 268.164062 505.210938 267.714844 C 503.960938 267.265625 502.683594 266.925781 501.375 266.695312 C 500.070312 266.46875 498.75 266.351562 497.425781 266.351562 L 474.316406 266.351562 C 473.558594 266.351562 472.804688 266.390625 472.050781 266.464844 C 471.300781 266.539062 470.550781 266.652344 469.8125 266.800781 C 469.070312 266.945312 468.335938 267.132812 467.613281 267.351562 C 466.886719 267.570312 466.175781 267.828125 465.476562 268.117188 C 464.78125 268.40625 464.097656 268.730469 463.429688 269.085938 C 462.761719 269.445312 462.113281 269.832031 461.484375 270.253906 C 460.855469 270.675781 460.25 271.125 459.664062 271.605469 C 459.082031 272.085938 458.519531 272.589844 457.984375 273.125 C 457.449219 273.660156 456.945312 274.222656 456.464844 274.804688 C 455.984375 275.390625 455.535156 275.996094 455.113281 276.625 C 454.691406 277.253906 454.304688 277.902344 453.945312 278.570312 C 453.589844 279.238281 453.265625 279.921875 452.976562 280.621094 C 452.6875 281.316406 452.429688 282.027344 452.210938 282.753906 C 451.992188 283.476562 451.804688 284.210938 451.660156 284.953125 C 451.511719 285.691406 451.398438 286.441406 451.324219 287.195312 C 451.25 287.945312 451.210938 288.699219 451.210938 289.457031 L 451.210938 393.441406 C 451.210938 394.199219 451.25 394.953125 451.324219 395.703125 C 451.398438 396.457031 451.511719 397.203125 451.660156 397.945312 C 451.804688 398.6875 451.992188 399.421875 452.210938 400.144531 C 452.429688 400.867188 452.6875 401.582031 452.976562 402.277344 C 453.265625 402.976562 453.589844 403.660156 453.945312 404.328125 C 454.304688 404.996094 454.691406 405.640625 455.113281 406.269531 C 455.535156 406.898438 455.984375 407.507812 456.464844 408.09375 C 456.945312 408.675781 457.449219 409.238281 457.984375 409.769531 C 458.519531 410.304688 459.082031 410.8125 459.664062 411.292969 C 460.25 411.773438 460.855469 412.222656 461.484375 412.644531 C 462.113281 413.066406 462.761719 413.453125 463.429688 413.8125 C 464.097656 414.167969 464.78125 414.492188 465.476562 414.78125 C 466.175781 415.070312 466.886719 415.328125 467.613281 415.546875 C 468.335938 415.765625 469.070312 415.949219 469.8125 416.097656 C 470.550781 416.246094 471.300781 416.359375 472.050781 416.433594 C 472.804688 416.507812 473.558594 416.546875 474.316406 416.546875 L 497.425781 416.546875 C 498.527344 416.546875 499.621094 416.464844 500.710938 416.304688 C 501.800781 416.144531 502.875 415.910156 503.929688 415.597656 C 504.988281 415.28125 506.015625 414.898438 507.015625 414.4375 C 508.015625 413.976562 508.980469 413.445312 509.90625 412.847656 C 510.832031 412.25 511.710938 411.589844 512.539062 410.867188 C 513.371094 410.144531 514.144531 409.363281 514.863281 408.53125 C 515.582031 407.695312 516.238281 406.816406 516.832031 405.886719 C 517.425781 404.957031 517.949219 403.992188 518.40625 402.988281 C 522.046875 405.164062 525.8125 407.085938 529.707031 408.757812 C 533.601562 410.433594 537.589844 411.84375 541.671875 412.988281 C 545.753906 414.132812 549.894531 415.003906 554.089844 415.597656 C 558.289062 416.195312 562.507812 416.511719 566.746094 416.546875 L 624.515625 416.546875 C 625.648438 416.546875 626.78125 416.488281 627.910156 416.378906 C 629.039062 416.265625 630.160156 416.097656 631.273438 415.875 C 632.386719 415.652344 633.488281 415.378906 634.574219 415.046875 C 635.65625 414.71875 636.726562 414.335938 637.773438 413.898438 C 638.820312 413.464844 639.847656 412.980469 640.847656 412.445312 C 641.847656 411.910156 642.820312 411.324219 643.761719 410.695312 C 644.707031 410.0625 645.617188 409.390625 646.492188 408.667969 C 647.371094 407.949219 648.210938 407.1875 649.011719 406.386719 C 649.816406 405.582031 650.578125 404.742188 651.296875 403.867188 C 652.015625 402.988281 652.691406 402.078125 653.324219 401.136719 C 653.953125 400.191406 654.535156 399.21875 655.070312 398.21875 C 655.609375 397.21875 656.09375 396.195312 656.527344 395.144531 C 656.960938 394.097656 657.34375 393.03125 657.675781 391.945312 C 658.003906 390.859375 658.28125 389.757812 658.503906 388.644531 C 658.726562 387.535156 658.894531 386.414062 659.003906 385.285156 C 659.117188 384.152344 659.175781 383.023438 659.175781 381.886719 Z M 139.257812 670.730469 C 131.464844 670.714844 123.761719 669.867188 116.152344 668.1875 L 116.152344 711.167969 C 116.152344 712.492188 116.214844 713.8125 116.347656 715.132812 C 116.476562 716.449219 116.671875 717.757812 116.929688 719.058594 C 117.1875 720.355469 117.507812 721.640625 117.894531 722.90625 C 118.277344 724.171875 118.722656 725.417969 119.230469 726.644531 C 119.738281 727.867188 120.300781 729.0625 120.925781 730.230469 C 121.550781 731.398438 122.230469 732.53125 122.964844 733.632812 C 123.703125 734.734375 124.492188 735.796875 125.332031 736.820312 C 126.171875 737.84375 127.058594 738.824219 127.996094 739.761719 C 128.933594 740.699219 129.914062 741.585938 130.9375 742.425781 C 131.960938 743.265625 133.023438 744.054688 134.125 744.789062 C 135.226562 745.527344 136.359375 746.207031 137.527344 746.832031 C 138.695312 747.457031 139.890625 748.019531 141.113281 748.527344 C 142.339844 749.035156 143.582031 749.480469 144.851562 749.863281 C 146.117188 750.25 147.402344 750.570312 148.699219 750.828125 C 150 751.085938 151.308594 751.28125 152.625 751.410156 C 153.945312 751.539062 155.265625 751.605469 156.589844 751.605469 C 157.914062 751.605469 159.234375 751.539062 160.554688 751.410156 C 161.871094 751.28125 163.179688 751.085938 164.480469 750.828125 C 165.777344 750.570312 167.0625 750.25 168.328125 749.863281 C 169.59375 749.480469 170.839844 749.035156 172.066406 748.527344 C 173.289062 748.019531 174.484375 747.457031 175.652344 746.832031 C 176.820312 746.207031 177.953125 745.527344 179.054688 744.789062 C 180.15625 744.054688 181.21875 743.265625 182.242188 742.425781 C 183.265625 741.585938 184.246094 740.699219 185.183594 739.761719 C 186.121094 738.824219 187.007812 737.84375 187.847656 736.820312 C 188.6875 735.796875 189.476562 734.734375 190.210938 733.632812 C 190.949219 732.53125 191.628906 731.398438 192.253906 730.230469 C 192.878906 729.0625 193.441406 727.867188 193.949219 726.644531 C 194.457031 725.417969 194.902344 724.171875 195.285156 722.90625 C 195.671875 721.640625 195.992188 720.355469 196.25 719.058594 C 196.507812 717.757812 196.703125 716.449219 196.832031 715.132812 C 196.960938 713.8125 197.027344 712.492188 197.027344 711.167969 L 197.027344 671.078125 C 193.332031 670.84375 189.402344 670.730469 185.472656 670.730469 Z M 358.78125 526.769531 L 358.78125 606.722656 C 360.527344 605.714844 362.203125 604.597656 363.804688 603.371094 C 365.40625 602.144531 366.921875 600.816406 368.351562 599.390625 C 369.777344 597.964844 371.105469 596.453125 372.335938 594.855469 C 373.566406 593.253906 374.683594 591.582031 375.695312 589.832031 C 376.703125 588.085938 377.597656 586.28125 378.367188 584.417969 C 379.140625 582.554688 379.789062 580.648438 380.3125 578.699219 C 380.835938 576.75 381.226562 574.773438 381.492188 572.773438 C 381.753906 570.773438 381.886719 568.765625 381.886719 566.746094 C 381.886719 564.730469 381.753906 562.71875 381.492188 560.71875 C 381.226562 558.71875 380.835938 556.742188 380.3125 554.792969 C 379.789062 552.847656 379.140625 550.941406 378.367188 549.074219 C 377.597656 547.210938 376.703125 545.40625 375.695312 543.660156 C 374.683594 541.914062 373.566406 540.238281 372.335938 538.640625 C 371.105469 537.039062 369.777344 535.527344 368.351562 534.101562 C 366.921875 532.675781 365.40625 531.347656 363.804688 530.121094 C 362.203125 528.894531 360.527344 527.777344 358.78125 526.769531 Z M 451.210938 555.191406 L 416.546875 555.191406 C 415.789062 555.191406 415.039062 555.265625 414.292969 555.414062 C 413.550781 555.5625 412.828125 555.78125 412.125 556.070312 C 411.425781 556.363281 410.761719 556.71875 410.128906 557.140625 C 409.5 557.5625 408.914062 558.039062 408.378906 558.578125 C 407.84375 559.113281 407.363281 559.695312 406.941406 560.328125 C 406.519531 560.957031 406.164062 561.625 405.875 562.324219 C 405.582031 563.027344 405.363281 563.75 405.214844 564.492188 C 405.070312 565.238281 404.996094 565.988281 404.996094 566.746094 C 404.996094 567.503906 405.070312 568.257812 405.214844 569 C 405.363281 569.746094 405.582031 570.46875 405.875 571.167969 C 406.164062 571.867188 406.519531 572.535156 406.941406 573.164062 C 407.363281 573.796875 407.84375 574.378906 408.378906 574.917969 C 408.914062 575.453125 409.5 575.929688 410.128906 576.351562 C 410.761719 576.773438 411.425781 577.128906 412.125 577.421875 C 412.828125 577.710938 413.550781 577.929688 414.292969 578.078125 C 415.039062 578.226562 415.789062 578.300781 416.546875 578.300781 L 451.210938 578.300781 C 451.96875 578.300781 452.71875 578.226562 453.464844 578.078125 C 454.207031 577.929688 454.929688 577.710938 455.628906 577.421875 C 456.332031 577.128906 456.996094 576.773438 457.628906 576.351562 C 458.257812 575.929688 458.84375 575.453125 459.378906 574.917969 C 459.914062 574.378906 460.394531 573.796875 460.816406 573.164062 C 461.238281 572.535156 461.59375 571.867188 461.882812 571.167969 C 462.171875 570.46875 462.394531 569.746094 462.539062 569 C 462.6875 568.257812 462.761719 567.503906 462.761719 566.746094 C 462.761719 565.988281 462.6875 565.238281 462.539062 564.492188 C 462.394531 563.75 462.171875 563.027344 461.882812 562.324219 C 461.59375 561.625 461.238281 560.957031 460.816406 560.328125 C 460.394531 559.695312 459.914062 559.113281 459.378906 558.578125 C 458.84375 558.039062 458.257812 557.5625 457.628906 557.140625 C 456.996094 556.71875 456.332031 556.363281 455.628906 556.070312 C 454.929688 555.78125 454.207031 555.5625 453.464844 555.414062 C 452.71875 555.265625 451.96875 555.191406 451.210938 555.191406 Z M 454.863281 613.558594 L 420.203125 602.003906 C 419.484375 601.761719 418.746094 601.59375 417.992188 601.496094 C 417.242188 601.398438 416.484375 601.378906 415.726562 601.429688 C 414.96875 601.480469 414.222656 601.609375 413.492188 601.808594 C 412.757812 602.007812 412.050781 602.273438 411.371094 602.613281 C 410.691406 602.953125 410.050781 603.355469 409.449219 603.820312 C 408.851562 604.285156 408.300781 604.804688 407.804688 605.375 C 407.304688 605.949219 406.867188 606.566406 406.492188 607.226562 C 406.113281 607.886719 405.804688 608.574219 405.566406 609.296875 C 405.324219 610.015625 405.15625 610.753906 405.0625 611.507812 C 404.96875 612.261719 404.945312 613.015625 405 613.773438 C 405.054688 614.53125 405.183594 615.277344 405.382812 616.007812 C 405.585938 616.742188 405.855469 617.449219 406.195312 618.125 C 406.535156 618.804688 406.9375 619.445312 407.40625 620.042969 C 407.871094 620.644531 408.394531 621.191406 408.96875 621.6875 C 409.542969 622.1875 410.160156 622.621094 410.820312 622.996094 C 411.480469 623.371094 412.171875 623.679688 412.890625 623.917969 L 447.554688 635.46875 C 448.273438 635.707031 449.007812 635.875 449.757812 635.96875 C 450.511719 636.0625 451.261719 636.078125 452.019531 636.023438 C 452.773438 635.96875 453.515625 635.84375 454.246094 635.640625 C 454.976562 635.441406 455.679688 635.171875 456.355469 634.832031 C 457.035156 634.492188 457.671875 634.089844 458.269531 633.625 C 458.867188 633.160156 459.414062 632.644531 459.910156 632.070312 C 460.40625 631.5 460.839844 630.882812 461.214844 630.226562 C 461.589844 629.566406 461.898438 628.878906 462.136719 628.160156 C 462.378906 627.445312 462.542969 626.707031 462.640625 625.957031 C 462.734375 625.207031 462.757812 624.453125 462.703125 623.699219 C 462.648438 622.941406 462.523438 622.199219 462.324219 621.46875 C 462.125 620.738281 461.859375 620.035156 461.519531 619.355469 C 461.183594 618.679688 460.78125 618.039062 460.320312 617.441406 C 459.855469 616.84375 459.339844 616.292969 458.769531 615.796875 C 458.199219 615.300781 457.582031 614.863281 456.925781 614.488281 C 456.269531 614.109375 455.582031 613.800781 454.863281 613.558594 Z M 416.546875 532.085938 C 417.800781 532.085938 419.019531 531.886719 420.203125 531.488281 L 454.863281 519.933594 C 455.585938 519.695312 456.277344 519.386719 456.9375 519.011719 C 457.597656 518.636719 458.214844 518.203125 458.789062 517.707031 C 459.363281 517.207031 459.886719 516.660156 460.351562 516.0625 C 460.816406 515.460938 461.222656 514.824219 461.5625 514.144531 C 461.902344 513.464844 462.171875 512.757812 462.375 512.027344 C 462.574219 511.292969 462.703125 510.546875 462.757812 509.792969 C 462.8125 509.035156 462.789062 508.277344 462.695312 507.523438 C 462.601562 506.769531 462.433594 506.035156 462.191406 505.3125 C 461.953125 504.59375 461.644531 503.902344 461.265625 503.242188 C 460.890625 502.582031 460.453125 501.964844 459.953125 501.394531 C 459.457031 500.820312 458.90625 500.300781 458.304688 499.835938 C 457.707031 499.371094 457.066406 498.96875 456.386719 498.628906 C 455.707031 498.292969 455 498.023438 454.265625 497.824219 C 453.535156 497.625 452.789062 497.5 452.03125 497.445312 C 451.273438 497.394531 450.515625 497.417969 449.761719 497.511719 C 449.011719 497.609375 448.273438 497.78125 447.554688 498.023438 L 412.890625 509.574219 C 412.246094 509.792969 411.625 510.0625 411.027344 510.386719 C 410.429688 510.710938 409.867188 511.085938 409.335938 511.511719 C 408.804688 511.9375 408.3125 512.40625 407.867188 512.917969 C 407.417969 513.429688 407.015625 513.972656 406.664062 514.558594 C 406.3125 515.140625 406.015625 515.746094 405.769531 516.382812 C 405.527344 517.015625 405.339844 517.667969 405.210938 518.335938 C 405.082031 519.003906 405.011719 519.675781 405 520.359375 C 404.988281 521.039062 405.039062 521.714844 405.148438 522.386719 C 405.257812 523.054688 405.425781 523.714844 405.648438 524.355469 C 405.875 524.996094 406.15625 525.613281 406.488281 526.207031 C 406.824219 526.800781 407.207031 527.359375 407.636719 527.882812 C 408.070312 528.40625 408.546875 528.890625 409.066406 529.332031 C 409.582031 529.773438 410.136719 530.164062 410.722656 530.507812 C 411.308594 530.851562 411.921875 531.140625 412.5625 531.375 C 413.199219 531.609375 413.855469 531.785156 414.523438 531.90625 C 415.191406 532.023438 415.867188 532.085938 416.546875 532.085938 Z M 173.921875 647.621094 L 173.921875 485.871094 L 139.257812 485.871094 C 137.933594 485.871094 136.613281 485.902344 135.289062 485.96875 C 133.96875 486.03125 132.648438 486.128906 131.332031 486.261719 C 130.015625 486.390625 128.703125 486.550781 127.390625 486.746094 C 126.082031 486.941406 124.777344 487.167969 123.480469 487.425781 C 122.183594 487.683594 120.890625 487.972656 119.609375 488.292969 C 118.324219 488.617188 117.046875 488.96875 115.78125 489.351562 C 114.515625 489.738281 113.257812 490.152344 112.011719 490.597656 C 110.765625 491.042969 109.53125 491.519531 108.308594 492.027344 C 107.085938 492.535156 105.875 493.070312 104.679688 493.636719 C 103.484375 494.203125 102.300781 494.796875 101.132812 495.421875 C 99.96875 496.042969 98.816406 496.695312 97.679688 497.375 C 96.546875 498.058594 95.425781 498.765625 94.328125 499.5 C 93.226562 500.234375 92.144531 500.996094 91.082031 501.785156 C 90.019531 502.574219 88.976562 503.390625 87.953125 504.226562 C 86.929688 505.066406 85.925781 505.933594 84.945312 506.820312 C 83.964844 507.710938 83.007812 508.621094 82.070312 509.558594 C 81.136719 510.496094 80.222656 511.453125 79.332031 512.433594 C 78.445312 513.414062 77.582031 514.417969 76.742188 515.4375 C 75.902344 516.460938 75.085938 517.503906 74.300781 518.570312 C 73.511719 519.632812 72.75 520.714844 72.011719 521.8125 C 71.277344 522.914062 70.570312 524.03125 69.890625 525.167969 C 69.210938 526.304688 68.558594 527.453125 67.933594 528.621094 C 67.308594 529.789062 66.714844 530.972656 66.148438 532.167969 C 65.582031 533.363281 65.046875 534.574219 64.539062 535.796875 C 64.03125 537.019531 63.558594 538.253906 63.109375 539.5 C 62.664062 540.746094 62.25 542.003906 61.867188 543.269531 C 61.480469 544.535156 61.128906 545.8125 60.808594 547.09375 C 60.484375 548.378906 60.195312 549.671875 59.9375 550.96875 C 59.679688 552.265625 59.453125 553.570312 59.257812 554.878906 C 59.0625 556.1875 58.902344 557.503906 58.773438 558.820312 C 58.644531 560.136719 58.546875 561.457031 58.480469 562.777344 C 58.414062 564.101562 58.382812 565.421875 58.382812 566.746094 C 58.382812 568.070312 58.414062 569.394531 58.480469 570.714844 C 58.546875 572.035156 58.644531 573.355469 58.773438 574.671875 C 58.902344 575.992188 59.0625 577.304688 59.257812 578.613281 C 59.453125 579.921875 59.679688 581.226562 59.9375 582.523438 C 60.195312 583.824219 60.484375 585.113281 60.808594 586.398438 C 61.128906 587.679688 61.480469 588.957031 61.867188 590.222656 C 62.25 591.488281 62.664062 592.746094 63.109375 593.992188 C 63.558594 595.238281 64.03125 596.472656 64.539062 597.695312 C 65.046875 598.917969 65.582031 600.128906 66.148438 601.324219 C 66.714844 602.523438 67.308594 603.703125 67.933594 604.871094 C 68.558594 606.039062 69.210938 607.191406 69.890625 608.324219 C 70.570312 609.460938 71.277344 610.578125 72.011719 611.679688 C 72.75 612.777344 73.511719 613.859375 74.300781 614.925781 C 75.085938 615.988281 75.902344 617.03125 76.742188 618.054688 C 77.582031 619.078125 78.445312 620.078125 79.332031 621.058594 C 80.222656 622.039062 81.136719 623 82.070312 623.933594 C 83.007812 624.871094 83.964844 625.78125 84.945312 626.671875 C 85.925781 627.558594 86.929688 628.425781 87.953125 629.265625 C 88.976562 630.105469 90.019531 630.917969 91.082031 631.707031 C 92.144531 632.496094 93.226562 633.257812 94.328125 633.992188 C 95.425781 634.726562 96.546875 635.433594 97.679688 636.117188 C 98.816406 636.796875 99.96875 637.449219 101.132812 638.074219 C 102.300781 638.695312 103.484375 639.292969 104.679688 639.855469 C 105.875 640.421875 107.085938 640.960938 108.308594 641.464844 C 109.53125 641.972656 110.765625 642.449219 112.011719 642.894531 C 113.257812 643.339844 114.515625 643.753906 115.78125 644.140625 C 117.046875 644.523438 118.324219 644.875 119.609375 645.199219 C 120.890625 645.519531 122.183594 645.808594 123.480469 646.066406 C 124.777344 646.328125 126.082031 646.550781 127.390625 646.746094 C 128.703125 646.941406 130.015625 647.101562 131.332031 647.234375 C 132.648438 647.363281 133.96875 647.460938 135.289062 647.523438 C 136.613281 647.589844 137.933594 647.621094 139.257812 647.621094 Z M 327.253906 428.574219 C 326.652344 428.410156 326.042969 428.289062 325.417969 428.222656 C 324.796875 428.152344 324.175781 428.132812 323.550781 428.164062 C 322.925781 428.195312 322.308594 428.277344 321.699219 428.410156 C 321.085938 428.539062 320.488281 428.71875 319.90625 428.945312 C 319.324219 429.171875 318.765625 429.445312 318.226562 429.761719 C 317.6875 430.078125 317.175781 430.433594 316.695312 430.835938 C 316.214844 431.234375 315.769531 431.667969 315.359375 432.140625 C 314.945312 432.609375 314.574219 433.109375 314.246094 433.640625 C 312.992188 435.683594 283.367188 481.617188 197.027344 485.492188 L 197.027344 648 C 283.367188 651.875 312.992188 697.804688 314.210938 699.785156 C 314.535156 700.320312 314.898438 700.828125 315.304688 701.308594 C 315.710938 701.785156 316.152344 702.230469 316.628906 702.636719 C 317.109375 703.042969 317.617188 703.410156 318.152344 703.730469 C 318.691406 704.054688 319.25 704.335938 319.832031 704.566406 C 320.414062 704.800781 321.015625 704.984375 321.625 705.121094 C 322.238281 705.253906 322.859375 705.339844 323.484375 705.375 C 324.113281 705.410156 324.738281 705.390625 325.359375 705.324219 C 325.984375 705.257812 326.597656 705.140625 327.203125 704.972656 C 327.808594 704.804688 328.394531 704.589844 328.964844 704.324219 C 329.535156 704.0625 330.078125 703.753906 330.597656 703.402344 C 331.117188 703.050781 331.605469 702.660156 332.0625 702.226562 C 332.515625 701.796875 332.933594 701.332031 333.316406 700.832031 C 333.695312 700.332031 334.03125 699.804688 334.324219 699.25 C 334.621094 698.695312 334.867188 698.121094 335.066406 697.527344 C 335.265625 696.933594 335.417969 696.328125 335.519531 695.707031 C 335.621094 695.089844 335.671875 694.464844 335.671875 693.835938 L 335.671875 439.65625 C 335.671875 439.03125 335.621094 438.414062 335.515625 437.796875 C 335.414062 437.179688 335.265625 436.578125 335.066406 435.988281 C 334.867188 435.398438 334.621094 434.824219 334.328125 434.273438 C 334.035156 433.722656 333.699219 433.199219 333.324219 432.703125 C 332.945312 432.207031 332.53125 431.742188 332.078125 431.3125 C 331.625 430.886719 331.140625 430.496094 330.625 430.144531 C 330.109375 429.792969 329.570312 429.484375 329.003906 429.222656 C 328.4375 428.960938 327.855469 428.742188 327.253906 428.574219 Z M 327.253906 428.574219 " fill-opacity="1" fill-rule="nonzero"/></g></svg>