<svg xmlns="http://www.w3.org/2000/svg" xmlns:xlink="http://www.w3.org/1999/xlink" width="1080" zoomAndPan="magnify" viewBox="0 0 810 404.99999" height="540" preserveAspectRatio="xMidYMid meet" version="1.0"><defs><g/><clipPath id="e439d5b2c2"><path d="M 12 111 L 194 111 L 194 293 L 12 293 Z M 12 111 " clip-rule="nonzero"/></clipPath><clipPath id="86eaa53ab2"><path d="M 102.84375 22.488281 L 282.625 202.273438 L 102.84375 382.054688 L -76.941406 202.273438 Z M 102.84375 22.488281 " clip-rule="nonzero"/></clipPath><clipPath id="b821375d1d"><path d="M 102.84375 22.488281 L 282.625 202.273438 L 102.84375 382.054688 L -76.941406 202.273438 Z M 102.84375 22.488281 " clip-rule="nonzero"/></clipPath><clipPath id="35a9b0156a"><path d="M 102.84375 22.488281 L 282.625 202.273438 L 102.84375 382.054688 L -76.941406 202.273438 Z M 102.84375 22.488281 " clip-rule="nonzero"/></clipPath></defs><g clip-path="url(#e439d5b2c2)"><g clip-path="url(#86eaa53ab2)"><g clip-path="url(#b821375d1d)"><g clip-path="url(#35a9b0156a)"><path fill="#0d1117" d="M 192.785156 116.925781 L 153.945312 191.609375 C 150.46875 198.292969 150.46875 206.25 153.945312 212.9375 L 192.785156 287.617188 C 194.324219 290.574219 191.144531 293.75 188.1875 292.214844 L 113.507812 253.375 C 106.820312 249.898438 98.863281 249.898438 92.179688 253.375 L 17.496094 292.214844 C 14.539062 293.75 11.363281 290.574219 12.898438 287.617188 L 51.738281 212.933594 C 55.214844 206.25 55.214844 198.292969 51.738281 191.609375 L 12.898438 116.925781 C 11.363281 113.96875 14.539062 110.792969 17.496094 112.328125 L 92.179688 151.167969 C 98.863281 154.644531 106.820312 154.644531 113.503906 151.167969 L 188.1875 112.328125 C 191.144531 110.792969 194.324219 113.96875 192.785156 116.925781 " fill-opacity="1" fill-rule="nonzero"/></g></g></g></g><g fill="#000000" fill-opacity="1"><g transform="translate(259.279358, 247.535097)"><g><path d="M 134 -91.5 L 110.140625 0 L 83.15625 0 L 68.5625 -60.21875 L 53.4375 0 L 26.453125 0 L 3.265625 -91.5 L 27.109375 -91.5 L 40.28125 -24.890625 L 56.5625 -91.5 L 81.078125 -91.5 L 96.71875 -24.890625 L 110.015625 -91.5 Z M 134 -91.5 "/></g></g></g><g fill="#000000" fill-opacity="1"><g transform="translate(396.40334, 247.535097)"><g><path d="M 19.296875 -80.296875 C 15.378906 -80.296875 12.179688 -81.445312 9.703125 -83.75 C 7.234375 -86.050781 6 -88.894531 6 -92.28125 C 6 -95.757812 7.234375 -98.648438 9.703125 -100.953125 C 12.179688 -103.253906 15.378906 -104.40625 19.296875 -104.40625 C 23.117188 -104.40625 26.265625 -103.253906 28.734375 -100.953125 C 31.210938 -98.648438 32.453125 -95.757812 32.453125 -92.28125 C 32.453125 -88.894531 31.210938 -86.050781 28.734375 -83.75 C 26.265625 -81.445312 23.117188 -80.296875 19.296875 -80.296875 Z M 30.375 -72.734375 L 30.375 0 L 8.078125 0 L 8.078125 -72.734375 Z M 30.375 -72.734375 "/></g></g></g><g fill="#000000" fill-opacity="1"><g transform="translate(434.855407, 247.535097)"><g><path d="M 28.9375 -18.375 L 60.484375 -18.375 L 60.484375 0 L 4.046875 0 L 4.046875 -17.734375 L 34.28125 -54.359375 L 4.296875 -54.359375 L 4.296875 -72.734375 L 59.828125 -72.734375 L 59.828125 -55 Z M 28.9375 -18.375 "/></g></g></g><g fill="#000000" fill-opacity="1"><g transform="translate(499.507024, 247.535097)"><g><path d="M 3.65625 -36.5 C 3.65625 -43.96875 5.066406 -50.523438 7.890625 -56.171875 C 10.710938 -61.828125 14.554688 -66.175781 19.421875 -69.21875 C 24.285156 -72.257812 29.71875 -73.78125 35.71875 -73.78125 C 40.84375 -73.78125 45.335938 -72.734375 49.203125 -70.640625 C 53.066406 -68.554688 56.046875 -65.820312 58.140625 -62.4375 L 58.140625 -72.734375 L 80.421875 -72.734375 L 80.421875 0 L 58.140625 0 L 58.140625 -10.296875 C 55.960938 -6.910156 52.941406 -4.171875 49.078125 -2.078125 C 45.210938 0.00390625 40.710938 1.046875 35.578125 1.046875 C 29.671875 1.046875 24.285156 -0.492188 19.421875 -3.578125 C 14.554688 -6.671875 10.710938 -11.0625 7.890625 -16.75 C 5.066406 -22.4375 3.65625 -29.019531 3.65625 -36.5 Z M 58.140625 -36.359375 C 58.140625 -41.921875 56.59375 -46.3125 53.5 -49.53125 C 50.414062 -52.75 46.660156 -54.359375 42.234375 -54.359375 C 37.796875 -54.359375 34.035156 -52.769531 30.953125 -49.59375 C 27.867188 -46.425781 26.328125 -42.0625 26.328125 -36.5 C 26.328125 -30.9375 27.867188 -26.523438 30.953125 -23.265625 C 34.035156 -20.003906 37.796875 -18.375 42.234375 -18.375 C 46.660156 -18.375 50.414062 -19.984375 53.5 -23.203125 C 56.59375 -26.421875 58.140625 -30.804688 58.140625 -36.359375 Z M 58.140625 -36.359375 "/></g></g></g><g fill="#000000" fill-opacity="1"><g transform="translate(588.011953, 247.535097)"><g><path d="M 30.375 -60.609375 C 32.976562 -64.609375 36.234375 -67.757812 40.140625 -70.0625 C 44.054688 -72.363281 48.40625 -73.515625 53.1875 -73.515625 L 53.1875 -49.921875 L 47.046875 -49.921875 C 41.492188 -49.921875 37.328125 -48.722656 34.546875 -46.328125 C 31.765625 -43.941406 30.375 -39.753906 30.375 -33.765625 L 30.375 0 L 8.078125 0 L 8.078125 -72.734375 L 30.375 -72.734375 Z M 30.375 -60.609375 "/></g></g></g><g fill="#000000" fill-opacity="1"><g transform="translate(643.80003, 247.535097)"><g><path d="M 3.65625 -36.5 C 3.65625 -43.96875 5.066406 -50.523438 7.890625 -56.171875 C 10.710938 -61.828125 14.554688 -66.175781 19.421875 -69.21875 C 24.285156 -72.257812 29.71875 -73.78125 35.71875 -73.78125 C 40.5 -73.78125 44.863281 -72.78125 48.8125 -70.78125 C 52.769531 -68.78125 55.878906 -66.082031 58.140625 -62.6875 L 58.140625 -96.453125 L 80.421875 -96.453125 L 80.421875 0 L 58.140625 0 L 58.140625 -10.421875 C 56.046875 -6.953125 53.066406 -4.171875 49.203125 -2.078125 C 45.335938 0.00390625 40.84375 1.046875 35.71875 1.046875 C 29.71875 1.046875 24.285156 -0.492188 19.421875 -3.578125 C 14.554688 -6.671875 10.710938 -11.0625 7.890625 -16.75 C 5.066406 -22.4375 3.65625 -29.019531 3.65625 -36.5 Z M 58.140625 -36.359375 C 58.140625 -41.921875 56.59375 -46.3125 53.5 -49.53125 C 50.414062 -52.75 46.660156 -54.359375 42.234375 -54.359375 C 37.796875 -54.359375 34.035156 -52.769531 30.953125 -49.59375 C 27.867188 -46.425781 26.328125 -42.0625 26.328125 -36.5 C 26.328125 -30.9375 27.867188 -26.523438 30.953125 -23.265625 C 34.035156 -20.003906 37.796875 -18.375 42.234375 -18.375 C 46.660156 -18.375 50.414062 -19.984375 53.5 -23.203125 C 56.59375 -26.421875 58.140625 -30.804688 58.140625 -36.359375 Z M 58.140625 -36.359375 "/></g></g></g><g fill="#000000" fill-opacity="1"><g transform="translate(732.304984, 247.535097)"><g><path d="M 31.796875 -18.25 L 71.171875 -18.25 L 71.171875 0 L 6.515625 0 L 6.515625 -16.9375 L 45.625 -73.25 L 6.515625 -73.25 L 6.515625 -91.5 L 71.171875 -91.5 L 71.171875 -74.5625 Z M 31.796875 -18.25 "/></g></g></g></svg>