<svg xmlns="http://www.w3.org/2000/svg" xmlns:xlink="http://www.w3.org/1999/xlink" width="1080" zoomAndPan="magnify" viewBox="0 0 810 809.999993" height="1080" preserveAspectRatio="xMidYMid meet" version="1.0"><defs><filter x="0%" y="0%" width="100%" height="100%" id="549e30b692"><feColorMatrix values="0 0 0 0 1 0 0 0 0 1 0 0 0 0 1 0 0 0 1 0" color-interpolation-filters="sRGB"/></filter><clipPath id="9b94112dd7"><path d="M 214.597656 214.597656 L 595.402344 214.597656 L 595.402344 595.402344 L 214.597656 595.402344 Z M 214.597656 214.597656 " clip-rule="nonzero"/></clipPath><clipPath id="ecc2e8cc9a"><path d="M 405 214.597656 C 299.84375 214.597656 214.597656 299.84375 214.597656 405 C 214.597656 510.15625 299.84375 595.402344 405 595.402344 C 510.15625 595.402344 595.402344 510.15625 595.402344 405 C 595.402344 299.84375 510.15625 214.597656 405 214.597656 Z M 405 214.597656 " clip-rule="nonzero"/></clipPath><clipPath id="bd4d5d84e7"><path d="M 299.066406 333.46875 L 370.597656 333.46875 L 370.597656 430.425781 L 299.066406 430.425781 Z M 299.066406 333.46875 " clip-rule="nonzero"/></clipPath><clipPath id="50fc5c7de2"><path d="M 334.832031 333.46875 C 315.078125 333.46875 299.066406 355.140625 299.066406 381.878906 C 299.066406 408.617188 315.078125 430.289062 334.832031 430.289062 C 354.585938 430.289062 370.597656 408.617188 370.597656 381.878906 C 370.597656 355.140625 354.585938 333.46875 334.832031 333.46875 Z M 334.832031 333.46875 " clip-rule="nonzero"/></clipPath><clipPath id="2d9d00475c"><path d="M 439.402344 333.46875 L 510.933594 333.46875 L 510.933594 430.425781 L 439.402344 430.425781 Z M 439.402344 333.46875 " clip-rule="nonzero"/></clipPath><clipPath id="70b0f5b08a"><path d="M 475.167969 333.46875 C 455.414062 333.46875 439.402344 355.140625 439.402344 381.878906 C 439.402344 408.617188 455.414062 430.289062 475.167969 430.289062 C 494.921875 430.289062 510.933594 408.617188 510.933594 381.878906 C 510.933594 355.140625 494.921875 333.46875 475.167969 333.46875 Z M 475.167969 333.46875 " clip-rule="nonzero"/></clipPath><mask id="99687ec770"><g filter="url(#549e30b692)"><rect x="-81" width="972" fill="#000000" y="-80.999999" height="971.999992" fill-opacity="0.14"/></g></mask><clipPath id="fa813b1952"><path d="M 51 130 L 717 130 L 717 542 L 51 542 Z M 51 130 " clip-rule="nonzero"/></clipPath><clipPath id="8712dbaf12"><path d="M 160.472656 0.152344 L 783.269531 355.417969 L 623.476562 635.546875 L 0.679688 280.28125 Z M 160.472656 0.152344 " clip-rule="nonzero"/></clipPath><clipPath id="419497651c"><path d="M 160.472656 0.152344 L 783.269531 355.417969 L 623.476562 635.546875 L 0.679688 280.28125 Z M 160.472656 0.152344 " clip-rule="nonzero"/></clipPath><clipPath id="c778d470d8"><path d="M 160.472656 0.152344 L 783.269531 355.417969 L 623.476562 635.546875 L 0.679688 280.28125 Z M 160.472656 0.152344 " clip-rule="nonzero"/></clipPath><clipPath id="2f132ecae4"><rect x="0" width="785" y="0" height="637"/></clipPath><clipPath id="1ed3dbc3ee"><path d="M 503 122.050781 L 688 122.050781 L 688 307 L 503 307 Z M 503 122.050781 " clip-rule="nonzero"/></clipPath><clipPath id="d733cfdb51"><path d="M 81 537.757812 L 157.5 537.757812 L 157.5 614 L 81 614 Z M 81 537.757812 " clip-rule="nonzero"/></clipPath><clipPath id="404489cead"><path d="M 190 570 L 290 570 L 290 669 L 190 669 Z M 190 570 " clip-rule="nonzero"/></clipPath><clipPath id="38aef75a46"><path d="M 223.175781 537.757812 L 321.710938 602.222656 L 257.246094 700.757812 L 158.710938 636.292969 Z M 223.175781 537.757812 " clip-rule="nonzero"/></clipPath><clipPath id="a36fc64a9d"><path d="M 223.175781 537.757812 L 321.710938 602.222656 L 257.246094 700.757812 L 158.710938 636.292969 Z M 223.175781 537.757812 " clip-rule="nonzero"/></clipPath></defs><g clip-path="url(#9b94112dd7)"><g clip-path="url(#ecc2e8cc9a)"><path fill="#000000" d="M 214.597656 214.597656 L 595.402344 214.597656 L 595.402344 595.402344 L 214.597656 595.402344 Z M 214.597656 214.597656 " fill-opacity="1" fill-rule="nonzero"/></g></g><g clip-path="url(#bd4d5d84e7)"><g clip-path="url(#50fc5c7de2)"><path fill="#ffffff" d="M 299.066406 333.46875 L 370.597656 333.46875 L 370.597656 430.425781 L 299.066406 430.425781 Z M 299.066406 333.46875 " fill-opacity="1" fill-rule="nonzero"/></g></g><g clip-path="url(#2d9d00475c)"><g clip-path="url(#70b0f5b08a)"><path fill="#ffffff" d="M 439.402344 333.46875 L 510.933594 333.46875 L 510.933594 430.425781 L 439.402344 430.425781 Z M 439.402344 333.46875 " fill-opacity="1" fill-rule="nonzero"/></g></g><g mask="url(#99687ec770)"><g transform="matrix(1, 0, 0, 1, 13, 87)"><g clip-path="url(#2f132ecae4)"><g clip-path="url(#fa813b1952)"><g clip-path="url(#8712dbaf12)"><g clip-path="url(#419497651c)"><g clip-path="url(#c778d470d8)"><path fill="#000000" d="M 636.496094 312.363281 C 591.132812 271.238281 539.214844 237.546875 483.417969 212.300781 C 427.621094 187.058594 368.027344 170.195312 307.269531 162.582031 C 277.105469 158.820312 246.648438 157.28125 216.257812 158.171875 C 185.683594 159.039062 154.230469 161.515625 124.429688 168.664062 C 95.015625 175.675781 64.035156 192.382812 55.015625 223.457031 C 47.519531 249.246094 60.363281 274.445312 76.550781 293.910156 C 86.042969 305.320312 97.058594 315.367188 108.210938 325.101562 C 121.460938 336.65625 135.1875 347.660156 149.289062 358.136719 C 178.054688 379.480469 208.464844 398.554688 239.933594 415.644531 C 302.902344 449.835938 369.914062 476.109375 438.074219 497.898438 C 472.4375 508.878906 507.121094 518.746094 542 527.863281 C 570.242188 535.273438 599.585938 543.503906 629.089844 541.011719 C 656.371094 538.699219 680.441406 525.578125 696.195312 503.050781 C 711.75 480.800781 718.226562 452.394531 716.234375 425.503906 C 711.726562 364.722656 665.605469 315.992188 621.421875 278.636719 C 573.125 237.839844 518.527344 204.65625 460.28125 180.132812 C 402.179688 155.691406 340.582031 139.800781 277.855469 133.300781 C 246.335938 130.054688 214.558594 129.179688 182.90625 130.839844 C 152.660156 132.4375 120.945312 135.789062 94.203125 151.1875 C 71.539062 164.246094 53.472656 187.730469 51.707031 214.472656 C 49.625 245.898438 74.921875 268.441406 95.632812 288.371094 C 143.878906 334.824219 198.304688 374.847656 256.828125 407.40625 C 315.351562 439.96875 378.082031 465.089844 442.949219 481.789062 C 475.578125 490.171875 508.753906 496.433594 542.214844 500.46875 C 572.160156 504.066406 603.421875 505.984375 632.699219 497.285156 C 659.414062 489.359375 683.628906 471.109375 694.726562 444.984375 C 699.875 432.867188 701.757812 419.597656 699.203125 406.617188 C 696.507812 392.847656 689.171875 380.550781 680.28125 369.871094 C 670.5625 358.175781 658.945312 348.21875 647.484375 338.269531 C 633.574219 326.21875 619.515625 314.359375 605.242188 302.804688 C 576.886719 279.847656 547.636719 257.910156 517.109375 237.871094 C 459.761719 200.21875 397.476562 168.960938 330.914062 151.453125 C 273.253906 136.28125 212.566406 131.019531 153.421875 139.769531 C 125.152344 143.949219 97.421875 151.453125 71 162.371094 C 68.597656 163.351562 69.660156 167.328125 72.082031 166.316406 C 125.820312 144.019531 184.546875 136.554688 242.398438 140.667969 C 303.304688 144.992188 362.757812 161.898438 418.136719 187.253906 C 483.132812 217 542.558594 257.601562 598.132812 302.277344 C 612.117188 313.507812 625.890625 325.046875 639.5 336.730469 C 650.9375 346.585938 662.59375 356.332031 672.8125 367.496094 C 682.328125 377.902344 690.664062 389.828125 694.304688 403.585938 C 697.886719 417.035156 696.320312 431.195312 690.746094 443.851562 C 679.160156 470.285156 654.152344 487.652344 626.785156 494.65625 C 597.453125 502.148438 566.492188 499.5 536.816406 495.703125 C 471.996094 487.378906 408.277344 470.59375 347.625 446.226562 C 286.753906 421.773438 228.96875 389.632812 176.09375 350.808594 C 149.8125 331.503906 124.75 310.546875 101.1875 288.050781 C 80.28125 268.125 53.183594 245.300781 55.882812 213.484375 C 58.1875 186.066406 78.34375 163.382812 102.175781 151.578125 C 129.472656 138.027344 161.101562 135.722656 191.09375 134.566406 C 252.730469 132.175781 314.660156 139.320312 374.28125 155.105469 C 433.933594 170.90625 491.253906 195.332031 543.859375 227.613281 C 570.386719 243.878906 595.714844 262.171875 619.453125 282.296875 C 642.222656 301.636719 664.035156 322.664062 681.289062 347.203125 C 697.808594 370.699219 710.484375 398.117188 712.273438 427.085938 C 713.925781 453.820312 707.101562 481.796875 690.957031 503.433594 C 683.121094 513.9375 672.972656 522.652344 661.171875 528.421875 C 648.648438 534.566406 634.652344 537.167969 620.757812 537.394531 C 590.890625 537.917969 561.410156 528.898438 532.839844 521.304688 C 465.074219 503.226562 397.871094 482.375 333.042969 455.429688 C 269.171875 428.875 207.523438 396.292969 151.867188 355.058594 C 137.703125 344.550781 123.910156 333.464844 110.644531 321.863281 C 99.886719 312.472656 89.324219 302.800781 80.113281 291.863281 C 63.367188 271.925781 50.246094 245.429688 60.773438 219.410156 C 73.273438 188.636719 106.816406 175.824219 137.066406 170.226562 C 166.769531 164.632812 197.265625 162.3125 227.5 162.039062 C 287.070312 161.488281 346.644531 170.070312 403.734375 186.996094 C 460.84375 203.894531 515.449219 229.164062 565.121094 262.046875 C 589.269531 278.015625 612.140625 295.804688 633.609375 315.222656 C 635.527344 317.023438 638.429688 314.132812 636.496094 312.363281 Z M 636.496094 312.363281 " fill-opacity="1" fill-rule="nonzero"/></g></g></g></g></g></g></g><g clip-path="url(#1ed3dbc3ee)"><path fill="#bdf772" d="M 597.765625 124.363281 L 616.214844 182.800781 C 617.867188 188.03125 621.964844 192.128906 627.195312 193.777344 L 685.628906 212.226562 C 687.941406 212.957031 687.941406 216.230469 685.628906 216.960938 L 627.195312 235.410156 C 621.964844 237.0625 617.867188 241.160156 616.214844 246.390625 L 597.765625 304.824219 C 597.035156 307.136719 593.765625 307.136719 593.035156 304.824219 L 574.585938 246.390625 C 572.933594 241.160156 568.835938 237.0625 563.605469 235.410156 L 505.167969 216.960938 C 502.855469 216.230469 502.855469 212.957031 505.167969 212.226562 L 563.605469 193.777344 C 568.835938 192.128906 572.933594 188.03125 574.585938 182.800781 L 593.035156 124.363281 C 593.765625 122.050781 597.035156 122.050781 597.765625 124.363281 " fill-opacity="1" fill-rule="nonzero"/></g><g clip-path="url(#d733cfdb51)"><path fill="#000000" d="M 120.113281 538.710938 L 127.71875 562.792969 C 128.398438 564.945312 130.085938 566.636719 132.242188 567.316406 L 156.324219 574.917969 C 157.277344 575.21875 157.277344 576.570312 156.324219 576.871094 L 132.242188 584.472656 C 130.085938 585.152344 128.398438 586.84375 127.71875 588.996094 L 120.113281 613.082031 C 119.8125 614.035156 118.464844 614.035156 118.164062 613.082031 L 110.558594 588.996094 C 109.878906 586.84375 108.191406 585.152344 106.035156 584.472656 L 81.953125 576.871094 C 81 576.570312 81 575.21875 81.953125 574.917969 L 106.035156 567.316406 C 108.191406 566.636719 109.878906 564.945312 110.558594 562.792969 L 118.164062 538.710938 C 118.464844 537.757812 119.8125 537.757812 120.113281 538.710938 " fill-opacity="1" fill-rule="nonzero"/></g><g clip-path="url(#404489cead)"><g clip-path="url(#38aef75a46)"><g clip-path="url(#a36fc64a9d)"><path fill="#f3efe9" d="M 272.972656 572.097656 L 262.425781 609.6875 C 261.480469 613.054688 262.238281 616.667969 264.449219 619.371094 L 289.167969 649.59375 C 290.148438 650.789062 289.007812 652.535156 287.519531 652.117188 L 249.925781 641.570312 C 246.5625 640.625 242.949219 641.378906 240.246094 643.59375 L 210.023438 668.3125 C 208.828125 669.292969 207.082031 668.148438 207.5 666.660156 L 218.046875 629.070312 C 218.992188 625.707031 218.234375 622.09375 216.023438 619.386719 L 191.304688 589.167969 C 190.324219 587.96875 191.464844 586.226562 192.953125 586.644531 L 230.546875 597.191406 C 233.910156 598.132812 237.523438 597.378906 240.230469 595.167969 L 270.449219 570.445312 C 271.644531 569.46875 273.390625 570.609375 272.972656 572.097656 " fill-opacity="1" fill-rule="nonzero"/></g></g></g></svg>